G04 #@! TF.GenerationSoftware,KiCad,Pcbnew,(6.0.5)*
G04 #@! TF.CreationDate,2023-01-08T23:57:36-05:00*
G04 #@! TF.ProjectId,macro-pad-pcb,6d616372-6f2d-4706-9164-2d7063622e6b,rev?*
G04 #@! TF.SameCoordinates,Original*
G04 #@! TF.FileFunction,Copper,L1,Top*
G04 #@! TF.FilePolarity,Positive*
%FSLAX46Y46*%
G04 Gerber Fmt 4.6, Leading zero omitted, Abs format (unit mm)*
G04 Created by KiCad (PCBNEW (6.0.5)) date 2023-01-08 23:57:36*
%MOMM*%
%LPD*%
G01*
G04 APERTURE LIST*
G04 Aperture macros list*
%AMRoundRect*
0 Rectangle with rounded corners*
0 $1 Rounding radius*
0 $2 $3 $4 $5 $6 $7 $8 $9 X,Y pos of 4 corners*
0 Add a 4 corners polygon primitive as box body*
4,1,4,$2,$3,$4,$5,$6,$7,$8,$9,$2,$3,0*
0 Add four circle primitives for the rounded corners*
1,1,$1+$1,$2,$3*
1,1,$1+$1,$4,$5*
1,1,$1+$1,$6,$7*
1,1,$1+$1,$8,$9*
0 Add four rect primitives between the rounded corners*
20,1,$1+$1,$2,$3,$4,$5,0*
20,1,$1+$1,$4,$5,$6,$7,0*
20,1,$1+$1,$6,$7,$8,$9,0*
20,1,$1+$1,$8,$9,$2,$3,0*%
%AMHorizOval*
0 Thick line with rounded ends*
0 $1 width*
0 $2 $3 position (X,Y) of the first rounded end (center of the circle)*
0 $4 $5 position (X,Y) of the second rounded end (center of the circle)*
0 Add line between two ends*
20,1,$1,$2,$3,$4,$5,0*
0 Add two circle primitives to create the rounded ends*
1,1,$1,$2,$3*
1,1,$1,$4,$5*%
%AMRotRect*
0 Rectangle, with rotation*
0 The origin of the aperture is its center*
0 $1 length*
0 $2 width*
0 $3 Rotation angle, in degrees counterclockwise*
0 Add horizontal line*
21,1,$1,$2,0,0,$3*%
G04 Aperture macros list end*
G04 #@! TA.AperFunction,ComponentPad*
%ADD10C,2.250000*%
G04 #@! TD*
G04 #@! TA.AperFunction,ComponentPad*
%ADD11HorizOval,2.250000X0.655001X0.730000X-0.655001X-0.730000X0*%
G04 #@! TD*
G04 #@! TA.AperFunction,ComponentPad*
%ADD12HorizOval,2.250000X0.020000X0.290000X-0.020000X-0.290000X0*%
G04 #@! TD*
G04 #@! TA.AperFunction,ComponentPad*
%ADD13C,1.905000*%
G04 #@! TD*
G04 #@! TA.AperFunction,ComponentPad*
%ADD14R,1.905000X1.905000*%
G04 #@! TD*
G04 #@! TA.AperFunction,ComponentPad*
%ADD15HorizOval,2.250000X-0.730000X0.655001X0.730000X-0.655001X0*%
G04 #@! TD*
G04 #@! TA.AperFunction,ComponentPad*
%ADD16HorizOval,2.250000X-0.290000X0.020000X0.290000X-0.020000X0*%
G04 #@! TD*
G04 #@! TA.AperFunction,SMDPad,CuDef*
%ADD17RoundRect,0.250000X-0.450000X0.262500X-0.450000X-0.262500X0.450000X-0.262500X0.450000X0.262500X0*%
G04 #@! TD*
G04 #@! TA.AperFunction,SMDPad,CuDef*
%ADD18RotRect,1.500000X0.550000X45.000000*%
G04 #@! TD*
G04 #@! TA.AperFunction,SMDPad,CuDef*
%ADD19RotRect,1.500000X0.550000X315.000000*%
G04 #@! TD*
G04 #@! TA.AperFunction,SMDPad,CuDef*
%ADD20RoundRect,0.250000X0.262500X0.450000X-0.262500X0.450000X-0.262500X-0.450000X0.262500X-0.450000X0*%
G04 #@! TD*
G04 #@! TA.AperFunction,SMDPad,CuDef*
%ADD21RoundRect,0.250000X0.475000X-0.250000X0.475000X0.250000X-0.475000X0.250000X-0.475000X-0.250000X0*%
G04 #@! TD*
G04 #@! TA.AperFunction,SMDPad,CuDef*
%ADD22RoundRect,0.250000X-0.475000X0.250000X-0.475000X-0.250000X0.475000X-0.250000X0.475000X0.250000X0*%
G04 #@! TD*
G04 #@! TA.AperFunction,SMDPad,CuDef*
%ADD23RoundRect,0.250000X-0.250000X-0.475000X0.250000X-0.475000X0.250000X0.475000X-0.250000X0.475000X0*%
G04 #@! TD*
G04 #@! TA.AperFunction,ComponentPad*
%ADD24C,2.000000*%
G04 #@! TD*
G04 #@! TA.AperFunction,ComponentPad*
%ADD25C,3.200000*%
G04 #@! TD*
G04 #@! TA.AperFunction,ComponentPad*
%ADD26R,2.000000X2.000000*%
G04 #@! TD*
G04 #@! TA.AperFunction,SMDPad,CuDef*
%ADD27RoundRect,0.250000X-0.262500X-0.450000X0.262500X-0.450000X0.262500X0.450000X-0.262500X0.450000X0*%
G04 #@! TD*
G04 #@! TA.AperFunction,SMDPad,CuDef*
%ADD28R,0.700000X0.600000*%
G04 #@! TD*
G04 #@! TA.AperFunction,SMDPad,CuDef*
%ADD29R,0.700000X1.000000*%
G04 #@! TD*
G04 #@! TA.AperFunction,SMDPad,CuDef*
%ADD30R,2.100000X1.800000*%
G04 #@! TD*
G04 #@! TA.AperFunction,SMDPad,CuDef*
%ADD31R,1.100000X1.800000*%
G04 #@! TD*
G04 #@! TA.AperFunction,SMDPad,CuDef*
%ADD32RoundRect,0.250000X-0.375000X-0.625000X0.375000X-0.625000X0.375000X0.625000X-0.375000X0.625000X0*%
G04 #@! TD*
G04 #@! TA.AperFunction,ComponentPad*
%ADD33O,1.000000X2.100000*%
G04 #@! TD*
G04 #@! TA.AperFunction,ComponentPad*
%ADD34O,1.000000X1.600000*%
G04 #@! TD*
G04 #@! TA.AperFunction,ViaPad*
%ADD35C,0.800000*%
G04 #@! TD*
G04 #@! TA.AperFunction,Conductor*
%ADD36C,0.254000*%
G04 #@! TD*
G04 #@! TA.AperFunction,Conductor*
%ADD37C,0.381000*%
G04 #@! TD*
G04 #@! TA.AperFunction,Conductor*
%ADD38C,0.200000*%
G04 #@! TD*
G04 APERTURE END LIST*
D10*
G04 #@! TO.P,MX4,1,COL*
G04 #@! TO.N,COL0*
X170537500Y-100775000D03*
D11*
X169882501Y-101505000D03*
D12*
G04 #@! TO.P,MX4,2,ROW*
G04 #@! TO.N,Net-(D4-Pad2)*
X175557500Y-99985000D03*
D10*
X175577500Y-99695000D03*
D13*
G04 #@! TO.P,MX4,3*
G04 #@! TO.N,N/C*
X171767500Y-109855000D03*
D14*
G04 #@! TO.P,MX4,4*
X174307500Y-109855000D03*
G04 #@! TD*
D10*
G04 #@! TO.P,MX7,1,COL*
G04 #@! TO.N,COL3*
X226187500Y-97750000D03*
D15*
X226917500Y-98404999D03*
D10*
G04 #@! TO.P,MX7,2,ROW*
G04 #@! TO.N,Net-(D7-Pad2)*
X225107500Y-92710000D03*
D16*
X225397500Y-92730000D03*
D13*
G04 #@! TO.P,MX7,3*
G04 #@! TO.N,N/C*
X235267500Y-96520000D03*
D14*
G04 #@! TO.P,MX7,4*
X235267500Y-93980000D03*
G04 #@! TD*
D10*
G04 #@! TO.P,MX6,1,COL*
G04 #@! TO.N,COL2*
X208637500Y-100775000D03*
D11*
X207982501Y-101505000D03*
D12*
G04 #@! TO.P,MX6,2,ROW*
G04 #@! TO.N,Net-(D6-Pad2)*
X213657500Y-99985000D03*
D10*
X213677500Y-99695000D03*
D13*
G04 #@! TO.P,MX6,3*
G04 #@! TO.N,N/C*
X209867500Y-109855000D03*
D14*
G04 #@! TO.P,MX6,4*
X212407500Y-109855000D03*
G04 #@! TD*
D17*
G04 #@! TO.P,R5,2*
G04 #@! TO.N,Net-(R5-Pad2)*
X170180000Y-64412500D03*
G04 #@! TO.P,R5,1*
G04 #@! TO.N,D-*
X170180000Y-62587500D03*
G04 #@! TD*
D18*
G04 #@! TO.P,U2,44,AVCC*
G04 #@! TO.N,+5V*
X195131082Y-54736064D03*
G04 #@! TO.P,U2,43,GND*
G04 #@! TO.N,GND*
X195696767Y-55301750D03*
G04 #@! TO.P,U2,42,AREF*
G04 #@! TO.N,unconnected-(U2-Pad42)*
X196262452Y-55867435D03*
G04 #@! TO.P,U2,41,PF0*
G04 #@! TO.N,unconnected-(U2-Pad41)*
X196828138Y-56433120D03*
G04 #@! TO.P,U2,40,PF1*
G04 #@! TO.N,unconnected-(U2-Pad40)*
X197393823Y-56998806D03*
G04 #@! TO.P,U2,39,PF4*
G04 #@! TO.N,COL0*
X197959509Y-57564491D03*
G04 #@! TO.P,U2,38,PF5*
G04 #@! TO.N,COL1*
X198525194Y-58130177D03*
G04 #@! TO.P,U2,37,PF6*
G04 #@! TO.N,COL2*
X199090880Y-58695862D03*
G04 #@! TO.P,U2,36,PF7*
G04 #@! TO.N,COL3*
X199656565Y-59261548D03*
G04 #@! TO.P,U2,35,GND*
G04 #@! TO.N,GND*
X200222250Y-59827233D03*
G04 #@! TO.P,U2,34,VCC*
G04 #@! TO.N,+5V*
X200787936Y-60392918D03*
D19*
G04 #@! TO.P,U2,33,~{HWB}/PE2*
G04 #@! TO.N,Net-(R6-Pad1)*
X200787936Y-62797082D03*
G04 #@! TO.P,U2,32,PC7*
G04 #@! TO.N,unconnected-(U2-Pad32)*
X200222250Y-63362767D03*
G04 #@! TO.P,U2,31,PC6*
G04 #@! TO.N,unconnected-(U2-Pad31)*
X199656565Y-63928452D03*
G04 #@! TO.P,U2,30,PB6*
G04 #@! TO.N,unconnected-(U2-Pad30)*
X199090880Y-64494138D03*
G04 #@! TO.P,U2,29,PB5*
G04 #@! TO.N,ROW3*
X198525194Y-65059823D03*
G04 #@! TO.P,U2,28,PB4*
G04 #@! TO.N,ROW2*
X197959509Y-65625509D03*
G04 #@! TO.P,U2,27,PD7*
G04 #@! TO.N,ROW1*
X197393823Y-66191194D03*
G04 #@! TO.P,U2,26,PD6*
G04 #@! TO.N,ROW0*
X196828138Y-66756880D03*
G04 #@! TO.P,U2,25,PD4*
G04 #@! TO.N,unconnected-(U2-Pad25)*
X196262452Y-67322565D03*
G04 #@! TO.P,U2,24,AVCC*
G04 #@! TO.N,+5V*
X195696767Y-67888250D03*
G04 #@! TO.P,U2,23,GND*
G04 #@! TO.N,GND*
X195131082Y-68453936D03*
D18*
G04 #@! TO.P,U2,22,PD5*
G04 #@! TO.N,unconnected-(U2-Pad22)*
X192726918Y-68453936D03*
G04 #@! TO.P,U2,21,PD3*
G04 #@! TO.N,unconnected-(U2-Pad21)*
X192161233Y-67888250D03*
G04 #@! TO.P,U2,20,PD2*
G04 #@! TO.N,unconnected-(U2-Pad20)*
X191595548Y-67322565D03*
G04 #@! TO.P,U2,19,PD1*
G04 #@! TO.N,EN1*
X191029862Y-66756880D03*
G04 #@! TO.P,U2,18,PD0*
G04 #@! TO.N,EN2*
X190464177Y-66191194D03*
G04 #@! TO.P,U2,17,XTAL1*
G04 #@! TO.N,Net-(C1-Pad2)*
X189898491Y-65625509D03*
G04 #@! TO.P,U2,16,XTAL2*
G04 #@! TO.N,Net-(C2-Pad2)*
X189332806Y-65059823D03*
G04 #@! TO.P,U2,15,GND*
G04 #@! TO.N,GND*
X188767120Y-64494138D03*
G04 #@! TO.P,U2,14,VCC*
G04 #@! TO.N,+5V*
X188201435Y-63928452D03*
G04 #@! TO.P,U2,13,~{RESET}*
G04 #@! TO.N,Net-(R1-Pad1)*
X187635750Y-63362767D03*
G04 #@! TO.P,U2,12,PB7*
G04 #@! TO.N,unconnected-(U2-Pad12)*
X187070064Y-62797082D03*
D19*
G04 #@! TO.P,U2,11,PB3*
G04 #@! TO.N,unconnected-(U2-Pad11)*
X187070064Y-60392918D03*
G04 #@! TO.P,U2,10,PB2*
G04 #@! TO.N,unconnected-(U2-Pad10)*
X187635750Y-59827233D03*
G04 #@! TO.P,U2,9,PB1*
G04 #@! TO.N,unconnected-(U2-Pad9)*
X188201435Y-59261548D03*
G04 #@! TO.P,U2,8,PB0*
G04 #@! TO.N,unconnected-(U2-Pad8)*
X188767120Y-58695862D03*
G04 #@! TO.P,U2,7,VBUS*
G04 #@! TO.N,+5V*
X189332806Y-58130177D03*
G04 #@! TO.P,U2,6,UCAP*
G04 #@! TO.N,Net-(C3-Pad2)*
X189898491Y-57564491D03*
G04 #@! TO.P,U2,5,UGND*
G04 #@! TO.N,GND*
X190464177Y-56998806D03*
G04 #@! TO.P,U2,4,D+*
G04 #@! TO.N,Net-(R4-Pad2)*
X191029862Y-56433120D03*
G04 #@! TO.P,U2,3,D-*
G04 #@! TO.N,Net-(R5-Pad2)*
X191595548Y-55867435D03*
G04 #@! TO.P,U2,2,UVCC*
G04 #@! TO.N,+5V*
X192161233Y-55301750D03*
G04 #@! TO.P,U2,1,PE6*
G04 #@! TO.N,unconnected-(U2-Pad1)*
X192726918Y-54736064D03*
G04 #@! TD*
D20*
G04 #@! TO.P,R3,2*
G04 #@! TO.N,GND*
X162409500Y-67691000D03*
G04 #@! TO.P,R3,1*
G04 #@! TO.N,Net-(R3-Pad1)*
X164234500Y-67691000D03*
G04 #@! TD*
D21*
G04 #@! TO.P,C2,2*
G04 #@! TO.N,Net-(C2-Pad2)*
X199517000Y-72583000D03*
G04 #@! TO.P,C2,1*
G04 #@! TO.N,GND*
X199517000Y-74483000D03*
G04 #@! TD*
D22*
G04 #@! TO.P,C1,2*
G04 #@! TO.N,Net-(C1-Pad2)*
X190627000Y-74610000D03*
G04 #@! TO.P,C1,1*
G04 #@! TO.N,GND*
X190627000Y-72710000D03*
G04 #@! TD*
D11*
G04 #@! TO.P,MX8,1,COL*
G04 #@! TO.N,COL0*
X169882501Y-120555000D03*
D10*
X170537500Y-119825000D03*
D12*
G04 #@! TO.P,MX8,2,ROW*
G04 #@! TO.N,Net-(D8-Pad2)*
X175557500Y-119035000D03*
D10*
X175577500Y-118745000D03*
D13*
G04 #@! TO.P,MX8,3*
G04 #@! TO.N,N/C*
X171767500Y-128905000D03*
D14*
G04 #@! TO.P,MX8,4*
X174307500Y-128905000D03*
G04 #@! TD*
D23*
G04 #@! TO.P,C3,2*
G04 #@! TO.N,Net-(C3-Pad2)*
X178115000Y-71120000D03*
G04 #@! TO.P,C3,1*
G04 #@! TO.N,GND*
X176215000Y-71120000D03*
G04 #@! TD*
D14*
G04 #@! TO.P,MX5,4*
G04 #@! TO.N,N/C*
X193357500Y-109855000D03*
D13*
G04 #@! TO.P,MX5,3*
X190817500Y-109855000D03*
D10*
G04 #@! TO.P,MX5,2,ROW*
G04 #@! TO.N,Net-(D5-Pad2)*
X194627500Y-99695000D03*
D12*
X194607500Y-99985000D03*
D11*
G04 #@! TO.P,MX5,1,COL*
G04 #@! TO.N,COL1*
X188932501Y-101505000D03*
D10*
X189587500Y-100775000D03*
G04 #@! TD*
D24*
G04 #@! TO.P,SW2,S2*
G04 #@! TO.N,N/C*
X236358000Y-62397000D03*
G04 #@! TO.P,SW2,S1*
X236358000Y-67397000D03*
D25*
G04 #@! TO.P,SW2,MP*
X229358000Y-70497000D03*
X229358000Y-59297000D03*
D24*
G04 #@! TO.P,SW2,C,C*
G04 #@! TO.N,GND*
X221858000Y-64897000D03*
G04 #@! TO.P,SW2,B,B*
G04 #@! TO.N,EN1*
X221858000Y-67397000D03*
D26*
G04 #@! TO.P,SW2,A,A*
G04 #@! TO.N,EN2*
X221858000Y-62397000D03*
G04 #@! TD*
D10*
G04 #@! TO.P,MX11,1,COL*
G04 #@! TO.N,COL0*
X180062500Y-138875000D03*
D11*
X179407501Y-139605000D03*
D10*
G04 #@! TO.P,MX11,2,ROW*
G04 #@! TO.N,Net-(D11-Pad2)*
X185102500Y-137795000D03*
D12*
X185082500Y-138085000D03*
D13*
G04 #@! TO.P,MX11,3*
G04 #@! TO.N,N/C*
X181292500Y-147955000D03*
D14*
G04 #@! TO.P,MX11,4*
X183832500Y-147955000D03*
G04 #@! TD*
D27*
G04 #@! TO.P,R2,2*
G04 #@! TO.N,GND*
X181633500Y-59944000D03*
G04 #@! TO.P,R2,1*
G04 #@! TO.N,Net-(R2-Pad1)*
X179808500Y-59944000D03*
G04 #@! TD*
D11*
G04 #@! TO.P,MX12,1,COL*
G04 #@! TO.N,COL2*
X207982501Y-139605000D03*
D10*
X208637500Y-138875000D03*
G04 #@! TO.P,MX12,2,ROW*
G04 #@! TO.N,Net-(D12-Pad2)*
X213677500Y-137795000D03*
D12*
X213657500Y-138085000D03*
D13*
G04 #@! TO.P,MX12,3*
G04 #@! TO.N,N/C*
X209867500Y-147955000D03*
D14*
G04 #@! TO.P,MX12,4*
X212407500Y-147955000D03*
G04 #@! TD*
D27*
G04 #@! TO.P,R6,2*
G04 #@! TO.N,GND*
X205382500Y-58039000D03*
G04 #@! TO.P,R6,1*
G04 #@! TO.N,Net-(R6-Pad1)*
X203557500Y-58039000D03*
G04 #@! TD*
D10*
G04 #@! TO.P,MX13,1,COL*
G04 #@! TO.N,COL3*
X226187500Y-135850000D03*
D15*
X226917500Y-136504999D03*
D16*
G04 #@! TO.P,MX13,2,ROW*
G04 #@! TO.N,Net-(D13-Pad2)*
X225397500Y-130830000D03*
D10*
X225107500Y-130810000D03*
D13*
G04 #@! TO.P,MX13,3*
G04 #@! TO.N,N/C*
X235267500Y-134620000D03*
D14*
G04 #@! TO.P,MX13,4*
X235267500Y-132080000D03*
G04 #@! TD*
D11*
G04 #@! TO.P,MX9,1,COL*
G04 #@! TO.N,COL1*
X188932501Y-120555000D03*
D10*
X189587500Y-119825000D03*
G04 #@! TO.P,MX9,2,ROW*
G04 #@! TO.N,Net-(D9-Pad2)*
X194627500Y-118745000D03*
D12*
X194607500Y-119035000D03*
D13*
G04 #@! TO.P,MX9,3*
G04 #@! TO.N,N/C*
X190817500Y-128905000D03*
D14*
G04 #@! TO.P,MX9,4*
X193357500Y-128905000D03*
G04 #@! TD*
D11*
G04 #@! TO.P,MX10,1,COL*
G04 #@! TO.N,COL2*
X207982501Y-120555000D03*
D10*
X208637500Y-119825000D03*
D12*
G04 #@! TO.P,MX10,2,ROW*
G04 #@! TO.N,Net-(D10-Pad2)*
X213657500Y-119035000D03*
D10*
X213677500Y-118745000D03*
D13*
G04 #@! TO.P,MX10,3*
G04 #@! TO.N,N/C*
X209867500Y-128905000D03*
D14*
G04 #@! TO.P,MX10,4*
X212407500Y-128905000D03*
G04 #@! TD*
D23*
G04 #@! TO.P,C7,2*
G04 #@! TO.N,GND*
X205420000Y-66675000D03*
G04 #@! TO.P,C7,1*
G04 #@! TO.N,+5V*
X203520000Y-66675000D03*
G04 #@! TD*
D17*
G04 #@! TO.P,R4,2*
G04 #@! TO.N,Net-(R4-Pad2)*
X177165000Y-64285500D03*
G04 #@! TO.P,R4,1*
G04 #@! TO.N,D+*
X177165000Y-62460500D03*
G04 #@! TD*
D23*
G04 #@! TO.P,C5,2*
G04 #@! TO.N,GND*
X205420000Y-70358000D03*
G04 #@! TO.P,C5,1*
G04 #@! TO.N,+5V*
X203520000Y-70358000D03*
G04 #@! TD*
G04 #@! TO.P,C6,2*
G04 #@! TO.N,GND*
X205420000Y-73660000D03*
G04 #@! TO.P,C6,1*
G04 #@! TO.N,+5V*
X203520000Y-73660000D03*
G04 #@! TD*
D10*
G04 #@! TO.P,MX3,1,COL*
G04 #@! TO.N,COL2*
X208637500Y-81725000D03*
D11*
X207982501Y-82455000D03*
D10*
G04 #@! TO.P,MX3,2,ROW*
G04 #@! TO.N,Net-(D3-Pad2)*
X213677500Y-80645000D03*
D12*
X213657500Y-80935000D03*
D13*
G04 #@! TO.P,MX3,3*
G04 #@! TO.N,N/C*
X209867500Y-90805000D03*
D14*
G04 #@! TO.P,MX3,4*
X212407500Y-90805000D03*
G04 #@! TD*
D28*
G04 #@! TO.P,U1,4,VCC*
G04 #@! TO.N,VCC*
X172609000Y-64323000D03*
G04 #@! TO.P,U1,3,IO2*
G04 #@! TO.N,D-*
X172609000Y-62423000D03*
G04 #@! TO.P,U1,2,IO1*
G04 #@! TO.N,D+*
X174609000Y-62423000D03*
D29*
G04 #@! TO.P,U1,1,GND*
G04 #@! TO.N,GND*
X174609000Y-64123000D03*
G04 #@! TD*
D11*
G04 #@! TO.P,MX1,1,COL*
G04 #@! TO.N,COL0*
X169882501Y-82455000D03*
D10*
X170537500Y-81725000D03*
D12*
G04 #@! TO.P,MX1,2,ROW*
G04 #@! TO.N,Net-(D1-Pad2)*
X175557500Y-80935000D03*
D10*
X175577500Y-80645000D03*
D13*
G04 #@! TO.P,MX1,3*
G04 #@! TO.N,N/C*
X171767500Y-90805000D03*
D14*
G04 #@! TO.P,MX1,4*
X174307500Y-90805000D03*
G04 #@! TD*
D17*
G04 #@! TO.P,R1,2*
G04 #@! TO.N,+5V*
X182245000Y-74318500D03*
G04 #@! TO.P,R1,1*
G04 #@! TO.N,Net-(R1-Pad1)*
X182245000Y-72493500D03*
G04 #@! TD*
D10*
G04 #@! TO.P,MX2,1,COL*
G04 #@! TO.N,COL1*
X189587500Y-81725000D03*
D11*
X188932501Y-82455000D03*
D12*
G04 #@! TO.P,MX2,2,ROW*
G04 #@! TO.N,Net-(D2-Pad2)*
X194607500Y-80935000D03*
D10*
X194627500Y-80645000D03*
D13*
G04 #@! TO.P,MX2,3*
G04 #@! TO.N,N/C*
X190817500Y-90805000D03*
D14*
G04 #@! TO.P,MX2,4*
X193357500Y-90805000D03*
G04 #@! TD*
D30*
G04 #@! TO.P,Y1,4,4*
G04 #@! TO.N,GND*
X193622000Y-72383000D03*
G04 #@! TO.P,Y1,3,3*
G04 #@! TO.N,Net-(C2-Pad2)*
X196522000Y-72383000D03*
G04 #@! TO.P,Y1,2,2*
G04 #@! TO.N,GND*
X196522000Y-74683000D03*
G04 #@! TO.P,Y1,1,1*
G04 #@! TO.N,Net-(C1-Pad2)*
X193622000Y-74683000D03*
G04 #@! TD*
D31*
G04 #@! TO.P,SW1,4*
G04 #@! TO.N,N/C*
X214829000Y-69140000D03*
G04 #@! TO.P,SW1,3*
X211129000Y-62940000D03*
G04 #@! TO.P,SW1,2,2*
G04 #@! TO.N,Net-(R1-Pad1)*
X211129000Y-69140000D03*
G04 #@! TO.P,SW1,1,1*
G04 #@! TO.N,GND*
X214829000Y-62940000D03*
G04 #@! TD*
D32*
G04 #@! TO.P,F1,2*
G04 #@! TO.N,+5V*
X172977000Y-73533000D03*
G04 #@! TO.P,F1,1*
G04 #@! TO.N,VCC*
X170177000Y-73533000D03*
G04 #@! TD*
D23*
G04 #@! TO.P,C4,2*
G04 #@! TO.N,GND*
X205420000Y-63500000D03*
G04 #@! TO.P,C4,1*
G04 #@! TO.N,+5V*
X203520000Y-63500000D03*
G04 #@! TD*
D33*
G04 #@! TO.P,USB1,13,SHIELD*
G04 #@! TO.N,GND*
X176917000Y-55481000D03*
D34*
X176917000Y-51301000D03*
D33*
X168277000Y-55481000D03*
D34*
X168277000Y-51301000D03*
G04 #@! TD*
D35*
G04 #@! TO.N,Net-(R4-Pad2)*
X183514989Y-60325000D03*
G04 #@! TO.N,GND*
X179324000Y-62865000D03*
X177546000Y-65913000D03*
X180975000Y-54864000D03*
G04 #@! TO.N,EN2*
X223012000Y-72771000D03*
X208788000Y-76581000D03*
X192405000Y-65544761D03*
G04 #@! TO.N,EN1*
X210185000Y-72136000D03*
X197612000Y-63627000D03*
G04 #@! TO.N,ROW2*
X221488000Y-124460000D03*
X209804000Y-78486000D03*
X200279000Y-66675000D03*
G04 #@! TO.N,ROW1*
X204216000Y-86487000D03*
X198824636Y-67390576D03*
X205105000Y-95758000D03*
G04 #@! TO.N,ROW0*
X197993000Y-67945000D03*
G04 #@! TO.N,ROW3*
X201295000Y-65913000D03*
X208026000Y-71247000D03*
X218440000Y-73279000D03*
G04 #@! TO.N,COL1*
X186436000Y-69723000D03*
X185293000Y-67564000D03*
X199103105Y-56799605D03*
G04 #@! TO.N,COL2*
X198681127Y-60251127D03*
G04 #@! TO.N,COL3*
X200398590Y-58005819D03*
G04 #@! TO.N,COL0*
X195961000Y-59182000D03*
G04 #@! TO.N,+5V*
X203962000Y-61468000D03*
X202184000Y-59817000D03*
X190246000Y-53086000D03*
X183769000Y-69723000D03*
X183388000Y-65024000D03*
G04 #@! TO.N,Net-(R1-Pad1)*
X208915000Y-69088000D03*
X190627000Y-62484000D03*
G04 #@! TO.N,Net-(C2-Pad2)*
X193929000Y-65913000D03*
X194818000Y-70104000D03*
G04 #@! TO.N,VCC*
X170180000Y-69596000D03*
G04 #@! TO.N,Net-(R3-Pad1)*
X170942000Y-60706000D03*
G04 #@! TO.N,D-*
X172466000Y-60198000D03*
G04 #@! TO.N,Net-(R5-Pad2)*
X171069000Y-66548000D03*
X189103000Y-52832000D03*
G04 #@! TO.N,Net-(R4-Pad2)*
X189230000Y-55118000D03*
G04 #@! TO.N,Net-(R2-Pad1)*
X176530000Y-59944000D03*
G04 #@! TO.N,GND*
X163830000Y-61341000D03*
G04 #@! TO.N,D+*
X174244000Y-60071000D03*
G04 #@! TD*
D36*
G04 #@! TO.N,Net-(R4-Pad2)*
X183514989Y-60325000D02*
X183514989Y-60325011D01*
X183514989Y-60325011D02*
X179554500Y-64285500D01*
D37*
G04 #@! TO.N,GND*
X202338980Y-73687980D02*
X202338980Y-74775020D01*
X200343980Y-71692980D02*
X202338980Y-73687980D01*
X195131082Y-68453936D02*
X198370126Y-71692980D01*
X202338980Y-74775020D02*
X204304980Y-74775020D01*
X198370126Y-71692980D02*
X200343980Y-71692980D01*
X199809020Y-74775020D02*
X202338980Y-74775020D01*
X177546000Y-65913000D02*
X174625000Y-65913000D01*
X174609000Y-65929000D02*
X174609000Y-69514000D01*
X174609000Y-64123000D02*
X174609000Y-65929000D01*
X181633500Y-60555500D02*
X179324000Y-62865000D01*
X181633500Y-59944000D02*
X181633500Y-60555500D01*
X174625000Y-65913000D02*
X174609000Y-65929000D01*
X180975000Y-54864000D02*
X181633500Y-55522500D01*
X181633500Y-55522500D02*
X181633500Y-59944000D01*
D36*
G04 #@! TO.N,EN2*
X219202000Y-76581000D02*
X223012000Y-72771000D01*
X208788000Y-76581000D02*
X219202000Y-76581000D01*
X191110610Y-65544761D02*
X192405000Y-65544761D01*
X190464177Y-66191194D02*
X191110610Y-65544761D01*
G04 #@! TO.N,EN1*
X217119000Y-72136000D02*
X221858000Y-67397000D01*
X194564000Y-66675000D02*
X197612000Y-63627000D01*
X193663557Y-66675000D02*
X194564000Y-66675000D01*
X193259818Y-66271261D02*
X193663557Y-66675000D01*
X210185000Y-72136000D02*
X217119000Y-72136000D01*
X191515481Y-66271261D02*
X193259818Y-66271261D01*
X191029862Y-66756880D02*
X191515481Y-66271261D01*
G04 #@! TO.N,ROW2*
X221234000Y-124206000D02*
X221488000Y-124460000D01*
X221234000Y-105198752D02*
X221234000Y-124206000D01*
X214965979Y-98930731D02*
X221234000Y-105198752D01*
X214965979Y-85806979D02*
X214965979Y-98930731D01*
X209804000Y-80645000D02*
X214965979Y-85806979D01*
X209804000Y-78486000D02*
X209804000Y-80645000D01*
X199009000Y-66675000D02*
X200279000Y-66675000D01*
X197959509Y-65625509D02*
X199009000Y-66675000D01*
G04 #@! TO.N,ROW1*
X204216000Y-94869000D02*
X205105000Y-95758000D01*
X204216000Y-86487000D02*
X204216000Y-94869000D01*
X197625254Y-66191194D02*
X198824636Y-67390576D01*
X197393823Y-66191194D02*
X197625254Y-66191194D01*
G04 #@! TO.N,ROW0*
X197993000Y-67945000D02*
X197993000Y-67921742D01*
X197993000Y-67921742D02*
X196828138Y-66756880D01*
G04 #@! TO.N,COL1*
X188462500Y-118700000D02*
X189587500Y-119825000D01*
X188462500Y-101900000D02*
X188462500Y-118700000D01*
X189587500Y-100775000D02*
X188462500Y-101900000D01*
X188277500Y-99465000D02*
X189587500Y-100775000D01*
X188277500Y-83035000D02*
X188277500Y-99465000D01*
X189587500Y-81725000D02*
X188277500Y-83035000D01*
G04 #@! TO.N,COL2*
X207327500Y-99465000D02*
X207327500Y-83185000D01*
X208637500Y-100775000D02*
X207327500Y-99465000D01*
X207512500Y-102420000D02*
X207327500Y-102235000D01*
X207512500Y-118700000D02*
X207512500Y-102420000D01*
X208637500Y-119825000D02*
X207512500Y-118700000D01*
X207512500Y-120950000D02*
X207512500Y-137750000D01*
X207512500Y-137750000D02*
X208637500Y-138875000D01*
X208637500Y-119825000D02*
X207512500Y-120950000D01*
G04 #@! TO.N,ROW3*
X199378371Y-65913000D02*
X198525194Y-65059823D01*
X201295000Y-65913000D02*
X199378371Y-65913000D01*
X210058000Y-73279000D02*
X208026000Y-71247000D01*
X218440000Y-73279000D02*
X210058000Y-73279000D01*
G04 #@! TO.N,COL1*
X186436000Y-68707000D02*
X186436000Y-69723000D01*
X185293000Y-67564000D02*
X186436000Y-68707000D01*
D37*
G04 #@! TO.N,+5V*
X187652316Y-64477571D02*
X188201435Y-63928452D01*
X187652316Y-70538684D02*
X187652316Y-64477571D01*
X187059250Y-71131750D02*
X187652316Y-70538684D01*
X185431750Y-71131750D02*
X187059250Y-71131750D01*
D36*
G04 #@! TO.N,COL1*
X199103105Y-57552266D02*
X199103105Y-56799605D01*
X198525194Y-58130177D02*
X199103105Y-57552266D01*
G04 #@! TO.N,COL2*
X198605261Y-59181481D02*
X198605261Y-60175261D01*
X199090880Y-58695862D02*
X198605261Y-59181481D01*
X198605261Y-60175261D02*
X198681127Y-60251127D01*
G04 #@! TO.N,COL3*
X200398590Y-58005819D02*
X200398590Y-58519523D01*
X200398590Y-58519523D02*
X199656565Y-59261548D01*
G04 #@! TO.N,COL0*
X196342000Y-59182000D02*
X197959509Y-57564491D01*
X195961000Y-59182000D02*
X196342000Y-59182000D01*
D37*
G04 #@! TO.N,GND*
X196104464Y-63945019D02*
X191834019Y-63945019D01*
X200222250Y-59827233D02*
X196104464Y-63945019D01*
X191659924Y-63770924D02*
X191659924Y-57547924D01*
X191834019Y-63945019D02*
X191659924Y-63770924D01*
X191013295Y-57547924D02*
X191659924Y-57547924D01*
X191834019Y-63945019D02*
X189316239Y-63945019D01*
X191659924Y-57547924D02*
X193450593Y-57547924D01*
X189316239Y-63945019D02*
X188767120Y-64494138D01*
D36*
G04 #@! TO.N,Net-(C3-Pad2)*
X190384110Y-58050110D02*
X189898491Y-57564491D01*
X190384110Y-58632360D02*
X190384110Y-58050110D01*
X186018760Y-62997710D02*
X190384110Y-58632360D01*
X186018760Y-63420683D02*
X186018760Y-62997710D01*
X178319443Y-71120000D02*
X186018760Y-63420683D01*
X178115000Y-71120000D02*
X178319443Y-71120000D01*
G04 #@! TO.N,Net-(R4-Pad2)*
X177165000Y-64285500D02*
X179554500Y-64285500D01*
D37*
G04 #@! TO.N,+5V*
X203962000Y-63058000D02*
X203520000Y-63500000D01*
X203962000Y-61468000D02*
X203962000Y-63058000D01*
X201549000Y-59182000D02*
X202184000Y-59817000D01*
X201422000Y-59182000D02*
X201422000Y-59758854D01*
X201422000Y-59182000D02*
X201549000Y-59182000D01*
X201422000Y-57912000D02*
X201422000Y-59182000D01*
X197581991Y-54071991D02*
X201422000Y-57912000D01*
X194467009Y-54071991D02*
X197581991Y-54071991D01*
X201422000Y-59758854D02*
X200787936Y-60392918D01*
X194467009Y-54071991D02*
X195131082Y-54736064D01*
X194016278Y-53621260D02*
X194467009Y-54071991D01*
X190984741Y-54125259D02*
X191488740Y-53621260D01*
X191488740Y-53621260D02*
X194016278Y-53621260D01*
X190984741Y-54125259D02*
X192161233Y-55301750D01*
X190246000Y-53386517D02*
X190984741Y-54125259D01*
X190246000Y-53086000D02*
X190246000Y-53386517D01*
X185177750Y-71131750D02*
X185431750Y-71131750D01*
X183769000Y-69723000D02*
X185177750Y-71131750D01*
X182245000Y-74318500D02*
X185431750Y-71131750D01*
X183388000Y-64770000D02*
X183388000Y-65024000D01*
X183388000Y-62155765D02*
X183388000Y-64770000D01*
X187962707Y-57581058D02*
X183388000Y-62155765D01*
X188783687Y-57581058D02*
X187962707Y-57581058D01*
X189332806Y-58130177D02*
X188783687Y-57581058D01*
G04 #@! TO.N,GND*
X194523758Y-56474758D02*
X195696767Y-55301750D01*
X193450593Y-57547924D02*
X194523758Y-56474758D01*
X190464177Y-56998806D02*
X191013295Y-57547924D01*
D36*
G04 #@! TO.N,Net-(R1-Pad1)*
X188514517Y-62484000D02*
X187635750Y-63362767D01*
X190627000Y-62484000D02*
X188514517Y-62484000D01*
X208967000Y-69140000D02*
X208915000Y-69088000D01*
X211129000Y-69140000D02*
X208967000Y-69140000D01*
D37*
G04 #@! TO.N,GND*
X216786000Y-64897000D02*
X221858000Y-64897000D01*
X214829000Y-62940000D02*
X216786000Y-64897000D01*
X209928000Y-58039000D02*
X214829000Y-62940000D01*
X205382500Y-58039000D02*
X209928000Y-58039000D01*
X205382500Y-63462500D02*
X205420000Y-63500000D01*
X205382500Y-58039000D02*
X205382500Y-63462500D01*
D36*
G04 #@! TO.N,Net-(R6-Pad1)*
X203557500Y-60027518D02*
X200787936Y-62797082D01*
X203557500Y-58039000D02*
X203557500Y-60027518D01*
D37*
G04 #@! TO.N,+5V*
X198166517Y-70358000D02*
X195696767Y-67888250D01*
X203520000Y-70358000D02*
X198166517Y-70358000D01*
X203520000Y-73660000D02*
X203520000Y-70358000D01*
X203520000Y-70358000D02*
X203520000Y-66675000D01*
X203520000Y-63500000D02*
X203520000Y-66675000D01*
G04 #@! TO.N,GND*
X205420000Y-66675000D02*
X205420000Y-63500000D01*
X205420000Y-70358000D02*
X205420000Y-66675000D01*
X205420000Y-70358000D02*
X205420000Y-73660000D01*
X199517000Y-74483000D02*
X199809020Y-74775020D01*
X204304980Y-74775020D02*
X205420000Y-73660000D01*
D36*
G04 #@! TO.N,Net-(C1-Pad2)*
X189412873Y-73395873D02*
X189412873Y-66111127D01*
X189412873Y-66111127D02*
X189898491Y-65625509D01*
X190627000Y-74610000D02*
X189412873Y-73395873D01*
G04 #@! TO.N,Net-(C2-Pad2)*
X189818424Y-64574205D02*
X189332806Y-65059823D01*
X192590205Y-64574205D02*
X189818424Y-64574205D01*
X193929000Y-65913000D02*
X192590205Y-64574205D01*
X196522000Y-71808000D02*
X194818000Y-70104000D01*
X196522000Y-72383000D02*
X196522000Y-71808000D01*
X199317000Y-72383000D02*
X196522000Y-72383000D01*
X199517000Y-72583000D02*
X199317000Y-72383000D01*
D37*
G04 #@! TO.N,GND*
X195062011Y-73904011D02*
X195841000Y-74683000D01*
X195053000Y-72383000D02*
X195062011Y-72392011D01*
X195841000Y-74683000D02*
X196522000Y-74683000D01*
X193622000Y-72383000D02*
X195053000Y-72383000D01*
X195062011Y-72392011D02*
X195062011Y-73904011D01*
X199317000Y-74683000D02*
X199517000Y-74483000D01*
X196522000Y-74683000D02*
X199317000Y-74683000D01*
D36*
G04 #@! TO.N,Net-(C1-Pad2)*
X190700000Y-74683000D02*
X193622000Y-74683000D01*
X190627000Y-74610000D02*
X190700000Y-74683000D01*
D37*
G04 #@! TO.N,GND*
X193295000Y-72710000D02*
X193622000Y-72383000D01*
X190627000Y-72710000D02*
X193295000Y-72710000D01*
D36*
G04 #@! TO.N,VCC*
X170177000Y-69599000D02*
X170180000Y-69596000D01*
X170177000Y-73533000D02*
X170177000Y-69599000D01*
G04 #@! TO.N,Net-(R3-Pad1)*
X164234500Y-67005178D02*
X164234500Y-67691000D01*
X170533678Y-60706000D02*
X164234500Y-67005178D01*
X170942000Y-60706000D02*
X170533678Y-60706000D01*
D38*
G04 #@! TO.N,D-*
X172609000Y-60341000D02*
X172466000Y-60198000D01*
X172609000Y-62423000D02*
X172609000Y-60341000D01*
D36*
G04 #@! TO.N,Net-(R5-Pad2)*
X189103000Y-53374887D02*
X191595548Y-55867435D01*
X189103000Y-52832000D02*
X189103000Y-53374887D01*
X170180000Y-65659000D02*
X171069000Y-66548000D01*
X170180000Y-64412500D02*
X170180000Y-65659000D01*
G04 #@! TO.N,Net-(R4-Pad2)*
X189230000Y-55118000D02*
X189714742Y-55118000D01*
X189714742Y-55118000D02*
X191029862Y-56433120D01*
G04 #@! TO.N,Net-(R1-Pad1)*
X182245000Y-68753517D02*
X187635750Y-63362767D01*
X182245000Y-72493500D02*
X182245000Y-68753517D01*
D37*
G04 #@! TO.N,+5V*
X181459500Y-73533000D02*
X182245000Y-74318500D01*
X172977000Y-73533000D02*
X181459500Y-73533000D01*
G04 #@! TO.N,GND*
X185928000Y-56007000D02*
X189472371Y-56007000D01*
X181991000Y-59944000D02*
X185928000Y-56007000D01*
X189472371Y-56007000D02*
X190464177Y-56998806D01*
X181633500Y-59944000D02*
X181991000Y-59944000D01*
D36*
G04 #@! TO.N,VCC*
X172609000Y-64323000D02*
X172609000Y-71101000D01*
X172609000Y-71101000D02*
X170177000Y-73533000D01*
D37*
G04 #@! TO.N,GND*
X174609000Y-69514000D02*
X176215000Y-71120000D01*
D36*
G04 #@! TO.N,Net-(R2-Pad1)*
X179808500Y-59944000D02*
X176530000Y-59944000D01*
D37*
G04 #@! TO.N,GND*
X162409500Y-62761500D02*
X163830000Y-61341000D01*
X162409500Y-67691000D02*
X162409500Y-62761500D01*
D38*
G04 #@! TO.N,D+*
X177127500Y-62423000D02*
X177165000Y-62460500D01*
X174609000Y-62423000D02*
X177127500Y-62423000D01*
X174609000Y-60436000D02*
X174609000Y-62423000D01*
X174244000Y-60071000D02*
X174609000Y-60436000D01*
G04 #@! TO.N,D-*
X170344500Y-62423000D02*
X170180000Y-62587500D01*
X172609000Y-62423000D02*
X170344500Y-62423000D01*
G04 #@! TD*
G04 #@! TA.AperFunction,Conductor*
G04 #@! TO.N,GND*
G36*
X199074145Y-50516439D02*
G01*
X199084795Y-50524086D01*
X206353390Y-56338962D01*
X206387376Y-56381002D01*
X207155448Y-57917146D01*
X207168750Y-57973495D01*
X207168750Y-70925421D01*
X207162583Y-70964357D01*
X207132458Y-71057072D01*
X207131768Y-71063638D01*
X207131767Y-71063642D01*
X207117568Y-71198744D01*
X207112496Y-71247000D01*
X207113186Y-71253565D01*
X207131422Y-71427067D01*
X207132458Y-71436928D01*
X207162583Y-71529642D01*
X207168750Y-71568579D01*
X207168750Y-74560310D01*
X207148748Y-74628431D01*
X207131845Y-74649405D01*
X206411905Y-75369345D01*
X206349593Y-75403371D01*
X206322810Y-75406250D01*
X201612500Y-75406250D01*
X199250648Y-76193534D01*
X199210803Y-76200000D01*
X197974083Y-76200000D01*
X197905962Y-76179998D01*
X197859469Y-76126342D01*
X197849365Y-76056068D01*
X197878859Y-75991488D01*
X197898518Y-75973174D01*
X197927723Y-75951286D01*
X197940285Y-75938724D01*
X198016786Y-75836649D01*
X198025324Y-75821054D01*
X198070478Y-75700606D01*
X198074105Y-75685351D01*
X198079631Y-75634486D01*
X198080000Y-75627672D01*
X198080000Y-75020527D01*
X198100002Y-74952406D01*
X198153658Y-74905913D01*
X198223932Y-74895809D01*
X198288512Y-74925303D01*
X198325524Y-74980652D01*
X198348587Y-75049782D01*
X198354761Y-75062962D01*
X198440063Y-75200807D01*
X198449099Y-75212208D01*
X198563829Y-75326739D01*
X198575240Y-75335751D01*
X198713243Y-75420816D01*
X198726424Y-75426963D01*
X198880710Y-75478138D01*
X198894086Y-75481005D01*
X198988438Y-75490672D01*
X198994854Y-75491000D01*
X199244885Y-75491000D01*
X199260124Y-75486525D01*
X199261329Y-75485135D01*
X199263000Y-75477452D01*
X199263000Y-75472884D01*
X199771000Y-75472884D01*
X199775475Y-75488123D01*
X199776865Y-75489328D01*
X199784548Y-75490999D01*
X200039095Y-75490999D01*
X200045614Y-75490662D01*
X200141206Y-75480743D01*
X200154600Y-75477851D01*
X200308784Y-75426412D01*
X200321962Y-75420239D01*
X200459807Y-75334937D01*
X200471208Y-75325901D01*
X200585739Y-75211171D01*
X200594751Y-75199760D01*
X200679816Y-75061757D01*
X200685963Y-75048576D01*
X200737138Y-74894290D01*
X200740005Y-74880914D01*
X200749672Y-74786562D01*
X200750000Y-74780146D01*
X200750000Y-74755115D01*
X200745525Y-74739876D01*
X200744135Y-74738671D01*
X200736452Y-74737000D01*
X199789115Y-74737000D01*
X199773876Y-74741475D01*
X199772671Y-74742865D01*
X199771000Y-74750548D01*
X199771000Y-75472884D01*
X199263000Y-75472884D01*
X199263000Y-74355000D01*
X199283002Y-74286879D01*
X199336658Y-74240386D01*
X199389000Y-74229000D01*
X200731884Y-74229000D01*
X200747123Y-74224525D01*
X200748328Y-74223135D01*
X200749999Y-74215452D01*
X200749999Y-74185905D01*
X200749662Y-74179386D01*
X200739743Y-74083794D01*
X200736851Y-74070400D01*
X200685412Y-73916216D01*
X200679239Y-73903038D01*
X200593937Y-73765193D01*
X200584901Y-73753792D01*
X200470172Y-73639262D01*
X200461238Y-73632206D01*
X200420177Y-73574288D01*
X200416947Y-73503365D01*
X200452574Y-73441954D01*
X200460407Y-73435154D01*
X200466348Y-73431478D01*
X200591305Y-73306303D01*
X200606745Y-73281255D01*
X200680275Y-73161968D01*
X200680276Y-73161966D01*
X200684115Y-73155738D01*
X200723506Y-73036978D01*
X200737632Y-72994389D01*
X200737632Y-72994387D01*
X200739797Y-72987861D01*
X200750500Y-72883400D01*
X200750500Y-72282600D01*
X200746142Y-72240594D01*
X200740238Y-72183692D01*
X200740237Y-72183688D01*
X200739526Y-72176834D01*
X200733978Y-72160203D01*
X200685868Y-72016002D01*
X200683550Y-72009054D01*
X200590478Y-71858652D01*
X200465303Y-71733695D01*
X200443274Y-71720116D01*
X200320968Y-71644725D01*
X200320966Y-71644724D01*
X200314738Y-71640885D01*
X200164339Y-71591000D01*
X200153389Y-71587368D01*
X200153387Y-71587368D01*
X200146861Y-71585203D01*
X200140025Y-71584503D01*
X200140022Y-71584502D01*
X200096969Y-71580091D01*
X200042400Y-71574500D01*
X198991600Y-71574500D01*
X198988354Y-71574837D01*
X198988350Y-71574837D01*
X198892692Y-71584762D01*
X198892688Y-71584763D01*
X198885834Y-71585474D01*
X198879298Y-71587655D01*
X198879296Y-71587655D01*
X198786675Y-71618556D01*
X198718054Y-71641450D01*
X198598314Y-71715548D01*
X198577151Y-71728644D01*
X198510848Y-71747500D01*
X198206500Y-71747500D01*
X198138379Y-71727498D01*
X198091886Y-71673842D01*
X198080500Y-71621500D01*
X198080500Y-71434866D01*
X198073745Y-71372684D01*
X198022615Y-71236295D01*
X198024404Y-71235624D01*
X198011636Y-71177234D01*
X198036376Y-71110687D01*
X198093166Y-71068080D01*
X198130071Y-71060297D01*
X198183630Y-71057209D01*
X198190882Y-71057000D01*
X202454315Y-71057000D01*
X202522436Y-71077002D01*
X202568929Y-71130658D01*
X202573837Y-71143120D01*
X202578450Y-71156946D01*
X202582301Y-71163170D01*
X202582302Y-71163171D01*
X202642950Y-71261176D01*
X202671522Y-71307348D01*
X202676704Y-71312521D01*
X202784018Y-71419648D01*
X202818097Y-71481930D01*
X202821000Y-71508821D01*
X202821000Y-72509003D01*
X202800998Y-72577124D01*
X202784173Y-72598021D01*
X202670695Y-72711697D01*
X202666855Y-72717927D01*
X202666854Y-72717928D01*
X202640710Y-72760342D01*
X202577885Y-72862262D01*
X202575581Y-72869209D01*
X202534219Y-72993913D01*
X202522203Y-73030139D01*
X202511500Y-73134600D01*
X202511500Y-74185400D01*
X202511837Y-74188646D01*
X202511837Y-74188650D01*
X202521618Y-74282914D01*
X202522474Y-74291166D01*
X202524655Y-74297702D01*
X202524655Y-74297704D01*
X202534570Y-74327422D01*
X202578450Y-74458946D01*
X202671522Y-74609348D01*
X202796697Y-74734305D01*
X202802927Y-74738145D01*
X202802928Y-74738146D01*
X202940288Y-74822816D01*
X202947262Y-74827115D01*
X203003276Y-74845694D01*
X203108611Y-74880632D01*
X203108613Y-74880632D01*
X203115139Y-74882797D01*
X203121975Y-74883497D01*
X203121978Y-74883498D01*
X203165031Y-74887909D01*
X203219600Y-74893500D01*
X203820400Y-74893500D01*
X203823646Y-74893163D01*
X203823650Y-74893163D01*
X203919308Y-74883238D01*
X203919312Y-74883237D01*
X203926166Y-74882526D01*
X203932702Y-74880345D01*
X203932704Y-74880345D01*
X204064806Y-74836272D01*
X204093946Y-74826550D01*
X204244348Y-74733478D01*
X204369305Y-74608303D01*
X204372102Y-74603765D01*
X204429353Y-74563176D01*
X204500276Y-74559946D01*
X204561687Y-74595572D01*
X204569062Y-74604068D01*
X204577098Y-74614207D01*
X204691829Y-74728739D01*
X204703240Y-74737751D01*
X204841243Y-74822816D01*
X204854424Y-74828963D01*
X205008710Y-74880138D01*
X205022086Y-74883005D01*
X205116438Y-74892672D01*
X205122854Y-74893000D01*
X205147885Y-74893000D01*
X205163124Y-74888525D01*
X205164329Y-74887135D01*
X205166000Y-74879452D01*
X205166000Y-74874884D01*
X205674000Y-74874884D01*
X205678475Y-74890123D01*
X205679865Y-74891328D01*
X205687548Y-74892999D01*
X205717095Y-74892999D01*
X205723614Y-74892662D01*
X205819206Y-74882743D01*
X205832600Y-74879851D01*
X205986784Y-74828412D01*
X205999962Y-74822239D01*
X206137807Y-74736937D01*
X206149208Y-74727901D01*
X206263739Y-74613171D01*
X206272751Y-74601760D01*
X206357816Y-74463757D01*
X206363963Y-74450576D01*
X206415138Y-74296290D01*
X206418005Y-74282914D01*
X206427672Y-74188562D01*
X206428000Y-74182146D01*
X206428000Y-73932115D01*
X206423525Y-73916876D01*
X206422135Y-73915671D01*
X206414452Y-73914000D01*
X205692115Y-73914000D01*
X205676876Y-73918475D01*
X205675671Y-73919865D01*
X205674000Y-73927548D01*
X205674000Y-74874884D01*
X205166000Y-74874884D01*
X205166000Y-73387885D01*
X205674000Y-73387885D01*
X205678475Y-73403124D01*
X205679865Y-73404329D01*
X205687548Y-73406000D01*
X206409884Y-73406000D01*
X206425123Y-73401525D01*
X206426328Y-73400135D01*
X206427999Y-73392452D01*
X206427999Y-73137905D01*
X206427662Y-73131386D01*
X206417743Y-73035794D01*
X206414851Y-73022400D01*
X206363412Y-72868216D01*
X206357239Y-72855038D01*
X206271937Y-72717193D01*
X206262901Y-72705792D01*
X206148171Y-72591261D01*
X206136760Y-72582249D01*
X205998757Y-72497184D01*
X205985576Y-72491037D01*
X205831290Y-72439862D01*
X205817914Y-72436995D01*
X205723562Y-72427328D01*
X205717145Y-72427000D01*
X205692115Y-72427000D01*
X205676876Y-72431475D01*
X205675671Y-72432865D01*
X205674000Y-72440548D01*
X205674000Y-73387885D01*
X205166000Y-73387885D01*
X205166000Y-72445116D01*
X205161525Y-72429877D01*
X205160135Y-72428672D01*
X205152452Y-72427001D01*
X205122905Y-72427001D01*
X205116386Y-72427338D01*
X205020794Y-72437257D01*
X205007400Y-72440149D01*
X204853216Y-72491588D01*
X204840038Y-72497761D01*
X204702193Y-72583063D01*
X204690792Y-72592099D01*
X204576262Y-72706828D01*
X204569206Y-72715762D01*
X204511288Y-72756823D01*
X204440365Y-72760053D01*
X204378954Y-72724426D01*
X204372154Y-72716593D01*
X204368478Y-72710652D01*
X204255982Y-72598352D01*
X204221903Y-72536070D01*
X204219000Y-72509179D01*
X204219000Y-71508997D01*
X204239002Y-71440876D01*
X204255827Y-71419979D01*
X204364131Y-71311486D01*
X204369305Y-71306303D01*
X204372102Y-71301765D01*
X204429353Y-71261176D01*
X204500276Y-71257946D01*
X204561687Y-71293572D01*
X204569062Y-71302068D01*
X204577098Y-71312207D01*
X204691829Y-71426739D01*
X204703240Y-71435751D01*
X204841243Y-71520816D01*
X204854424Y-71526963D01*
X205008710Y-71578138D01*
X205022086Y-71581005D01*
X205116438Y-71590672D01*
X205122854Y-71591000D01*
X205147885Y-71591000D01*
X205163124Y-71586525D01*
X205164329Y-71585135D01*
X205166000Y-71577452D01*
X205166000Y-71572884D01*
X205674000Y-71572884D01*
X205678475Y-71588123D01*
X205679865Y-71589328D01*
X205687548Y-71590999D01*
X205717095Y-71590999D01*
X205723614Y-71590662D01*
X205819206Y-71580743D01*
X205832600Y-71577851D01*
X205986784Y-71526412D01*
X205999962Y-71520239D01*
X206137807Y-71434937D01*
X206149208Y-71425901D01*
X206263739Y-71311171D01*
X206272751Y-71299760D01*
X206357816Y-71161757D01*
X206363963Y-71148576D01*
X206415138Y-70994290D01*
X206418005Y-70980914D01*
X206427672Y-70886562D01*
X206428000Y-70880146D01*
X206428000Y-70630115D01*
X206423525Y-70614876D01*
X206422135Y-70613671D01*
X206414452Y-70612000D01*
X205692115Y-70612000D01*
X205676876Y-70616475D01*
X205675671Y-70617865D01*
X205674000Y-70625548D01*
X205674000Y-71572884D01*
X205166000Y-71572884D01*
X205166000Y-70085885D01*
X205674000Y-70085885D01*
X205678475Y-70101124D01*
X205679865Y-70102329D01*
X205687548Y-70104000D01*
X206409884Y-70104000D01*
X206425123Y-70099525D01*
X206426328Y-70098135D01*
X206427999Y-70090452D01*
X206427999Y-69835905D01*
X206427662Y-69829386D01*
X206417743Y-69733794D01*
X206414851Y-69720400D01*
X206363412Y-69566216D01*
X206357239Y-69553038D01*
X206271937Y-69415193D01*
X206262901Y-69403792D01*
X206148171Y-69289261D01*
X206136760Y-69280249D01*
X205998757Y-69195184D01*
X205985576Y-69189037D01*
X205831290Y-69137862D01*
X205817914Y-69134995D01*
X205723562Y-69125328D01*
X205717145Y-69125000D01*
X205692115Y-69125000D01*
X205676876Y-69129475D01*
X205675671Y-69130865D01*
X205674000Y-69138548D01*
X205674000Y-70085885D01*
X205166000Y-70085885D01*
X205166000Y-69143116D01*
X205161525Y-69127877D01*
X205160135Y-69126672D01*
X205152452Y-69125001D01*
X205122905Y-69125001D01*
X205116386Y-69125338D01*
X205020794Y-69135257D01*
X205007400Y-69138149D01*
X204853216Y-69189588D01*
X204840038Y-69195761D01*
X204702193Y-69281063D01*
X204690792Y-69290099D01*
X204576262Y-69404828D01*
X204569206Y-69413762D01*
X204511288Y-69454823D01*
X204440365Y-69458053D01*
X204378954Y-69422426D01*
X204372154Y-69414593D01*
X204368478Y-69408652D01*
X204255982Y-69296352D01*
X204221903Y-69234070D01*
X204219000Y-69207179D01*
X204219000Y-67825997D01*
X204239002Y-67757876D01*
X204255827Y-67736979D01*
X204364131Y-67628486D01*
X204369305Y-67623303D01*
X204372102Y-67618765D01*
X204429353Y-67578176D01*
X204500276Y-67574946D01*
X204561687Y-67610572D01*
X204569062Y-67619068D01*
X204577098Y-67629207D01*
X204691829Y-67743739D01*
X204703240Y-67752751D01*
X204841243Y-67837816D01*
X204854424Y-67843963D01*
X205008710Y-67895138D01*
X205022086Y-67898005D01*
X205116438Y-67907672D01*
X205122854Y-67908000D01*
X205147885Y-67908000D01*
X205163124Y-67903525D01*
X205164329Y-67902135D01*
X205166000Y-67894452D01*
X205166000Y-67889884D01*
X205674000Y-67889884D01*
X205678475Y-67905123D01*
X205679865Y-67906328D01*
X205687548Y-67907999D01*
X205717095Y-67907999D01*
X205723614Y-67907662D01*
X205819206Y-67897743D01*
X205832600Y-67894851D01*
X205986784Y-67843412D01*
X205999962Y-67837239D01*
X206137807Y-67751937D01*
X206149208Y-67742901D01*
X206263739Y-67628171D01*
X206272751Y-67616760D01*
X206357816Y-67478757D01*
X206363963Y-67465576D01*
X206415138Y-67311290D01*
X206418005Y-67297914D01*
X206427672Y-67203562D01*
X206428000Y-67197146D01*
X206428000Y-66947115D01*
X206423525Y-66931876D01*
X206422135Y-66930671D01*
X206414452Y-66929000D01*
X205692115Y-66929000D01*
X205676876Y-66933475D01*
X205675671Y-66934865D01*
X205674000Y-66942548D01*
X205674000Y-67889884D01*
X205166000Y-67889884D01*
X205166000Y-66402885D01*
X205674000Y-66402885D01*
X205678475Y-66418124D01*
X205679865Y-66419329D01*
X205687548Y-66421000D01*
X206409884Y-66421000D01*
X206425123Y-66416525D01*
X206426328Y-66415135D01*
X206427999Y-66407452D01*
X206427999Y-66152905D01*
X206427662Y-66146386D01*
X206417743Y-66050794D01*
X206414851Y-66037400D01*
X206363412Y-65883216D01*
X206357239Y-65870038D01*
X206271937Y-65732193D01*
X206262901Y-65720792D01*
X206148171Y-65606261D01*
X206136760Y-65597249D01*
X205998757Y-65512184D01*
X205985576Y-65506037D01*
X205831290Y-65454862D01*
X205817914Y-65451995D01*
X205723562Y-65442328D01*
X205717145Y-65442000D01*
X205692115Y-65442000D01*
X205676876Y-65446475D01*
X205675671Y-65447865D01*
X205674000Y-65455548D01*
X205674000Y-66402885D01*
X205166000Y-66402885D01*
X205166000Y-65460116D01*
X205161525Y-65444877D01*
X205160135Y-65443672D01*
X205152452Y-65442001D01*
X205122905Y-65442001D01*
X205116386Y-65442338D01*
X205020794Y-65452257D01*
X205007400Y-65455149D01*
X204853216Y-65506588D01*
X204840038Y-65512761D01*
X204702193Y-65598063D01*
X204690792Y-65607099D01*
X204576262Y-65721828D01*
X204569206Y-65730762D01*
X204511288Y-65771823D01*
X204440365Y-65775053D01*
X204378954Y-65739426D01*
X204372154Y-65731593D01*
X204368478Y-65725652D01*
X204255982Y-65613352D01*
X204221903Y-65551070D01*
X204219000Y-65524179D01*
X204219000Y-64650997D01*
X204239002Y-64582876D01*
X204255827Y-64561979D01*
X204364131Y-64453486D01*
X204369305Y-64448303D01*
X204372102Y-64443765D01*
X204429353Y-64403176D01*
X204500276Y-64399946D01*
X204561687Y-64435572D01*
X204569062Y-64444068D01*
X204577098Y-64454207D01*
X204691829Y-64568739D01*
X204703240Y-64577751D01*
X204841243Y-64662816D01*
X204854424Y-64668963D01*
X205008710Y-64720138D01*
X205022086Y-64723005D01*
X205116438Y-64732672D01*
X205122854Y-64733000D01*
X205147885Y-64733000D01*
X205163124Y-64728525D01*
X205164329Y-64727135D01*
X205166000Y-64719452D01*
X205166000Y-64714884D01*
X205674000Y-64714884D01*
X205678475Y-64730123D01*
X205679865Y-64731328D01*
X205687548Y-64732999D01*
X205717095Y-64732999D01*
X205723614Y-64732662D01*
X205819206Y-64722743D01*
X205832600Y-64719851D01*
X205986784Y-64668412D01*
X205999962Y-64662239D01*
X206137807Y-64576937D01*
X206149208Y-64567901D01*
X206263739Y-64453171D01*
X206272751Y-64441760D01*
X206357816Y-64303757D01*
X206363963Y-64290576D01*
X206415138Y-64136290D01*
X206418005Y-64122914D01*
X206427672Y-64028562D01*
X206428000Y-64022146D01*
X206428000Y-63772115D01*
X206423525Y-63756876D01*
X206422135Y-63755671D01*
X206414452Y-63754000D01*
X205692115Y-63754000D01*
X205676876Y-63758475D01*
X205675671Y-63759865D01*
X205674000Y-63767548D01*
X205674000Y-64714884D01*
X205166000Y-64714884D01*
X205166000Y-63227885D01*
X205674000Y-63227885D01*
X205678475Y-63243124D01*
X205679865Y-63244329D01*
X205687548Y-63246000D01*
X206409884Y-63246000D01*
X206425123Y-63241525D01*
X206426328Y-63240135D01*
X206427999Y-63232452D01*
X206427999Y-62977905D01*
X206427662Y-62971386D01*
X206417743Y-62875794D01*
X206414851Y-62862400D01*
X206363412Y-62708216D01*
X206357239Y-62695038D01*
X206271937Y-62557193D01*
X206262901Y-62545792D01*
X206148171Y-62431261D01*
X206136760Y-62422249D01*
X205998757Y-62337184D01*
X205985576Y-62331037D01*
X205831290Y-62279862D01*
X205817914Y-62276995D01*
X205723562Y-62267328D01*
X205717145Y-62267000D01*
X205692115Y-62267000D01*
X205676876Y-62271475D01*
X205675671Y-62272865D01*
X205674000Y-62280548D01*
X205674000Y-63227885D01*
X205166000Y-63227885D01*
X205166000Y-62285116D01*
X205161525Y-62269877D01*
X205160135Y-62268672D01*
X205152452Y-62267001D01*
X205122905Y-62267001D01*
X205116386Y-62267338D01*
X205020794Y-62277257D01*
X205007400Y-62280149D01*
X204853208Y-62331591D01*
X204840450Y-62337567D01*
X204770277Y-62348351D01*
X204705414Y-62319485D01*
X204666453Y-62260133D01*
X204661000Y-62223466D01*
X204661000Y-62097779D01*
X204681002Y-62029658D01*
X204693359Y-62013475D01*
X204701040Y-62004944D01*
X204779465Y-61869109D01*
X204793223Y-61845279D01*
X204793224Y-61845278D01*
X204796527Y-61839556D01*
X204855542Y-61657928D01*
X204857479Y-61639505D01*
X204874814Y-61474565D01*
X204875504Y-61468000D01*
X204871658Y-61431409D01*
X204856232Y-61284635D01*
X204856232Y-61284633D01*
X204855542Y-61278072D01*
X204796527Y-61096444D01*
X204791631Y-61087963D01*
X204738727Y-60996332D01*
X204701040Y-60931056D01*
X204695666Y-60925087D01*
X204577675Y-60794045D01*
X204577674Y-60794044D01*
X204573253Y-60789134D01*
X204468964Y-60713363D01*
X204424094Y-60680763D01*
X204424093Y-60680762D01*
X204418752Y-60676882D01*
X204412724Y-60674198D01*
X204412722Y-60674197D01*
X204250319Y-60601891D01*
X204250318Y-60601891D01*
X204244288Y-60599206D01*
X204163230Y-60581977D01*
X204100758Y-60548249D01*
X204066436Y-60486099D01*
X204071164Y-60415260D01*
X204079013Y-60398030D01*
X204085522Y-60386190D01*
X204096373Y-60369671D01*
X204108850Y-60353585D01*
X204126476Y-60312852D01*
X204131693Y-60302204D01*
X204145467Y-60277149D01*
X204153069Y-60263321D01*
X204155040Y-60255646D01*
X204155042Y-60255640D01*
X204158131Y-60243607D01*
X204164534Y-60224905D01*
X204172617Y-60206226D01*
X204179560Y-60162391D01*
X204181967Y-60150769D01*
X204183432Y-60145065D01*
X204193000Y-60107800D01*
X204193000Y-60087453D01*
X204194551Y-60067742D01*
X204196495Y-60055468D01*
X204197735Y-60047639D01*
X204193559Y-60003462D01*
X204193000Y-59991604D01*
X204193000Y-59220396D01*
X204213002Y-59152275D01*
X204252696Y-59113253D01*
X204294348Y-59087478D01*
X204336206Y-59045547D01*
X204381138Y-59000537D01*
X204443421Y-58966458D01*
X204514241Y-58971461D01*
X204559329Y-59000382D01*
X204641829Y-59082739D01*
X204653240Y-59091751D01*
X204791243Y-59176816D01*
X204804424Y-59182963D01*
X204958710Y-59234138D01*
X204972086Y-59237005D01*
X205066438Y-59246672D01*
X205072854Y-59247000D01*
X205110385Y-59247000D01*
X205125624Y-59242525D01*
X205126829Y-59241135D01*
X205128500Y-59233452D01*
X205128500Y-59228884D01*
X205636500Y-59228884D01*
X205640975Y-59244123D01*
X205642365Y-59245328D01*
X205650048Y-59246999D01*
X205692095Y-59246999D01*
X205698614Y-59246662D01*
X205794206Y-59236743D01*
X205807600Y-59233851D01*
X205961784Y-59182412D01*
X205974962Y-59176239D01*
X206112807Y-59090937D01*
X206124208Y-59081901D01*
X206238739Y-58967171D01*
X206247751Y-58955760D01*
X206332816Y-58817757D01*
X206338963Y-58804576D01*
X206390138Y-58650290D01*
X206393005Y-58636914D01*
X206402672Y-58542562D01*
X206403000Y-58536146D01*
X206403000Y-58311115D01*
X206398525Y-58295876D01*
X206397135Y-58294671D01*
X206389452Y-58293000D01*
X205654615Y-58293000D01*
X205639376Y-58297475D01*
X205638171Y-58298865D01*
X205636500Y-58306548D01*
X205636500Y-59228884D01*
X205128500Y-59228884D01*
X205128500Y-57766885D01*
X205636500Y-57766885D01*
X205640975Y-57782124D01*
X205642365Y-57783329D01*
X205650048Y-57785000D01*
X206384884Y-57785000D01*
X206400123Y-57780525D01*
X206401328Y-57779135D01*
X206402999Y-57771452D01*
X206402999Y-57541905D01*
X206402662Y-57535386D01*
X206392743Y-57439794D01*
X206389851Y-57426400D01*
X206338412Y-57272216D01*
X206332239Y-57259038D01*
X206246937Y-57121193D01*
X206237901Y-57109792D01*
X206123171Y-56995261D01*
X206111760Y-56986249D01*
X205973757Y-56901184D01*
X205960576Y-56895037D01*
X205806290Y-56843862D01*
X205792914Y-56840995D01*
X205698562Y-56831328D01*
X205692145Y-56831000D01*
X205654615Y-56831000D01*
X205639376Y-56835475D01*
X205638171Y-56836865D01*
X205636500Y-56844548D01*
X205636500Y-57766885D01*
X205128500Y-57766885D01*
X205128500Y-56849116D01*
X205124025Y-56833877D01*
X205122635Y-56832672D01*
X205114952Y-56831001D01*
X205072905Y-56831001D01*
X205066386Y-56831338D01*
X204970794Y-56841257D01*
X204957400Y-56844149D01*
X204803216Y-56895588D01*
X204790038Y-56901761D01*
X204652193Y-56987063D01*
X204640792Y-56996099D01*
X204559570Y-57077462D01*
X204497287Y-57111541D01*
X204426467Y-57106538D01*
X204381380Y-57077617D01*
X204298488Y-56994870D01*
X204298483Y-56994866D01*
X204293303Y-56989695D01*
X204257356Y-56967537D01*
X204148968Y-56900725D01*
X204148966Y-56900724D01*
X204142738Y-56896885D01*
X204051986Y-56866784D01*
X203981389Y-56843368D01*
X203981387Y-56843368D01*
X203974861Y-56841203D01*
X203968025Y-56840503D01*
X203968022Y-56840502D01*
X203924969Y-56836091D01*
X203870400Y-56830500D01*
X203244600Y-56830500D01*
X203241354Y-56830837D01*
X203241350Y-56830837D01*
X203145692Y-56840762D01*
X203145688Y-56840763D01*
X203138834Y-56841474D01*
X203132298Y-56843655D01*
X203132296Y-56843655D01*
X203017189Y-56882058D01*
X202971054Y-56897450D01*
X202820652Y-56990522D01*
X202695695Y-57115697D01*
X202602885Y-57266262D01*
X202547203Y-57434139D01*
X202536500Y-57538600D01*
X202536500Y-58539400D01*
X202536837Y-58542646D01*
X202536837Y-58542650D01*
X202546618Y-58636914D01*
X202547474Y-58645166D01*
X202549655Y-58651702D01*
X202549655Y-58651704D01*
X202592791Y-58780998D01*
X202595375Y-58851947D01*
X202559191Y-58913031D01*
X202495727Y-58944856D01*
X202447070Y-58944121D01*
X202425371Y-58939509D01*
X202296369Y-58912088D01*
X202233472Y-58877937D01*
X202157905Y-58802370D01*
X202123879Y-58740058D01*
X202121000Y-58713275D01*
X202121000Y-57940600D01*
X202121292Y-57932029D01*
X202124654Y-57882725D01*
X202124654Y-57882721D01*
X202125170Y-57875149D01*
X202123865Y-57867673D01*
X202123865Y-57867669D01*
X202114337Y-57813078D01*
X202113374Y-57806553D01*
X202106722Y-57751582D01*
X202106721Y-57751579D01*
X202105809Y-57744040D01*
X202103125Y-57736938D01*
X202102281Y-57733500D01*
X202098417Y-57719377D01*
X202097387Y-57715965D01*
X202096081Y-57708483D01*
X202093029Y-57701530D01*
X202093027Y-57701524D01*
X202070763Y-57650806D01*
X202068270Y-57644698D01*
X202048692Y-57592885D01*
X202048690Y-57592882D01*
X202046006Y-57585778D01*
X202041701Y-57579514D01*
X202040045Y-57576347D01*
X202032940Y-57563582D01*
X202031132Y-57560525D01*
X202028078Y-57553567D01*
X202023452Y-57547538D01*
X201989740Y-57503604D01*
X201985862Y-57498267D01*
X201954481Y-57452607D01*
X201954479Y-57452605D01*
X201950179Y-57446348D01*
X201904311Y-57405481D01*
X201899036Y-57400501D01*
X198096488Y-53597953D01*
X198090634Y-53591687D01*
X198081280Y-53580964D01*
X198053149Y-53548717D01*
X198001613Y-53512497D01*
X197996317Y-53508564D01*
X197952728Y-53474385D01*
X197952725Y-53474383D01*
X197946751Y-53469699D01*
X197939827Y-53466573D01*
X197936792Y-53464735D01*
X197924093Y-53457491D01*
X197920945Y-53455803D01*
X197914730Y-53451435D01*
X197856041Y-53428553D01*
X197849996Y-53426013D01*
X197792556Y-53400078D01*
X197785083Y-53398693D01*
X197781665Y-53397622D01*
X197767676Y-53393637D01*
X197764184Y-53392740D01*
X197757102Y-53389979D01*
X197749569Y-53388987D01*
X197749568Y-53388987D01*
X197694661Y-53381758D01*
X197688148Y-53380726D01*
X197633673Y-53370630D01*
X197633671Y-53370630D01*
X197626204Y-53369246D01*
X197618624Y-53369683D01*
X197618623Y-53369683D01*
X197564879Y-53372782D01*
X197557626Y-53372991D01*
X194808734Y-53372991D01*
X194740613Y-53352989D01*
X194719639Y-53336086D01*
X194530775Y-53147222D01*
X194524921Y-53140956D01*
X194492430Y-53103711D01*
X194487436Y-53097986D01*
X194435900Y-53061766D01*
X194430604Y-53057833D01*
X194387015Y-53023654D01*
X194387012Y-53023652D01*
X194381038Y-53018968D01*
X194374114Y-53015842D01*
X194371079Y-53014004D01*
X194358380Y-53006760D01*
X194355232Y-53005072D01*
X194349017Y-53000704D01*
X194290328Y-52977822D01*
X194284283Y-52975282D01*
X194226843Y-52949347D01*
X194219370Y-52947962D01*
X194215952Y-52946891D01*
X194201963Y-52942906D01*
X194198471Y-52942009D01*
X194191389Y-52939248D01*
X194183856Y-52938256D01*
X194183855Y-52938256D01*
X194128948Y-52931027D01*
X194122435Y-52929995D01*
X194067960Y-52919899D01*
X194067958Y-52919899D01*
X194060491Y-52918515D01*
X194052911Y-52918952D01*
X194052910Y-52918952D01*
X193999166Y-52922051D01*
X193991913Y-52922260D01*
X191517329Y-52922260D01*
X191508759Y-52921968D01*
X191459464Y-52918607D01*
X191459460Y-52918607D01*
X191451888Y-52918091D01*
X191444411Y-52919396D01*
X191444410Y-52919396D01*
X191417120Y-52924159D01*
X191389825Y-52928923D01*
X191383308Y-52929884D01*
X191373866Y-52931027D01*
X191328322Y-52936538D01*
X191328319Y-52936539D01*
X191320780Y-52937451D01*
X191313671Y-52940137D01*
X191310228Y-52940983D01*
X191296115Y-52944843D01*
X191292702Y-52945873D01*
X191285222Y-52947179D01*
X191283600Y-52947891D01*
X191215089Y-52948413D01*
X191155072Y-52910486D01*
X191129831Y-52866186D01*
X191120857Y-52838565D01*
X191080527Y-52714444D01*
X190985040Y-52549056D01*
X190905254Y-52460444D01*
X190861675Y-52412045D01*
X190861674Y-52412044D01*
X190857253Y-52407134D01*
X190702752Y-52294882D01*
X190696724Y-52292198D01*
X190696722Y-52292197D01*
X190534319Y-52219891D01*
X190534318Y-52219891D01*
X190528288Y-52217206D01*
X190434887Y-52197353D01*
X190347944Y-52178872D01*
X190347939Y-52178872D01*
X190341487Y-52177500D01*
X190150513Y-52177500D01*
X190144061Y-52178872D01*
X190144056Y-52178872D01*
X190057113Y-52197353D01*
X189963712Y-52217206D01*
X189957685Y-52219889D01*
X189957677Y-52219892D01*
X189910452Y-52240919D01*
X189840085Y-52250354D01*
X189775788Y-52220249D01*
X189765566Y-52210123D01*
X189718675Y-52158045D01*
X189718674Y-52158044D01*
X189714253Y-52153134D01*
X189559752Y-52040882D01*
X189553724Y-52038198D01*
X189553722Y-52038197D01*
X189391319Y-51965891D01*
X189391318Y-51965891D01*
X189385288Y-51963206D01*
X189291888Y-51943353D01*
X189204944Y-51924872D01*
X189204939Y-51924872D01*
X189198487Y-51923500D01*
X189007513Y-51923500D01*
X189001061Y-51924872D01*
X189001056Y-51924872D01*
X188914112Y-51943353D01*
X188820712Y-51963206D01*
X188814682Y-51965891D01*
X188814681Y-51965891D01*
X188652278Y-52038197D01*
X188652276Y-52038198D01*
X188646248Y-52040882D01*
X188491747Y-52153134D01*
X188487326Y-52158044D01*
X188487325Y-52158045D01*
X188379179Y-52278154D01*
X188363960Y-52295056D01*
X188349585Y-52319954D01*
X188273699Y-52451393D01*
X188268473Y-52460444D01*
X188209458Y-52642072D01*
X188189496Y-52832000D01*
X188190186Y-52838565D01*
X188201830Y-52949347D01*
X188209458Y-53021928D01*
X188268473Y-53203556D01*
X188363960Y-53368944D01*
X188368378Y-53373851D01*
X188368379Y-53373852D01*
X188388955Y-53396704D01*
X188417637Y-53428558D01*
X188451263Y-53465904D01*
X188479669Y-53518879D01*
X188481579Y-53526319D01*
X188482573Y-53534186D01*
X188485492Y-53541559D01*
X188485493Y-53541562D01*
X188498907Y-53575443D01*
X188502752Y-53586672D01*
X188515131Y-53629280D01*
X188519169Y-53636107D01*
X188519170Y-53636110D01*
X188525488Y-53646793D01*
X188534188Y-53664551D01*
X188538761Y-53676102D01*
X188538765Y-53676108D01*
X188541681Y-53683475D01*
X188546339Y-53689886D01*
X188546340Y-53689888D01*
X188567764Y-53719375D01*
X188574281Y-53729297D01*
X188592826Y-53760655D01*
X188592829Y-53760659D01*
X188596866Y-53767485D01*
X188611250Y-53781869D01*
X188624091Y-53796903D01*
X188636058Y-53813374D01*
X188642166Y-53818427D01*
X188670255Y-53841664D01*
X188679035Y-53849654D01*
X188908634Y-54079253D01*
X188942660Y-54141565D01*
X188937595Y-54212380D01*
X188895048Y-54269216D01*
X188870787Y-54283455D01*
X188779281Y-54324195D01*
X188779274Y-54324199D01*
X188773248Y-54326882D01*
X188618747Y-54439134D01*
X188614326Y-54444044D01*
X188614325Y-54444045D01*
X188528302Y-54539584D01*
X188490960Y-54581056D01*
X188395473Y-54746444D01*
X188336458Y-54928072D01*
X188335768Y-54934633D01*
X188335768Y-54934635D01*
X188319959Y-55085047D01*
X188316496Y-55118000D01*
X188317186Y-55124565D01*
X188332018Y-55265680D01*
X188336458Y-55307928D01*
X188395473Y-55489556D01*
X188490960Y-55654944D01*
X188495378Y-55659851D01*
X188495379Y-55659852D01*
X188614325Y-55791955D01*
X188618747Y-55796866D01*
X188651224Y-55820462D01*
X188760879Y-55900131D01*
X188773248Y-55909118D01*
X188779276Y-55911802D01*
X188779278Y-55911803D01*
X188920272Y-55974577D01*
X188947712Y-55986794D01*
X189039743Y-56006356D01*
X189128056Y-56025128D01*
X189128061Y-56025128D01*
X189134513Y-56026500D01*
X189325487Y-56026500D01*
X189331944Y-56025128D01*
X189338515Y-56024437D01*
X189338673Y-56025937D01*
X189401708Y-56030744D01*
X189458343Y-56073557D01*
X189482841Y-56140193D01*
X189467423Y-56209496D01*
X189446217Y-56237686D01*
X189348588Y-56335316D01*
X189344046Y-56340379D01*
X189307026Y-56386420D01*
X189305017Y-56384805D01*
X189284491Y-56405245D01*
X189285833Y-56406914D01*
X189237087Y-56446107D01*
X188838041Y-56845153D01*
X188775729Y-56879179D01*
X188748946Y-56882058D01*
X187991307Y-56882058D01*
X187982736Y-56881766D01*
X187925856Y-56877888D01*
X187863772Y-56888724D01*
X187857293Y-56889680D01*
X187794747Y-56897249D01*
X187787645Y-56899933D01*
X187784163Y-56900788D01*
X187770128Y-56904628D01*
X187766680Y-56905669D01*
X187759190Y-56906976D01*
X187752229Y-56910032D01*
X187752228Y-56910032D01*
X187701512Y-56932295D01*
X187695404Y-56934788D01*
X187643593Y-56954366D01*
X187636485Y-56957052D01*
X187630219Y-56961358D01*
X187627064Y-56963008D01*
X187614272Y-56970127D01*
X187611228Y-56971927D01*
X187604274Y-56974980D01*
X187598246Y-56979605D01*
X187598245Y-56979606D01*
X187554311Y-57013318D01*
X187548974Y-57017196D01*
X187534829Y-57026918D01*
X187497055Y-57052879D01*
X187492003Y-57058549D01*
X187492002Y-57058550D01*
X187456189Y-57098746D01*
X187451208Y-57104022D01*
X184556344Y-59998886D01*
X184494032Y-60032912D01*
X184423217Y-60027847D01*
X184366381Y-59985300D01*
X184352143Y-59961041D01*
X184351556Y-59959723D01*
X184349516Y-59953444D01*
X184344064Y-59944000D01*
X184272888Y-59820721D01*
X184254029Y-59788056D01*
X184196221Y-59723853D01*
X184130664Y-59651045D01*
X184130660Y-59651041D01*
X184126242Y-59646134D01*
X183998820Y-59553556D01*
X183977083Y-59537763D01*
X183977082Y-59537762D01*
X183971741Y-59533882D01*
X183965713Y-59531198D01*
X183965711Y-59531197D01*
X183803308Y-59458891D01*
X183803307Y-59458891D01*
X183797277Y-59456206D01*
X183703876Y-59436353D01*
X183616933Y-59417872D01*
X183616928Y-59417872D01*
X183610476Y-59416500D01*
X183419502Y-59416500D01*
X183413050Y-59417872D01*
X183413045Y-59417872D01*
X183326102Y-59436353D01*
X183232701Y-59456206D01*
X183226671Y-59458891D01*
X183226670Y-59458891D01*
X183064267Y-59531197D01*
X183064265Y-59531198D01*
X183058237Y-59533882D01*
X183052896Y-59537762D01*
X183052895Y-59537763D01*
X183031158Y-59553556D01*
X182903736Y-59646134D01*
X182873635Y-59679565D01*
X182813188Y-59716804D01*
X182742204Y-59715452D01*
X182683220Y-59675938D01*
X182654963Y-59610807D01*
X182653999Y-59595254D01*
X182653999Y-59446905D01*
X182653662Y-59440386D01*
X182643743Y-59344794D01*
X182640851Y-59331400D01*
X182589412Y-59177216D01*
X182583239Y-59164038D01*
X182497937Y-59026193D01*
X182488901Y-59014792D01*
X182374171Y-58900261D01*
X182362760Y-58891249D01*
X182224757Y-58806184D01*
X182211576Y-58800037D01*
X182057290Y-58748862D01*
X182043914Y-58745995D01*
X181949562Y-58736328D01*
X181943145Y-58736000D01*
X181905615Y-58736000D01*
X181890376Y-58740475D01*
X181889171Y-58741865D01*
X181887500Y-58749548D01*
X181887500Y-60072000D01*
X181867498Y-60140121D01*
X181813842Y-60186614D01*
X181761500Y-60198000D01*
X181505500Y-60198000D01*
X181437379Y-60177998D01*
X181390886Y-60124342D01*
X181379500Y-60072000D01*
X181379500Y-58754116D01*
X181375025Y-58738877D01*
X181373635Y-58737672D01*
X181365952Y-58736001D01*
X181323905Y-58736001D01*
X181317386Y-58736338D01*
X181221794Y-58746257D01*
X181208400Y-58749149D01*
X181054216Y-58800588D01*
X181041038Y-58806761D01*
X180903193Y-58892063D01*
X180891792Y-58901099D01*
X180810570Y-58982462D01*
X180748287Y-59016541D01*
X180677467Y-59011538D01*
X180632380Y-58982617D01*
X180549488Y-58899870D01*
X180549483Y-58899866D01*
X180544303Y-58894695D01*
X180517117Y-58877937D01*
X180399968Y-58805725D01*
X180399966Y-58805724D01*
X180393738Y-58801885D01*
X180289265Y-58767233D01*
X180232389Y-58748368D01*
X180232387Y-58748368D01*
X180225861Y-58746203D01*
X180219025Y-58745503D01*
X180219022Y-58745502D01*
X180175969Y-58741091D01*
X180121400Y-58735500D01*
X179495600Y-58735500D01*
X179492354Y-58735837D01*
X179492350Y-58735837D01*
X179396692Y-58745762D01*
X179396688Y-58745763D01*
X179389834Y-58746474D01*
X179383298Y-58748655D01*
X179383296Y-58748655D01*
X179286353Y-58780998D01*
X179222054Y-58802450D01*
X179071652Y-58895522D01*
X178946695Y-59020697D01*
X178942855Y-59026927D01*
X178942854Y-59026928D01*
X178865215Y-59152882D01*
X178853885Y-59171262D01*
X178851581Y-59178207D01*
X178851581Y-59178208D01*
X178837000Y-59222168D01*
X178796568Y-59280528D01*
X178731004Y-59307764D01*
X178717407Y-59308500D01*
X177236399Y-59308500D01*
X177168278Y-59288498D01*
X177151092Y-59273891D01*
X177150580Y-59274460D01*
X177145668Y-59270037D01*
X177141253Y-59265134D01*
X177115117Y-59246145D01*
X176992094Y-59156763D01*
X176992093Y-59156762D01*
X176986752Y-59152882D01*
X176980724Y-59150198D01*
X176980722Y-59150197D01*
X176818319Y-59077891D01*
X176818318Y-59077891D01*
X176812288Y-59075206D01*
X176718888Y-59055353D01*
X176631944Y-59036872D01*
X176631939Y-59036872D01*
X176625487Y-59035500D01*
X176434513Y-59035500D01*
X176428061Y-59036872D01*
X176428056Y-59036872D01*
X176341112Y-59055353D01*
X176247712Y-59075206D01*
X176241682Y-59077891D01*
X176241681Y-59077891D01*
X176079278Y-59150197D01*
X176079276Y-59150198D01*
X176073248Y-59152882D01*
X176067907Y-59156762D01*
X176067906Y-59156763D01*
X176041100Y-59176239D01*
X175918747Y-59265134D01*
X175914326Y-59270044D01*
X175914325Y-59270045D01*
X175798902Y-59398236D01*
X175790960Y-59407056D01*
X175695473Y-59572444D01*
X175636458Y-59754072D01*
X175635768Y-59760633D01*
X175635768Y-59760635D01*
X175624290Y-59869846D01*
X175616496Y-59944000D01*
X175617186Y-59950565D01*
X175631894Y-60090500D01*
X175636458Y-60133928D01*
X175695473Y-60315556D01*
X175698776Y-60321278D01*
X175698777Y-60321279D01*
X175708648Y-60338376D01*
X175790960Y-60480944D01*
X175795378Y-60485851D01*
X175795379Y-60485852D01*
X175879700Y-60579500D01*
X175918747Y-60622866D01*
X175977598Y-60665624D01*
X176058188Y-60724176D01*
X176073248Y-60735118D01*
X176079276Y-60737802D01*
X176079278Y-60737803D01*
X176241681Y-60810109D01*
X176247712Y-60812794D01*
X176341113Y-60832647D01*
X176428056Y-60851128D01*
X176428061Y-60851128D01*
X176434513Y-60852500D01*
X176625487Y-60852500D01*
X176631939Y-60851128D01*
X176631944Y-60851128D01*
X176718887Y-60832647D01*
X176812288Y-60812794D01*
X176818319Y-60810109D01*
X176980722Y-60737803D01*
X176980724Y-60737802D01*
X176986752Y-60735118D01*
X177001813Y-60724176D01*
X177133628Y-60628406D01*
X177141253Y-60622866D01*
X177145668Y-60617963D01*
X177150580Y-60613540D01*
X177152221Y-60615362D01*
X177203210Y-60583950D01*
X177236399Y-60579500D01*
X178717470Y-60579500D01*
X178785591Y-60599502D01*
X178832084Y-60653158D01*
X178836994Y-60665624D01*
X178854450Y-60717946D01*
X178947522Y-60868348D01*
X179072697Y-60993305D01*
X179078927Y-60997145D01*
X179078928Y-60997146D01*
X179216288Y-61081816D01*
X179223262Y-61086115D01*
X179273352Y-61102729D01*
X179384611Y-61139632D01*
X179384613Y-61139632D01*
X179391139Y-61141797D01*
X179397975Y-61142497D01*
X179397978Y-61142498D01*
X179441031Y-61146909D01*
X179495600Y-61152500D01*
X180121400Y-61152500D01*
X180124646Y-61152163D01*
X180124650Y-61152163D01*
X180220308Y-61142238D01*
X180220312Y-61142237D01*
X180227166Y-61141526D01*
X180233702Y-61139345D01*
X180233704Y-61139345D01*
X180379447Y-61090721D01*
X180394946Y-61085550D01*
X180545348Y-60992478D01*
X180555047Y-60982762D01*
X180632138Y-60905537D01*
X180694421Y-60871458D01*
X180765241Y-60876461D01*
X180810329Y-60905382D01*
X180892829Y-60987739D01*
X180904240Y-60996751D01*
X181042243Y-61081816D01*
X181055424Y-61087963D01*
X181209710Y-61139138D01*
X181223086Y-61142005D01*
X181317438Y-61151672D01*
X181323854Y-61152000D01*
X181485077Y-61152000D01*
X181553198Y-61172002D01*
X181599691Y-61225658D01*
X181609795Y-61295932D01*
X181580301Y-61360512D01*
X181574172Y-61367095D01*
X179328172Y-63613095D01*
X179265860Y-63647121D01*
X179239077Y-63650000D01*
X178346396Y-63650000D01*
X178278275Y-63629998D01*
X178239253Y-63590304D01*
X178213478Y-63548652D01*
X178126891Y-63462216D01*
X178092812Y-63399934D01*
X178097815Y-63329114D01*
X178126736Y-63284025D01*
X178209134Y-63201483D01*
X178214305Y-63196303D01*
X178218146Y-63190072D01*
X178303275Y-63051968D01*
X178303276Y-63051966D01*
X178307115Y-63045738D01*
X178362797Y-62877861D01*
X178364283Y-62863364D01*
X178369495Y-62812484D01*
X178373500Y-62773400D01*
X178373500Y-62147600D01*
X178372263Y-62135678D01*
X178363238Y-62048692D01*
X178363237Y-62048688D01*
X178362526Y-62041834D01*
X178355393Y-62020452D01*
X178308868Y-61881002D01*
X178306550Y-61874054D01*
X178213478Y-61723652D01*
X178088303Y-61598695D01*
X178082072Y-61594854D01*
X177943968Y-61509725D01*
X177943966Y-61509724D01*
X177937738Y-61505885D01*
X177777254Y-61452655D01*
X177776389Y-61452368D01*
X177776387Y-61452368D01*
X177769861Y-61450203D01*
X177763025Y-61449503D01*
X177763022Y-61449502D01*
X177719969Y-61445091D01*
X177665400Y-61439500D01*
X176664600Y-61439500D01*
X176661354Y-61439837D01*
X176661350Y-61439837D01*
X176565692Y-61449762D01*
X176565688Y-61449763D01*
X176558834Y-61450474D01*
X176552298Y-61452655D01*
X176552296Y-61452655D01*
X176430658Y-61493237D01*
X176391054Y-61506450D01*
X176240652Y-61599522D01*
X176115695Y-61724697D01*
X176111855Y-61730927D01*
X176097251Y-61754618D01*
X176044478Y-61802110D01*
X175989992Y-61814500D01*
X175426329Y-61814500D01*
X175358208Y-61794498D01*
X175334668Y-61772593D01*
X175333992Y-61773269D01*
X175327642Y-61766919D01*
X175322261Y-61759739D01*
X175267935Y-61719024D01*
X175225420Y-61662165D01*
X175217500Y-61618198D01*
X175217500Y-60484136D01*
X175218578Y-60467690D01*
X175221672Y-60444188D01*
X175222750Y-60436000D01*
X175220529Y-60419125D01*
X175217500Y-60396120D01*
X175217500Y-60396115D01*
X175203891Y-60292741D01*
X175203890Y-60292739D01*
X175201838Y-60277150D01*
X175201838Y-60277149D01*
X175178690Y-60221265D01*
X175161441Y-60179621D01*
X175152540Y-60118233D01*
X175156814Y-60077565D01*
X175157504Y-60071000D01*
X175155814Y-60054921D01*
X175138232Y-59887635D01*
X175138232Y-59887633D01*
X175137542Y-59881072D01*
X175078527Y-59699444D01*
X175059643Y-59666735D01*
X175001899Y-59566721D01*
X174983040Y-59534056D01*
X174855253Y-59392134D01*
X174720521Y-59294245D01*
X174706094Y-59283763D01*
X174706093Y-59283762D01*
X174700752Y-59279882D01*
X174694724Y-59277198D01*
X174694722Y-59277197D01*
X174532319Y-59204891D01*
X174532318Y-59204891D01*
X174526288Y-59202206D01*
X174413387Y-59178208D01*
X174345944Y-59163872D01*
X174345939Y-59163872D01*
X174339487Y-59162500D01*
X174148513Y-59162500D01*
X174142061Y-59163872D01*
X174142056Y-59163872D01*
X174074613Y-59178208D01*
X173961712Y-59202206D01*
X173955682Y-59204891D01*
X173955681Y-59204891D01*
X173793278Y-59277197D01*
X173793276Y-59277198D01*
X173787248Y-59279882D01*
X173781907Y-59283762D01*
X173781906Y-59283763D01*
X173767479Y-59294245D01*
X173632747Y-59392134D01*
X173504960Y-59534056D01*
X173437419Y-59651041D01*
X173427457Y-59668295D01*
X173376074Y-59717288D01*
X173306361Y-59730724D01*
X173240450Y-59704338D01*
X173212413Y-59671980D01*
X173212224Y-59672118D01*
X173210620Y-59669911D01*
X173209218Y-59668292D01*
X173205040Y-59661056D01*
X173198329Y-59653602D01*
X173081675Y-59524045D01*
X173081674Y-59524044D01*
X173077253Y-59519134D01*
X172968866Y-59440386D01*
X172928094Y-59410763D01*
X172928093Y-59410762D01*
X172922752Y-59406882D01*
X172916724Y-59404198D01*
X172916722Y-59404197D01*
X172754319Y-59331891D01*
X172754318Y-59331891D01*
X172748288Y-59329206D01*
X172650964Y-59308519D01*
X172567944Y-59290872D01*
X172567939Y-59290872D01*
X172561487Y-59289500D01*
X172370513Y-59289500D01*
X172364061Y-59290872D01*
X172364056Y-59290872D01*
X172281036Y-59308519D01*
X172183712Y-59329206D01*
X172177682Y-59331891D01*
X172177681Y-59331891D01*
X172015278Y-59404197D01*
X172015276Y-59404198D01*
X172009248Y-59406882D01*
X172003907Y-59410762D01*
X172003906Y-59410763D01*
X171963134Y-59440386D01*
X171854747Y-59519134D01*
X171850326Y-59524044D01*
X171850325Y-59524045D01*
X171733672Y-59653602D01*
X171726960Y-59661056D01*
X171631473Y-59826444D01*
X171629432Y-59832726D01*
X171629431Y-59832728D01*
X171617371Y-59869846D01*
X171577298Y-59928452D01*
X171511901Y-59956089D01*
X171441945Y-59943982D01*
X171423483Y-59932850D01*
X171398752Y-59914882D01*
X171392724Y-59912198D01*
X171392722Y-59912197D01*
X171230319Y-59839891D01*
X171230318Y-59839891D01*
X171224288Y-59837206D01*
X171130887Y-59817353D01*
X171043944Y-59798872D01*
X171043939Y-59798872D01*
X171037487Y-59797500D01*
X170846513Y-59797500D01*
X170840061Y-59798872D01*
X170840056Y-59798872D01*
X170753113Y-59817353D01*
X170659712Y-59837206D01*
X170653682Y-59839891D01*
X170653681Y-59839891D01*
X170491278Y-59912197D01*
X170491276Y-59912198D01*
X170485248Y-59914882D01*
X170479907Y-59918762D01*
X170479906Y-59918763D01*
X170445195Y-59943982D01*
X170330747Y-60027134D01*
X170233419Y-60135228D01*
X170213853Y-60152845D01*
X170189186Y-60170767D01*
X170179267Y-60177282D01*
X170147907Y-60195828D01*
X170147904Y-60195830D01*
X170141080Y-60199866D01*
X170126696Y-60214250D01*
X170111662Y-60227091D01*
X170095191Y-60239058D01*
X170090138Y-60245166D01*
X170066901Y-60273255D01*
X170058911Y-60282035D01*
X163881439Y-66459506D01*
X163819895Y-66493053D01*
X163815834Y-66493474D01*
X163648054Y-66549450D01*
X163497652Y-66642522D01*
X163492479Y-66647704D01*
X163410862Y-66729463D01*
X163348579Y-66763542D01*
X163277759Y-66758539D01*
X163232671Y-66729618D01*
X163150171Y-66647261D01*
X163138760Y-66638249D01*
X163000757Y-66553184D01*
X162987576Y-66547037D01*
X162833290Y-66495862D01*
X162819914Y-66492995D01*
X162725562Y-66483328D01*
X162719145Y-66483000D01*
X162681615Y-66483000D01*
X162666376Y-66487475D01*
X162665171Y-66488865D01*
X162663500Y-66496548D01*
X162663500Y-68880884D01*
X162667975Y-68896123D01*
X162669365Y-68897328D01*
X162677048Y-68898999D01*
X162719095Y-68898999D01*
X162725614Y-68898662D01*
X162821206Y-68888743D01*
X162834600Y-68885851D01*
X162988784Y-68834412D01*
X163001962Y-68828239D01*
X163139807Y-68742937D01*
X163151208Y-68733901D01*
X163232430Y-68652538D01*
X163294713Y-68618459D01*
X163365533Y-68623462D01*
X163410620Y-68652383D01*
X163493512Y-68735130D01*
X163493517Y-68735134D01*
X163498697Y-68740305D01*
X163504927Y-68744145D01*
X163504928Y-68744146D01*
X163642288Y-68828816D01*
X163649262Y-68833115D01*
X163706585Y-68852128D01*
X163810611Y-68886632D01*
X163810613Y-68886632D01*
X163817139Y-68888797D01*
X163823975Y-68889497D01*
X163823978Y-68889498D01*
X163867031Y-68893909D01*
X163921600Y-68899500D01*
X164547400Y-68899500D01*
X164550646Y-68899163D01*
X164550650Y-68899163D01*
X164646308Y-68889238D01*
X164646312Y-68889237D01*
X164653166Y-68888526D01*
X164659702Y-68886345D01*
X164659704Y-68886345D01*
X164791806Y-68842272D01*
X164820946Y-68832550D01*
X164971348Y-68739478D01*
X165096305Y-68614303D01*
X165134666Y-68552070D01*
X165185275Y-68469968D01*
X165185276Y-68469966D01*
X165189115Y-68463738D01*
X165224252Y-68357803D01*
X165242632Y-68302389D01*
X165242632Y-68302387D01*
X165244797Y-68295861D01*
X165255500Y-68191400D01*
X165255500Y-67190600D01*
X165251157Y-67148739D01*
X165245238Y-67091692D01*
X165245237Y-67091688D01*
X165244526Y-67084834D01*
X165242346Y-67078300D01*
X165242345Y-67078295D01*
X165221409Y-67015543D01*
X165218825Y-66944593D01*
X165251838Y-66886572D01*
X168897657Y-63240753D01*
X168959969Y-63206727D01*
X169030784Y-63211792D01*
X169087620Y-63254339D01*
X169093894Y-63263542D01*
X169131522Y-63324348D01*
X169209863Y-63402552D01*
X169218109Y-63410784D01*
X169252188Y-63473066D01*
X169247185Y-63543886D01*
X169218264Y-63588975D01*
X169152995Y-63654358D01*
X169130695Y-63676697D01*
X169126855Y-63682927D01*
X169126854Y-63682928D01*
X169056530Y-63797015D01*
X169037885Y-63827262D01*
X169022058Y-63874978D01*
X168990740Y-63969402D01*
X168982203Y-63995139D01*
X168981503Y-64001975D01*
X168981502Y-64001978D01*
X168978769Y-64028650D01*
X168971500Y-64099600D01*
X168971500Y-64725400D01*
X168971837Y-64728646D01*
X168971837Y-64728650D01*
X168981392Y-64820736D01*
X168982474Y-64831166D01*
X168984655Y-64837702D01*
X168984655Y-64837704D01*
X169008267Y-64908477D01*
X169038450Y-64998946D01*
X169131522Y-65149348D01*
X169256697Y-65274305D01*
X169262927Y-65278145D01*
X169262928Y-65278146D01*
X169384672Y-65353190D01*
X169407262Y-65367115D01*
X169414207Y-65369419D01*
X169414208Y-65369419D01*
X169458168Y-65384000D01*
X169516528Y-65424432D01*
X169543764Y-65489996D01*
X169544500Y-65503593D01*
X169544500Y-65579980D01*
X169543970Y-65591214D01*
X169542292Y-65598719D01*
X169543617Y-65640872D01*
X169544438Y-65667012D01*
X169544500Y-65670969D01*
X169544500Y-65698983D01*
X169544996Y-65702908D01*
X169544996Y-65702909D01*
X169545008Y-65703004D01*
X169545941Y-65714849D01*
X169547335Y-65759205D01*
X169553013Y-65778748D01*
X169557023Y-65798112D01*
X169559573Y-65818299D01*
X169562489Y-65825663D01*
X169562490Y-65825668D01*
X169575907Y-65859556D01*
X169579752Y-65870785D01*
X169592131Y-65913393D01*
X169596169Y-65920220D01*
X169596170Y-65920223D01*
X169602488Y-65930906D01*
X169611188Y-65948664D01*
X169615761Y-65960215D01*
X169615765Y-65960221D01*
X169618681Y-65967588D01*
X169623339Y-65973999D01*
X169623340Y-65974001D01*
X169644764Y-66003488D01*
X169651281Y-66013410D01*
X169669826Y-66044768D01*
X169669829Y-66044772D01*
X169673866Y-66051598D01*
X169688250Y-66065982D01*
X169701091Y-66081016D01*
X169713058Y-66097487D01*
X169719166Y-66102540D01*
X169747255Y-66125777D01*
X169756035Y-66133767D01*
X170122210Y-66499942D01*
X170156236Y-66562254D01*
X170158425Y-66575865D01*
X170160515Y-66595749D01*
X170174585Y-66729618D01*
X170175458Y-66737928D01*
X170234473Y-66919556D01*
X170237776Y-66925278D01*
X170237777Y-66925279D01*
X170240890Y-66930671D01*
X170329960Y-67084944D01*
X170457747Y-67226866D01*
X170612248Y-67339118D01*
X170618276Y-67341802D01*
X170618278Y-67341803D01*
X170780681Y-67414109D01*
X170786712Y-67416794D01*
X170868243Y-67434124D01*
X170967056Y-67455128D01*
X170967061Y-67455128D01*
X170973513Y-67456500D01*
X171164487Y-67456500D01*
X171170939Y-67455128D01*
X171170944Y-67455128D01*
X171269757Y-67434124D01*
X171351288Y-67416794D01*
X171357319Y-67414109D01*
X171519722Y-67341803D01*
X171519724Y-67341802D01*
X171525752Y-67339118D01*
X171680253Y-67226866D01*
X171753865Y-67145111D01*
X171814310Y-67107873D01*
X171885294Y-67109225D01*
X171944278Y-67148739D01*
X171972536Y-67213869D01*
X171973500Y-67229423D01*
X171973500Y-70785577D01*
X171953498Y-70853698D01*
X171936595Y-70874672D01*
X171027595Y-71783672D01*
X170965283Y-71817698D01*
X170894468Y-71812633D01*
X170837632Y-71770086D01*
X170812821Y-71703566D01*
X170812500Y-71694577D01*
X170812500Y-70299635D01*
X170832502Y-70231514D01*
X170844864Y-70215325D01*
X170914621Y-70137852D01*
X170914625Y-70137847D01*
X170919040Y-70132944D01*
X171014527Y-69967556D01*
X171073542Y-69785928D01*
X171079022Y-69733794D01*
X171092814Y-69602565D01*
X171093504Y-69596000D01*
X171084834Y-69513505D01*
X171074232Y-69412635D01*
X171074232Y-69412633D01*
X171073542Y-69406072D01*
X171014527Y-69224444D01*
X171004458Y-69207003D01*
X170960499Y-69130865D01*
X170919040Y-69059056D01*
X170902673Y-69040878D01*
X170795675Y-68922045D01*
X170795674Y-68922044D01*
X170791253Y-68917134D01*
X170661312Y-68822726D01*
X170642094Y-68808763D01*
X170642093Y-68808762D01*
X170636752Y-68804882D01*
X170630724Y-68802198D01*
X170630722Y-68802197D01*
X170468319Y-68729891D01*
X170468318Y-68729891D01*
X170462288Y-68727206D01*
X170368888Y-68707353D01*
X170281944Y-68688872D01*
X170281939Y-68688872D01*
X170275487Y-68687500D01*
X170084513Y-68687500D01*
X170078061Y-68688872D01*
X170078056Y-68688872D01*
X169991112Y-68707353D01*
X169897712Y-68727206D01*
X169891682Y-68729891D01*
X169891681Y-68729891D01*
X169729278Y-68802197D01*
X169729276Y-68802198D01*
X169723248Y-68804882D01*
X169717907Y-68808762D01*
X169717906Y-68808763D01*
X169698688Y-68822726D01*
X169568747Y-68917134D01*
X169564326Y-68922044D01*
X169564325Y-68922045D01*
X169457328Y-69040878D01*
X169440960Y-69059056D01*
X169399501Y-69130865D01*
X169355543Y-69207003D01*
X169345473Y-69224444D01*
X169286458Y-69406072D01*
X169285768Y-69412633D01*
X169285768Y-69412635D01*
X169275166Y-69513505D01*
X169266496Y-69596000D01*
X169267186Y-69602565D01*
X169280979Y-69733794D01*
X169286458Y-69785928D01*
X169345473Y-69967556D01*
X169440960Y-70132944D01*
X169509137Y-70208662D01*
X169539853Y-70272668D01*
X169541500Y-70292971D01*
X169541500Y-72107550D01*
X169521498Y-72175671D01*
X169476943Y-72214655D01*
X169478054Y-72216450D01*
X169327652Y-72309522D01*
X169322479Y-72314704D01*
X169288717Y-72348525D01*
X169202695Y-72434697D01*
X169198855Y-72440927D01*
X169198854Y-72440928D01*
X169118853Y-72570714D01*
X169109885Y-72585262D01*
X169107581Y-72592209D01*
X169063727Y-72724426D01*
X169054203Y-72753139D01*
X169053503Y-72759975D01*
X169053502Y-72759978D01*
X169053465Y-72760342D01*
X169043500Y-72857600D01*
X169043500Y-74208400D01*
X169043837Y-74211646D01*
X169043837Y-74211650D01*
X169052088Y-74291166D01*
X169054474Y-74314166D01*
X169056655Y-74320702D01*
X169056655Y-74320704D01*
X169068097Y-74355000D01*
X169110450Y-74481946D01*
X169203522Y-74632348D01*
X169328697Y-74757305D01*
X169334927Y-74761145D01*
X169334928Y-74761146D01*
X169472090Y-74845694D01*
X169479262Y-74850115D01*
X169553939Y-74874884D01*
X169640611Y-74903632D01*
X169640613Y-74903632D01*
X169647139Y-74905797D01*
X169653975Y-74906497D01*
X169653978Y-74906498D01*
X169692064Y-74910400D01*
X169751600Y-74916500D01*
X170602400Y-74916500D01*
X170605646Y-74916163D01*
X170605650Y-74916163D01*
X170701308Y-74906238D01*
X170701312Y-74906237D01*
X170708166Y-74905526D01*
X170714702Y-74903345D01*
X170714704Y-74903345D01*
X170846806Y-74859272D01*
X170875946Y-74849550D01*
X171026348Y-74756478D01*
X171151305Y-74631303D01*
X171164838Y-74609348D01*
X171240275Y-74486968D01*
X171240276Y-74486966D01*
X171244115Y-74480738D01*
X171285820Y-74355000D01*
X171297632Y-74319389D01*
X171297632Y-74319387D01*
X171299797Y-74312861D01*
X171301050Y-74300639D01*
X171305216Y-74259973D01*
X171310500Y-74208400D01*
X171310500Y-73350422D01*
X171330502Y-73282301D01*
X171347405Y-73261327D01*
X171628405Y-72980327D01*
X171690717Y-72946301D01*
X171761532Y-72951366D01*
X171818368Y-72993913D01*
X171843179Y-73060433D01*
X171843500Y-73069422D01*
X171843500Y-74208400D01*
X171843837Y-74211646D01*
X171843837Y-74211650D01*
X171852088Y-74291166D01*
X171854474Y-74314166D01*
X171856655Y-74320702D01*
X171856655Y-74320704D01*
X171868097Y-74355000D01*
X171910450Y-74481946D01*
X172003522Y-74632348D01*
X172128697Y-74757305D01*
X172134927Y-74761145D01*
X172134928Y-74761146D01*
X172272090Y-74845694D01*
X172279262Y-74850115D01*
X172353939Y-74874884D01*
X172440611Y-74903632D01*
X172440613Y-74903632D01*
X172447139Y-74905797D01*
X172453975Y-74906497D01*
X172453978Y-74906498D01*
X172492064Y-74910400D01*
X172551600Y-74916500D01*
X173402400Y-74916500D01*
X173405646Y-74916163D01*
X173405650Y-74916163D01*
X173501308Y-74906238D01*
X173501312Y-74906237D01*
X173508166Y-74905526D01*
X173514702Y-74903345D01*
X173514704Y-74903345D01*
X173646806Y-74859272D01*
X173675946Y-74849550D01*
X173826348Y-74756478D01*
X173951305Y-74631303D01*
X173964838Y-74609348D01*
X174040275Y-74486968D01*
X174040276Y-74486966D01*
X174044115Y-74480738D01*
X174097982Y-74318333D01*
X174138412Y-74259973D01*
X174203977Y-74232736D01*
X174217575Y-74232000D01*
X180910500Y-74232000D01*
X180978621Y-74252002D01*
X181025114Y-74305658D01*
X181036500Y-74358000D01*
X181036500Y-74631400D01*
X181036837Y-74634646D01*
X181036837Y-74634650D01*
X181046641Y-74729134D01*
X181047474Y-74737166D01*
X181049655Y-74743702D01*
X181049655Y-74743704D01*
X181053462Y-74755115D01*
X181103450Y-74904946D01*
X181196522Y-75055348D01*
X181321697Y-75180305D01*
X181325179Y-75182451D01*
X181365473Y-75239284D01*
X181368706Y-75310207D01*
X181333082Y-75371619D01*
X181269911Y-75404022D01*
X181246319Y-75406250D01*
X160972000Y-75406250D01*
X160903879Y-75386248D01*
X160857386Y-75332592D01*
X160846000Y-75280250D01*
X160846000Y-68188095D01*
X161389001Y-68188095D01*
X161389338Y-68194614D01*
X161399257Y-68290206D01*
X161402149Y-68303600D01*
X161453588Y-68457784D01*
X161459761Y-68470962D01*
X161545063Y-68608807D01*
X161554099Y-68620208D01*
X161668829Y-68734739D01*
X161680240Y-68743751D01*
X161818243Y-68828816D01*
X161831424Y-68834963D01*
X161985710Y-68886138D01*
X161999086Y-68889005D01*
X162093438Y-68898672D01*
X162099854Y-68899000D01*
X162137385Y-68899000D01*
X162152624Y-68894525D01*
X162153829Y-68893135D01*
X162155500Y-68885452D01*
X162155500Y-67963115D01*
X162151025Y-67947876D01*
X162149635Y-67946671D01*
X162141952Y-67945000D01*
X161407116Y-67945000D01*
X161391877Y-67949475D01*
X161390672Y-67950865D01*
X161389001Y-67958548D01*
X161389001Y-68188095D01*
X160846000Y-68188095D01*
X160846000Y-67418885D01*
X161389000Y-67418885D01*
X161393475Y-67434124D01*
X161394865Y-67435329D01*
X161402548Y-67437000D01*
X162137385Y-67437000D01*
X162152624Y-67432525D01*
X162153829Y-67431135D01*
X162155500Y-67423452D01*
X162155500Y-66501116D01*
X162151025Y-66485877D01*
X162149635Y-66484672D01*
X162141952Y-66483001D01*
X162099905Y-66483001D01*
X162093386Y-66483338D01*
X161997794Y-66493257D01*
X161984400Y-66496149D01*
X161830216Y-66547588D01*
X161817038Y-66553761D01*
X161679193Y-66639063D01*
X161667792Y-66648099D01*
X161553261Y-66762829D01*
X161544249Y-66774240D01*
X161459184Y-66912243D01*
X161453037Y-66925424D01*
X161401862Y-67079710D01*
X161398995Y-67093086D01*
X161389328Y-67187438D01*
X161389000Y-67193855D01*
X161389000Y-67418885D01*
X160846000Y-67418885D01*
X160846000Y-56077657D01*
X167269000Y-56077657D01*
X167269301Y-56083805D01*
X167282812Y-56221603D01*
X167285195Y-56233638D01*
X167338767Y-56411076D01*
X167343441Y-56422416D01*
X167430460Y-56586077D01*
X167437249Y-56596294D01*
X167554397Y-56739933D01*
X167563041Y-56748637D01*
X167705856Y-56866784D01*
X167716027Y-56873644D01*
X167879076Y-56961804D01*
X167890381Y-56966556D01*
X168005692Y-57002250D01*
X168019795Y-57002456D01*
X168023000Y-56995701D01*
X168023000Y-56988924D01*
X168531000Y-56988924D01*
X168534973Y-57002455D01*
X168542768Y-57003575D01*
X168650521Y-56971862D01*
X168661889Y-56967269D01*
X168826154Y-56881393D01*
X168836415Y-56874679D01*
X168980873Y-56758532D01*
X168989632Y-56749954D01*
X169108778Y-56607961D01*
X169115708Y-56597841D01*
X169205002Y-56435415D01*
X169209834Y-56424142D01*
X169265880Y-56247462D01*
X169268430Y-56235468D01*
X169284607Y-56091239D01*
X169285000Y-56084215D01*
X169285000Y-55868026D01*
X169305002Y-55799905D01*
X169358658Y-55753412D01*
X169428932Y-55743308D01*
X169438486Y-55745061D01*
X169608494Y-55783062D01*
X169608501Y-55783063D01*
X169613543Y-55784190D01*
X169619088Y-55784500D01*
X169752244Y-55784500D01*
X169887037Y-55769857D01*
X170005190Y-55730094D01*
X170052204Y-55714272D01*
X170052206Y-55714271D01*
X170058675Y-55712094D01*
X170213905Y-55618823D01*
X170218862Y-55614135D01*
X170218865Y-55614133D01*
X170340527Y-55499082D01*
X170340529Y-55499080D01*
X170345485Y-55494393D01*
X170349317Y-55488755D01*
X170349320Y-55488751D01*
X170443442Y-55350255D01*
X170447277Y-55344612D01*
X170514530Y-55176466D01*
X170515644Y-55169738D01*
X170515645Y-55169734D01*
X170542993Y-55004539D01*
X170542993Y-55004536D01*
X170544108Y-54997802D01*
X170539203Y-54904198D01*
X174649892Y-54904198D01*
X174650249Y-54911015D01*
X174650249Y-54911019D01*
X174655151Y-55004539D01*
X174659370Y-55085047D01*
X174661181Y-55091620D01*
X174661181Y-55091623D01*
X174694738Y-55213452D01*
X174707461Y-55259641D01*
X174791922Y-55419836D01*
X174796327Y-55425049D01*
X174796330Y-55425053D01*
X174904406Y-55552943D01*
X174904410Y-55552947D01*
X174908813Y-55558157D01*
X174914237Y-55562304D01*
X174914238Y-55562305D01*
X175047257Y-55664006D01*
X175047261Y-55664009D01*
X175052678Y-55668150D01*
X175139372Y-55708576D01*
X175210631Y-55741805D01*
X175210634Y-55741806D01*
X175216808Y-55744685D01*
X175223456Y-55746171D01*
X175223459Y-55746172D01*
X175350816Y-55774639D01*
X175393543Y-55784190D01*
X175399088Y-55784500D01*
X175532244Y-55784500D01*
X175667037Y-55769857D01*
X175673501Y-55767682D01*
X175673504Y-55767681D01*
X175740716Y-55745061D01*
X175742811Y-55744356D01*
X175813753Y-55741586D01*
X175874932Y-55777609D01*
X175906923Y-55840990D01*
X175909000Y-55863775D01*
X175909000Y-56077657D01*
X175909301Y-56083805D01*
X175922812Y-56221603D01*
X175925195Y-56233638D01*
X175978767Y-56411076D01*
X175983441Y-56422416D01*
X176070460Y-56586077D01*
X176077249Y-56596294D01*
X176194397Y-56739933D01*
X176203041Y-56748637D01*
X176345856Y-56866784D01*
X176356027Y-56873644D01*
X176519076Y-56961804D01*
X176530381Y-56966556D01*
X176645692Y-57002250D01*
X176659795Y-57002456D01*
X176663000Y-56995701D01*
X176663000Y-56988924D01*
X177171000Y-56988924D01*
X177174973Y-57002455D01*
X177182768Y-57003575D01*
X177290521Y-56971862D01*
X177301889Y-56967269D01*
X177466154Y-56881393D01*
X177476415Y-56874679D01*
X177620873Y-56758532D01*
X177629632Y-56749954D01*
X177748778Y-56607961D01*
X177755708Y-56597841D01*
X177845002Y-56435415D01*
X177849834Y-56424142D01*
X177905880Y-56247462D01*
X177908430Y-56235468D01*
X177924607Y-56091239D01*
X177925000Y-56084215D01*
X177925000Y-55753115D01*
X177920525Y-55737876D01*
X177919135Y-55736671D01*
X177911452Y-55735000D01*
X177189115Y-55735000D01*
X177173876Y-55739475D01*
X177172671Y-55740865D01*
X177171000Y-55748548D01*
X177171000Y-56988924D01*
X176663000Y-56988924D01*
X176663000Y-55208885D01*
X177171000Y-55208885D01*
X177175475Y-55224124D01*
X177176865Y-55225329D01*
X177184548Y-55227000D01*
X177906885Y-55227000D01*
X177922124Y-55222525D01*
X177923329Y-55221135D01*
X177925000Y-55213452D01*
X177925000Y-54884343D01*
X177924699Y-54878195D01*
X177911188Y-54740397D01*
X177908805Y-54728362D01*
X177855233Y-54550924D01*
X177850559Y-54539584D01*
X177763540Y-54375923D01*
X177756751Y-54365706D01*
X177639603Y-54222067D01*
X177630959Y-54213363D01*
X177488144Y-54095216D01*
X177477973Y-54088356D01*
X177314924Y-54000196D01*
X177303619Y-53995444D01*
X177188308Y-53959750D01*
X177174205Y-53959544D01*
X177171000Y-53966299D01*
X177171000Y-55208885D01*
X176663000Y-55208885D01*
X176663000Y-53973076D01*
X176659027Y-53959545D01*
X176651232Y-53958425D01*
X176543479Y-53990138D01*
X176532111Y-53994731D01*
X176367846Y-54080607D01*
X176357585Y-54087321D01*
X176213127Y-54203468D01*
X176204368Y-54212046D01*
X176160000Y-54264921D01*
X176100890Y-54304248D01*
X176029902Y-54305374D01*
X175986952Y-54284028D01*
X175921322Y-54233850D01*
X175816186Y-54184825D01*
X175763369Y-54160195D01*
X175763366Y-54160194D01*
X175757192Y-54157315D01*
X175750544Y-54155829D01*
X175750541Y-54155828D01*
X175585494Y-54118936D01*
X175585495Y-54118936D01*
X175580457Y-54117810D01*
X175574912Y-54117500D01*
X175441756Y-54117500D01*
X175306963Y-54132143D01*
X175223609Y-54160195D01*
X175141796Y-54187728D01*
X175141794Y-54187729D01*
X175135325Y-54189906D01*
X174980095Y-54283177D01*
X174975138Y-54287865D01*
X174975135Y-54287867D01*
X174853473Y-54402918D01*
X174848515Y-54407607D01*
X174844683Y-54413245D01*
X174844680Y-54413249D01*
X174793740Y-54488205D01*
X174746723Y-54557388D01*
X174679470Y-54725534D01*
X174678356Y-54732262D01*
X174678355Y-54732266D01*
X174651007Y-54897461D01*
X174649892Y-54904198D01*
X170539203Y-54904198D01*
X170534987Y-54823766D01*
X170534630Y-54816953D01*
X170511304Y-54732266D01*
X170488352Y-54648941D01*
X170486539Y-54642359D01*
X170402078Y-54482164D01*
X170397673Y-54476951D01*
X170397670Y-54476947D01*
X170289594Y-54349057D01*
X170289590Y-54349053D01*
X170285187Y-54343843D01*
X170263003Y-54326882D01*
X170146743Y-54237994D01*
X170146739Y-54237991D01*
X170141322Y-54233850D01*
X170036186Y-54184825D01*
X169983369Y-54160195D01*
X169983366Y-54160194D01*
X169977192Y-54157315D01*
X169970544Y-54155829D01*
X169970541Y-54155828D01*
X169805494Y-54118936D01*
X169805495Y-54118936D01*
X169800457Y-54117810D01*
X169794912Y-54117500D01*
X169661756Y-54117500D01*
X169526963Y-54132143D01*
X169443609Y-54160195D01*
X169361796Y-54187728D01*
X169361794Y-54187729D01*
X169355325Y-54189906D01*
X169203349Y-54281222D01*
X169203346Y-54281223D01*
X169200095Y-54283177D01*
X169199745Y-54282594D01*
X169138083Y-54306065D01*
X169068609Y-54291439D01*
X169030609Y-54260085D01*
X168999603Y-54222067D01*
X168990959Y-54213363D01*
X168848144Y-54095216D01*
X168837973Y-54088356D01*
X168674924Y-54000196D01*
X168663619Y-53995444D01*
X168548308Y-53959750D01*
X168534205Y-53959544D01*
X168531000Y-53966299D01*
X168531000Y-56988924D01*
X168023000Y-56988924D01*
X168023000Y-55753115D01*
X168018525Y-55737876D01*
X168017135Y-55736671D01*
X168009452Y-55735000D01*
X167287115Y-55735000D01*
X167271876Y-55739475D01*
X167270671Y-55740865D01*
X167269000Y-55748548D01*
X167269000Y-56077657D01*
X160846000Y-56077657D01*
X160846000Y-55615750D01*
X160847746Y-55594845D01*
X160850270Y-55579844D01*
X160850270Y-55579841D01*
X160851076Y-55575052D01*
X160851229Y-55562500D01*
X160850539Y-55557685D01*
X160850539Y-55557678D01*
X160848816Y-55545648D01*
X160847651Y-55522577D01*
X160848781Y-55495279D01*
X160860626Y-55208885D01*
X167269000Y-55208885D01*
X167273475Y-55224124D01*
X167274865Y-55225329D01*
X167282548Y-55227000D01*
X168004885Y-55227000D01*
X168020124Y-55222525D01*
X168021329Y-55221135D01*
X168023000Y-55213452D01*
X168023000Y-53973076D01*
X168019027Y-53959545D01*
X168011232Y-53958425D01*
X167903479Y-53990138D01*
X167892111Y-53994731D01*
X167727846Y-54080607D01*
X167717585Y-54087321D01*
X167573127Y-54203468D01*
X167564368Y-54212046D01*
X167445222Y-54354039D01*
X167438292Y-54364159D01*
X167348998Y-54526585D01*
X167344166Y-54537858D01*
X167288120Y-54714538D01*
X167285570Y-54726532D01*
X167269393Y-54870761D01*
X167269000Y-54877785D01*
X167269000Y-55208885D01*
X160860626Y-55208885D01*
X160863026Y-55150864D01*
X160863886Y-55140486D01*
X160893339Y-54904198D01*
X160914201Y-54736829D01*
X160915914Y-54726564D01*
X160926451Y-54676314D01*
X160982792Y-54407607D01*
X160999390Y-54328450D01*
X161001946Y-54318355D01*
X161061742Y-54117500D01*
X161118015Y-53928481D01*
X161121393Y-53918641D01*
X161151430Y-53841664D01*
X161269267Y-53539671D01*
X161273443Y-53530154D01*
X161452097Y-53164708D01*
X161457051Y-53155553D01*
X161665276Y-52806103D01*
X161670972Y-52797385D01*
X161730190Y-52714444D01*
X161907342Y-52466326D01*
X161913724Y-52458126D01*
X162176628Y-52147713D01*
X162183681Y-52140051D01*
X162471318Y-51852411D01*
X162478980Y-51845358D01*
X162712403Y-51647657D01*
X167269000Y-51647657D01*
X167269301Y-51653805D01*
X167282812Y-51791603D01*
X167285195Y-51803638D01*
X167338767Y-51981076D01*
X167343441Y-51992416D01*
X167430460Y-52156077D01*
X167437249Y-52166294D01*
X167554397Y-52309933D01*
X167563041Y-52318637D01*
X167705856Y-52436784D01*
X167716027Y-52443644D01*
X167879076Y-52531804D01*
X167890381Y-52536556D01*
X168005692Y-52572250D01*
X168019795Y-52572456D01*
X168023000Y-52565701D01*
X168023000Y-52558924D01*
X168531000Y-52558924D01*
X168534973Y-52572455D01*
X168542768Y-52573575D01*
X168650521Y-52541862D01*
X168661889Y-52537269D01*
X168826154Y-52451393D01*
X168836415Y-52444679D01*
X168980873Y-52328532D01*
X168989632Y-52319954D01*
X169108778Y-52177961D01*
X169115708Y-52167841D01*
X169205002Y-52005415D01*
X169209834Y-51994142D01*
X169265880Y-51817462D01*
X169268430Y-51805468D01*
X169284607Y-51661239D01*
X169285000Y-51654215D01*
X169285000Y-51647657D01*
X175909000Y-51647657D01*
X175909301Y-51653805D01*
X175922812Y-51791603D01*
X175925195Y-51803638D01*
X175978767Y-51981076D01*
X175983441Y-51992416D01*
X176070460Y-52156077D01*
X176077249Y-52166294D01*
X176194397Y-52309933D01*
X176203041Y-52318637D01*
X176345856Y-52436784D01*
X176356027Y-52443644D01*
X176519076Y-52531804D01*
X176530381Y-52536556D01*
X176645692Y-52572250D01*
X176659795Y-52572456D01*
X176663000Y-52565701D01*
X176663000Y-52558924D01*
X177171000Y-52558924D01*
X177174973Y-52572455D01*
X177182768Y-52573575D01*
X177290521Y-52541862D01*
X177301889Y-52537269D01*
X177466154Y-52451393D01*
X177476415Y-52444679D01*
X177620873Y-52328532D01*
X177629632Y-52319954D01*
X177748778Y-52177961D01*
X177755708Y-52167841D01*
X177845002Y-52005415D01*
X177849834Y-51994142D01*
X177905880Y-51817462D01*
X177908430Y-51805468D01*
X177924607Y-51661239D01*
X177925000Y-51654215D01*
X177925000Y-51573115D01*
X177920525Y-51557876D01*
X177919135Y-51556671D01*
X177911452Y-51555000D01*
X177189115Y-51555000D01*
X177173876Y-51559475D01*
X177172671Y-51560865D01*
X177171000Y-51568548D01*
X177171000Y-52558924D01*
X176663000Y-52558924D01*
X176663000Y-51573115D01*
X176658525Y-51557876D01*
X176657135Y-51556671D01*
X176649452Y-51555000D01*
X175927115Y-51555000D01*
X175911876Y-51559475D01*
X175910671Y-51560865D01*
X175909000Y-51568548D01*
X175909000Y-51647657D01*
X169285000Y-51647657D01*
X169285000Y-51573115D01*
X169280525Y-51557876D01*
X169279135Y-51556671D01*
X169271452Y-51555000D01*
X168549115Y-51555000D01*
X168533876Y-51559475D01*
X168532671Y-51560865D01*
X168531000Y-51568548D01*
X168531000Y-52558924D01*
X168023000Y-52558924D01*
X168023000Y-51573115D01*
X168018525Y-51557876D01*
X168017135Y-51556671D01*
X168009452Y-51555000D01*
X167287115Y-51555000D01*
X167271876Y-51559475D01*
X167270671Y-51560865D01*
X167269000Y-51568548D01*
X167269000Y-51647657D01*
X162712403Y-51647657D01*
X162789375Y-51582465D01*
X162797593Y-51576068D01*
X163128657Y-51339690D01*
X163137375Y-51333995D01*
X163486805Y-51125777D01*
X163495964Y-51120820D01*
X163861409Y-50942162D01*
X163870945Y-50937979D01*
X163932058Y-50914132D01*
X164249897Y-50790108D01*
X164259730Y-50786732D01*
X164649619Y-50670654D01*
X164659699Y-50668102D01*
X165057821Y-50584621D01*
X165068093Y-50582907D01*
X165471742Y-50532589D01*
X165482120Y-50531729D01*
X165849833Y-50516517D01*
X165874424Y-50517909D01*
X165878602Y-50518559D01*
X165878604Y-50518559D01*
X165887479Y-50519941D01*
X165919219Y-50515790D01*
X165935471Y-50514727D01*
X167201706Y-50514029D01*
X167269836Y-50533992D01*
X167316359Y-50587622D01*
X167326501Y-50657891D01*
X167321876Y-50678127D01*
X167288119Y-50784541D01*
X167285570Y-50796532D01*
X167269393Y-50940761D01*
X167269000Y-50947785D01*
X167269000Y-51028885D01*
X167273475Y-51044124D01*
X167274865Y-51045329D01*
X167282548Y-51047000D01*
X169266885Y-51047000D01*
X169282124Y-51042525D01*
X169283329Y-51041135D01*
X169285000Y-51033452D01*
X169285000Y-50954343D01*
X169284699Y-50948195D01*
X169271188Y-50810397D01*
X169268805Y-50798362D01*
X169231638Y-50675259D01*
X169231097Y-50604265D01*
X169269025Y-50544248D01*
X169333379Y-50514264D01*
X169352180Y-50512842D01*
X175843218Y-50509259D01*
X175911349Y-50529223D01*
X175957872Y-50582853D01*
X175968014Y-50653122D01*
X175963389Y-50673358D01*
X175928119Y-50784541D01*
X175925570Y-50796532D01*
X175909393Y-50940761D01*
X175909000Y-50947785D01*
X175909000Y-51028885D01*
X175913475Y-51044124D01*
X175914865Y-51045329D01*
X175922548Y-51047000D01*
X177906885Y-51047000D01*
X177922124Y-51042525D01*
X177923329Y-51041135D01*
X177925000Y-51033452D01*
X177925000Y-50954343D01*
X177924699Y-50948195D01*
X177911188Y-50810397D01*
X177908806Y-50798365D01*
X177870198Y-50670493D01*
X177869657Y-50599498D01*
X177907584Y-50539481D01*
X177971938Y-50509497D01*
X177990750Y-50508074D01*
X192079343Y-50500298D01*
X199006013Y-50496475D01*
X199074145Y-50516439D01*
G37*
G04 #@! TD.AperFunction*
G04 #@! TA.AperFunction,Conductor*
G36*
X194376146Y-67330502D02*
G01*
X194414022Y-67368377D01*
X194438049Y-67405762D01*
X194437000Y-67406436D01*
X194464058Y-67455987D01*
X194465664Y-67500632D01*
X194458254Y-67552374D01*
X194459527Y-67561263D01*
X194476107Y-67677035D01*
X194478903Y-67696560D01*
X194539190Y-67829156D01*
X194544137Y-67835309D01*
X194544139Y-67835312D01*
X194548936Y-67841278D01*
X194578383Y-67877902D01*
X195707115Y-69006634D01*
X195723851Y-69020090D01*
X195749705Y-69040878D01*
X195749708Y-69040880D01*
X195755861Y-69045827D01*
X195888457Y-69106114D01*
X195897338Y-69107386D01*
X195905960Y-69109907D01*
X195905071Y-69112945D01*
X195955441Y-69135918D01*
X195962070Y-69142088D01*
X197579387Y-70759405D01*
X197613413Y-70821717D01*
X197608348Y-70892532D01*
X197565801Y-70949368D01*
X197499281Y-70974179D01*
X197490292Y-70974500D01*
X196639423Y-70974500D01*
X196571302Y-70954498D01*
X196550327Y-70937595D01*
X195764789Y-70152056D01*
X195730764Y-70089744D01*
X195728575Y-70076132D01*
X195712232Y-69920634D01*
X195712231Y-69920631D01*
X195711542Y-69914072D01*
X195664659Y-69769782D01*
X195662631Y-69698816D01*
X195699294Y-69638018D01*
X195732342Y-69616146D01*
X195736276Y-69614357D01*
X195749625Y-69606137D01*
X195789503Y-69574074D01*
X195794580Y-69569519D01*
X195828205Y-69535894D01*
X195835819Y-69521950D01*
X195835688Y-69520115D01*
X195831440Y-69513505D01*
X195143893Y-68825957D01*
X195129950Y-68818344D01*
X195128116Y-68818475D01*
X195121502Y-68822726D01*
X194782197Y-69162031D01*
X194719299Y-69196183D01*
X194675261Y-69205544D01*
X194535712Y-69235206D01*
X194529682Y-69237891D01*
X194529681Y-69237891D01*
X194367278Y-69310197D01*
X194367276Y-69310198D01*
X194361248Y-69312882D01*
X194206747Y-69425134D01*
X194202326Y-69430044D01*
X194202325Y-69430045D01*
X194119574Y-69521950D01*
X194078960Y-69567056D01*
X194062249Y-69596000D01*
X193988926Y-69723000D01*
X193983473Y-69732444D01*
X193924458Y-69914072D01*
X193904496Y-70104000D01*
X193905186Y-70110565D01*
X193922224Y-70272668D01*
X193924458Y-70293928D01*
X193983473Y-70475556D01*
X193986776Y-70481278D01*
X193986777Y-70481279D01*
X194010040Y-70521572D01*
X194078960Y-70640944D01*
X194083378Y-70645851D01*
X194083379Y-70645852D01*
X194190381Y-70764690D01*
X194221099Y-70828697D01*
X194212334Y-70899151D01*
X194166871Y-70953682D01*
X194096745Y-70975000D01*
X193894115Y-70975000D01*
X193878876Y-70979475D01*
X193877671Y-70980865D01*
X193876000Y-70988548D01*
X193876000Y-72511000D01*
X193855998Y-72579121D01*
X193802342Y-72625614D01*
X193750000Y-72637000D01*
X193494000Y-72637000D01*
X193425879Y-72616998D01*
X193379386Y-72563342D01*
X193368000Y-72511000D01*
X193368000Y-70993116D01*
X193363525Y-70977877D01*
X193362135Y-70976672D01*
X193354452Y-70975001D01*
X192527331Y-70975001D01*
X192520510Y-70975371D01*
X192469648Y-70980895D01*
X192454396Y-70984521D01*
X192333946Y-71029676D01*
X192318351Y-71038214D01*
X192216276Y-71114715D01*
X192203715Y-71127276D01*
X192127214Y-71229351D01*
X192118676Y-71244946D01*
X192073522Y-71365394D01*
X192069895Y-71380649D01*
X192064369Y-71431514D01*
X192064000Y-71438328D01*
X192064000Y-72172473D01*
X192043998Y-72240594D01*
X191990342Y-72287087D01*
X191920068Y-72297191D01*
X191855488Y-72267697D01*
X191818476Y-72212348D01*
X191795413Y-72143218D01*
X191789239Y-72130038D01*
X191703937Y-71992193D01*
X191694901Y-71980792D01*
X191580171Y-71866261D01*
X191568760Y-71857249D01*
X191430757Y-71772184D01*
X191417576Y-71766037D01*
X191263290Y-71714862D01*
X191249914Y-71711995D01*
X191155562Y-71702328D01*
X191149145Y-71702000D01*
X190899115Y-71702000D01*
X190883876Y-71706475D01*
X190882671Y-71707865D01*
X190881000Y-71715548D01*
X190881000Y-72838000D01*
X190860998Y-72906121D01*
X190807342Y-72952614D01*
X190755000Y-72964000D01*
X190499000Y-72964000D01*
X190430879Y-72943998D01*
X190384386Y-72890342D01*
X190373000Y-72838000D01*
X190373000Y-71720116D01*
X190368525Y-71704877D01*
X190367135Y-71703672D01*
X190359452Y-71702001D01*
X190174373Y-71702001D01*
X190106252Y-71681999D01*
X190059759Y-71628343D01*
X190048373Y-71576001D01*
X190048373Y-67859369D01*
X190068375Y-67791248D01*
X190122031Y-67744755D01*
X190192305Y-67734651D01*
X190256885Y-67764145D01*
X190263468Y-67770274D01*
X190368458Y-67875264D01*
X190405595Y-67905123D01*
X190417204Y-67914457D01*
X190415672Y-67916363D01*
X190436063Y-67936757D01*
X190437971Y-67935223D01*
X190477164Y-67983969D01*
X190934144Y-68440949D01*
X190971679Y-68471128D01*
X190982890Y-68480142D01*
X190981361Y-68482044D01*
X191001754Y-68502437D01*
X191003656Y-68500908D01*
X191042849Y-68549654D01*
X191499829Y-69006634D01*
X191519468Y-69022424D01*
X191548575Y-69045827D01*
X191547041Y-69047735D01*
X191567435Y-69068126D01*
X191569341Y-69066594D01*
X191608534Y-69115340D01*
X192065514Y-69572320D01*
X192068176Y-69574460D01*
X192108104Y-69606564D01*
X192108107Y-69606566D01*
X192114260Y-69611513D01*
X192121448Y-69614781D01*
X192218704Y-69659000D01*
X192246856Y-69671800D01*
X192255739Y-69673072D01*
X192255742Y-69673073D01*
X192382153Y-69691176D01*
X192391042Y-69692449D01*
X192399931Y-69691176D01*
X192526342Y-69673073D01*
X192526345Y-69673072D01*
X192535228Y-69671800D01*
X192563381Y-69659000D01*
X192660636Y-69614781D01*
X192667824Y-69611513D01*
X192673977Y-69606566D01*
X192673980Y-69606564D01*
X192713908Y-69574460D01*
X192716570Y-69572320D01*
X193840258Y-68448632D01*
X193902570Y-68414606D01*
X193973385Y-68419671D01*
X194018448Y-68448631D01*
X194385005Y-68815187D01*
X194398943Y-68822798D01*
X194400779Y-68822666D01*
X194407391Y-68818417D01*
X194759060Y-68466748D01*
X194766674Y-68452804D01*
X194766543Y-68450971D01*
X194762292Y-68444356D01*
X194074745Y-67756810D01*
X194060807Y-67749199D01*
X194058971Y-67749331D01*
X194052359Y-67753580D01*
X194018451Y-67787489D01*
X193956140Y-67821515D01*
X193885324Y-67816451D01*
X193840260Y-67787490D01*
X193581130Y-67528360D01*
X193547104Y-67466048D01*
X193552169Y-67395233D01*
X193594716Y-67338397D01*
X193658365Y-67313824D01*
X193676529Y-67312107D01*
X193687614Y-67311059D01*
X193699471Y-67310500D01*
X194308025Y-67310500D01*
X194376146Y-67330502D01*
G37*
G04 #@! TD.AperFunction*
G04 #@! TA.AperFunction,Conductor*
G36*
X173469550Y-60564662D02*
G01*
X173497587Y-60597020D01*
X173497776Y-60596882D01*
X173499380Y-60599089D01*
X173500782Y-60600708D01*
X173504960Y-60607944D01*
X173509378Y-60612851D01*
X173509379Y-60612852D01*
X173602918Y-60716738D01*
X173632747Y-60749866D01*
X173686795Y-60789134D01*
X173772122Y-60851128D01*
X173787248Y-60862118D01*
X173793274Y-60864801D01*
X173793281Y-60864805D01*
X173925748Y-60923782D01*
X173979844Y-60969762D01*
X174000500Y-61038889D01*
X174000500Y-61618198D01*
X173980498Y-61686319D01*
X173950065Y-61719024D01*
X173895739Y-61759739D01*
X173808385Y-61876295D01*
X173757255Y-62012684D01*
X173750500Y-62074866D01*
X173750500Y-62771134D01*
X173757255Y-62833316D01*
X173808385Y-62969705D01*
X173895739Y-63086261D01*
X173897248Y-63087392D01*
X173929565Y-63146574D01*
X173924500Y-63217389D01*
X173895539Y-63262452D01*
X173890715Y-63267276D01*
X173814214Y-63369351D01*
X173805676Y-63384946D01*
X173760522Y-63505394D01*
X173756895Y-63520649D01*
X173751369Y-63571514D01*
X173751000Y-63578328D01*
X173751000Y-63850885D01*
X173755475Y-63866124D01*
X173756865Y-63867329D01*
X173764548Y-63869000D01*
X175448884Y-63869000D01*
X175464123Y-63864525D01*
X175465328Y-63863135D01*
X175466999Y-63855452D01*
X175466999Y-63578331D01*
X175466629Y-63571510D01*
X175461105Y-63520648D01*
X175457479Y-63505396D01*
X175412324Y-63384946D01*
X175403786Y-63369351D01*
X175327285Y-63267276D01*
X175322461Y-63262452D01*
X175288435Y-63200140D01*
X175293500Y-63129325D01*
X175320168Y-63087829D01*
X175322261Y-63086261D01*
X175327642Y-63079081D01*
X175333992Y-63072731D01*
X175335627Y-63074366D01*
X175382359Y-63039421D01*
X175426329Y-63031500D01*
X175943689Y-63031500D01*
X176011810Y-63051502D01*
X176050833Y-63091196D01*
X176116522Y-63197348D01*
X176197118Y-63277803D01*
X176203109Y-63283784D01*
X176237188Y-63346066D01*
X176232185Y-63416886D01*
X176203264Y-63461975D01*
X176165314Y-63499991D01*
X176115695Y-63549697D01*
X176111855Y-63555927D01*
X176111854Y-63555928D01*
X176041244Y-63670479D01*
X176022885Y-63700262D01*
X176020581Y-63707209D01*
X175980278Y-63828720D01*
X175967203Y-63868139D01*
X175966503Y-63874975D01*
X175966502Y-63874978D01*
X175962639Y-63912684D01*
X175956500Y-63972600D01*
X175956500Y-64598400D01*
X175956837Y-64601646D01*
X175956837Y-64601650D01*
X175964047Y-64671134D01*
X175967474Y-64704166D01*
X175969655Y-64710702D01*
X175969655Y-64710704D01*
X176004191Y-64814219D01*
X176023450Y-64871946D01*
X176116522Y-65022348D01*
X176121704Y-65027521D01*
X176138753Y-65044540D01*
X176241697Y-65147305D01*
X176247927Y-65151145D01*
X176247928Y-65151146D01*
X176385090Y-65235694D01*
X176392262Y-65240115D01*
X176472005Y-65266564D01*
X176553611Y-65293632D01*
X176553613Y-65293632D01*
X176560139Y-65295797D01*
X176566975Y-65296497D01*
X176566978Y-65296498D01*
X176610031Y-65300909D01*
X176664600Y-65306500D01*
X177665400Y-65306500D01*
X177668646Y-65306163D01*
X177668650Y-65306163D01*
X177764308Y-65296238D01*
X177764312Y-65296237D01*
X177771166Y-65295526D01*
X177777702Y-65293345D01*
X177777704Y-65293345D01*
X177927226Y-65243460D01*
X177938946Y-65239550D01*
X178089348Y-65146478D01*
X178116582Y-65119197D01*
X178209134Y-65026483D01*
X178214305Y-65021303D01*
X178218148Y-65015069D01*
X178239221Y-64980883D01*
X178291993Y-64933390D01*
X178346480Y-64921000D01*
X179475480Y-64921000D01*
X179486714Y-64921530D01*
X179494219Y-64923208D01*
X179562512Y-64921062D01*
X179566469Y-64921000D01*
X179594483Y-64921000D01*
X179598408Y-64920504D01*
X179598409Y-64920504D01*
X179598504Y-64920492D01*
X179610349Y-64919559D01*
X179640170Y-64918622D01*
X179646782Y-64918414D01*
X179646783Y-64918414D01*
X179654705Y-64918165D01*
X179674249Y-64912487D01*
X179693612Y-64908477D01*
X179705940Y-64906920D01*
X179705942Y-64906920D01*
X179713799Y-64905927D01*
X179721163Y-64903011D01*
X179721168Y-64903010D01*
X179755056Y-64889593D01*
X179766285Y-64885748D01*
X179782965Y-64880902D01*
X179808893Y-64873369D01*
X179815720Y-64869331D01*
X179815723Y-64869330D01*
X179826406Y-64863012D01*
X179844164Y-64854312D01*
X179855715Y-64849739D01*
X179855721Y-64849735D01*
X179863088Y-64846819D01*
X179898991Y-64820734D01*
X179908910Y-64814219D01*
X179940268Y-64795674D01*
X179940272Y-64795671D01*
X179947098Y-64791634D01*
X179961482Y-64777250D01*
X179976516Y-64764409D01*
X179986573Y-64757102D01*
X179992987Y-64752442D01*
X180021278Y-64718244D01*
X180029267Y-64709465D01*
X182473905Y-62264827D01*
X182536217Y-62230801D01*
X182607032Y-62235866D01*
X182663868Y-62278413D01*
X182688679Y-62344933D01*
X182689000Y-62353922D01*
X182689000Y-64394221D01*
X182668998Y-64462342D01*
X182656641Y-64478525D01*
X182648960Y-64487056D01*
X182645659Y-64492774D01*
X182569936Y-64623930D01*
X182553473Y-64652444D01*
X182494458Y-64834072D01*
X182493768Y-64840633D01*
X182493768Y-64840635D01*
X182476474Y-65005176D01*
X182474496Y-65024000D01*
X182475186Y-65030565D01*
X182487561Y-65148303D01*
X182494458Y-65213928D01*
X182553473Y-65395556D01*
X182556776Y-65401278D01*
X182556777Y-65401279D01*
X182580288Y-65442001D01*
X182648960Y-65560944D01*
X182725688Y-65646159D01*
X182756405Y-65710167D01*
X182747640Y-65780620D01*
X182721146Y-65819564D01*
X178667683Y-69873027D01*
X178605371Y-69907053D01*
X178538918Y-69903524D01*
X178526387Y-69899367D01*
X178526382Y-69899366D01*
X178519861Y-69897203D01*
X178513028Y-69896503D01*
X178513024Y-69896502D01*
X178448359Y-69889877D01*
X178415400Y-69886500D01*
X177814600Y-69886500D01*
X177811354Y-69886837D01*
X177811350Y-69886837D01*
X177715692Y-69896762D01*
X177715688Y-69896763D01*
X177708834Y-69897474D01*
X177702298Y-69899655D01*
X177702296Y-69899655D01*
X177616000Y-69928446D01*
X177541054Y-69953450D01*
X177390652Y-70046522D01*
X177385479Y-70051704D01*
X177342702Y-70094556D01*
X177265695Y-70171697D01*
X177262898Y-70176235D01*
X177205647Y-70216824D01*
X177134724Y-70220054D01*
X177073313Y-70184428D01*
X177065938Y-70175932D01*
X177057902Y-70165793D01*
X176943171Y-70051261D01*
X176931760Y-70042249D01*
X176793757Y-69957184D01*
X176780576Y-69951037D01*
X176626290Y-69899862D01*
X176612914Y-69896995D01*
X176518562Y-69887328D01*
X176512145Y-69887000D01*
X176487115Y-69887000D01*
X176471876Y-69891475D01*
X176470671Y-69892865D01*
X176469000Y-69900548D01*
X176469000Y-72334884D01*
X176473475Y-72350123D01*
X176474865Y-72351328D01*
X176482548Y-72352999D01*
X176512095Y-72352999D01*
X176518614Y-72352662D01*
X176614206Y-72342743D01*
X176627600Y-72339851D01*
X176781784Y-72288412D01*
X176794962Y-72282239D01*
X176932807Y-72196937D01*
X176944208Y-72187901D01*
X177058738Y-72073172D01*
X177065794Y-72064238D01*
X177123712Y-72023177D01*
X177194635Y-72019947D01*
X177256046Y-72055574D01*
X177262846Y-72063407D01*
X177266522Y-72069348D01*
X177391697Y-72194305D01*
X177397927Y-72198145D01*
X177397928Y-72198146D01*
X177535288Y-72282816D01*
X177542262Y-72287115D01*
X177622005Y-72313564D01*
X177703611Y-72340632D01*
X177703613Y-72340632D01*
X177710139Y-72342797D01*
X177716975Y-72343497D01*
X177716978Y-72343498D01*
X177760031Y-72347909D01*
X177814600Y-72353500D01*
X178415400Y-72353500D01*
X178418646Y-72353163D01*
X178418650Y-72353163D01*
X178514308Y-72343238D01*
X178514312Y-72343237D01*
X178521166Y-72342526D01*
X178527702Y-72340345D01*
X178527704Y-72340345D01*
X178659806Y-72296272D01*
X178688946Y-72286550D01*
X178839348Y-72193478D01*
X178964305Y-72068303D01*
X178972151Y-72055574D01*
X179053275Y-71923968D01*
X179053276Y-71923966D01*
X179057115Y-71917738D01*
X179084584Y-71834920D01*
X179110632Y-71756389D01*
X179110632Y-71756387D01*
X179112797Y-71749861D01*
X179114454Y-71733695D01*
X179122592Y-71654258D01*
X179123500Y-71645400D01*
X179123500Y-71266865D01*
X179143502Y-71198744D01*
X179160405Y-71177770D01*
X181394405Y-68943770D01*
X181456717Y-68909744D01*
X181527532Y-68914809D01*
X181584368Y-68957356D01*
X181609179Y-69023876D01*
X181609500Y-69032865D01*
X181609500Y-71402470D01*
X181589498Y-71470591D01*
X181535842Y-71517084D01*
X181523376Y-71521994D01*
X181514651Y-71524905D01*
X181471054Y-71539450D01*
X181320652Y-71632522D01*
X181315479Y-71637704D01*
X181312304Y-71640885D01*
X181195695Y-71757697D01*
X181191855Y-71763927D01*
X181191854Y-71763928D01*
X181127916Y-71867655D01*
X181102885Y-71908262D01*
X181047203Y-72076139D01*
X181036500Y-72180600D01*
X181036500Y-72708000D01*
X181016498Y-72776121D01*
X180962842Y-72822614D01*
X180910500Y-72834000D01*
X174217730Y-72834000D01*
X174149609Y-72813998D01*
X174103116Y-72760342D01*
X174098207Y-72747877D01*
X174045870Y-72591007D01*
X174045869Y-72591005D01*
X174043550Y-72584054D01*
X173950478Y-72433652D01*
X173825303Y-72308695D01*
X173790294Y-72287115D01*
X173680968Y-72219725D01*
X173680966Y-72219724D01*
X173674738Y-72215885D01*
X173590368Y-72187901D01*
X173513389Y-72162368D01*
X173513387Y-72162368D01*
X173506861Y-72160203D01*
X173500025Y-72159503D01*
X173500022Y-72159502D01*
X173456969Y-72155091D01*
X173402400Y-72149500D01*
X172763422Y-72149500D01*
X172695301Y-72129498D01*
X172648808Y-72075842D01*
X172638704Y-72005568D01*
X172668198Y-71940988D01*
X172674327Y-71934405D01*
X172966637Y-71642095D01*
X175207001Y-71642095D01*
X175207338Y-71648614D01*
X175217257Y-71744206D01*
X175220149Y-71757600D01*
X175271588Y-71911784D01*
X175277761Y-71924962D01*
X175363063Y-72062807D01*
X175372099Y-72074208D01*
X175486829Y-72188739D01*
X175498240Y-72197751D01*
X175636243Y-72282816D01*
X175649424Y-72288963D01*
X175803710Y-72340138D01*
X175817086Y-72343005D01*
X175911438Y-72352672D01*
X175917854Y-72353000D01*
X175942885Y-72353000D01*
X175958124Y-72348525D01*
X175959329Y-72347135D01*
X175961000Y-72339452D01*
X175961000Y-71392115D01*
X175956525Y-71376876D01*
X175955135Y-71375671D01*
X175947452Y-71374000D01*
X175225116Y-71374000D01*
X175209877Y-71378475D01*
X175208672Y-71379865D01*
X175207001Y-71387548D01*
X175207001Y-71642095D01*
X172966637Y-71642095D01*
X173002477Y-71606255D01*
X173010803Y-71598678D01*
X173017303Y-71594553D01*
X173026742Y-71584502D01*
X173064100Y-71544719D01*
X173066855Y-71541877D01*
X173086638Y-71522094D01*
X173089129Y-71518883D01*
X173096838Y-71509856D01*
X173121789Y-71483286D01*
X173127217Y-71477506D01*
X173137022Y-71459671D01*
X173147876Y-71443147D01*
X173155491Y-71433330D01*
X173155492Y-71433329D01*
X173160349Y-71427067D01*
X173177969Y-71386350D01*
X173183192Y-71375689D01*
X173200749Y-71343753D01*
X173200751Y-71343748D01*
X173204569Y-71336803D01*
X173206539Y-71329129D01*
X173206542Y-71329122D01*
X173209632Y-71317087D01*
X173216036Y-71298382D01*
X173220967Y-71286987D01*
X173224117Y-71279708D01*
X173228401Y-71252658D01*
X173231060Y-71235873D01*
X173233467Y-71224251D01*
X173235926Y-71214675D01*
X173244500Y-71181282D01*
X173244500Y-71160935D01*
X173246051Y-71141224D01*
X173247995Y-71128950D01*
X173249235Y-71121121D01*
X173245059Y-71076944D01*
X173244500Y-71065086D01*
X173244500Y-70847885D01*
X175207000Y-70847885D01*
X175211475Y-70863124D01*
X175212865Y-70864329D01*
X175220548Y-70866000D01*
X175942885Y-70866000D01*
X175958124Y-70861525D01*
X175959329Y-70860135D01*
X175961000Y-70852452D01*
X175961000Y-69905116D01*
X175956525Y-69889877D01*
X175955135Y-69888672D01*
X175947452Y-69887001D01*
X175917905Y-69887001D01*
X175911386Y-69887338D01*
X175815794Y-69897257D01*
X175802400Y-69900149D01*
X175648216Y-69951588D01*
X175635038Y-69957761D01*
X175497193Y-70043063D01*
X175485792Y-70052099D01*
X175371261Y-70166829D01*
X175362249Y-70178240D01*
X175277184Y-70316243D01*
X175271037Y-70329424D01*
X175219862Y-70483710D01*
X175216995Y-70497086D01*
X175207328Y-70591438D01*
X175207000Y-70597855D01*
X175207000Y-70847885D01*
X173244500Y-70847885D01*
X173244500Y-65107567D01*
X173264502Y-65039446D01*
X173294932Y-65006743D01*
X173322261Y-64986261D01*
X173409615Y-64869705D01*
X173460745Y-64733316D01*
X173467500Y-64671134D01*
X173467500Y-64667669D01*
X173751001Y-64667669D01*
X173751371Y-64674490D01*
X173756895Y-64725352D01*
X173760521Y-64740604D01*
X173805676Y-64861054D01*
X173814214Y-64876649D01*
X173890715Y-64978724D01*
X173903276Y-64991285D01*
X174005351Y-65067786D01*
X174020946Y-65076324D01*
X174141394Y-65121478D01*
X174156649Y-65125105D01*
X174207514Y-65130631D01*
X174214328Y-65131000D01*
X174336885Y-65131000D01*
X174352124Y-65126525D01*
X174353329Y-65125135D01*
X174355000Y-65117452D01*
X174355000Y-65112884D01*
X174863000Y-65112884D01*
X174867475Y-65128123D01*
X174868865Y-65129328D01*
X174876548Y-65130999D01*
X175003669Y-65130999D01*
X175010490Y-65130629D01*
X175061352Y-65125105D01*
X175076604Y-65121479D01*
X175197054Y-65076324D01*
X175212649Y-65067786D01*
X175314724Y-64991285D01*
X175327285Y-64978724D01*
X175403786Y-64876649D01*
X175412324Y-64861054D01*
X175457478Y-64740606D01*
X175461105Y-64725351D01*
X175466631Y-64674486D01*
X175467000Y-64667672D01*
X175467000Y-64395115D01*
X175462525Y-64379876D01*
X175461135Y-64378671D01*
X175453452Y-64377000D01*
X174881115Y-64377000D01*
X174865876Y-64381475D01*
X174864671Y-64382865D01*
X174863000Y-64390548D01*
X174863000Y-65112884D01*
X174355000Y-65112884D01*
X174355000Y-64395115D01*
X174350525Y-64379876D01*
X174349135Y-64378671D01*
X174341452Y-64377000D01*
X173769116Y-64377000D01*
X173753877Y-64381475D01*
X173752672Y-64382865D01*
X173751001Y-64390548D01*
X173751001Y-64667669D01*
X173467500Y-64667669D01*
X173467500Y-63974866D01*
X173460745Y-63912684D01*
X173409615Y-63776295D01*
X173322261Y-63659739D01*
X173205705Y-63572385D01*
X173069316Y-63521255D01*
X173007134Y-63514500D01*
X172210866Y-63514500D01*
X172148684Y-63521255D01*
X172012295Y-63572385D01*
X171895739Y-63659739D01*
X171808385Y-63776295D01*
X171757255Y-63912684D01*
X171750500Y-63974866D01*
X171750500Y-64671134D01*
X171757255Y-64733316D01*
X171808385Y-64869705D01*
X171895739Y-64986261D01*
X171923067Y-65006742D01*
X171965580Y-65063601D01*
X171973500Y-65107567D01*
X171973500Y-65866577D01*
X171953498Y-65934698D01*
X171899842Y-65981191D01*
X171829568Y-65991295D01*
X171764988Y-65961801D01*
X171753869Y-65950893D01*
X171680253Y-65869134D01*
X171581157Y-65797136D01*
X171531094Y-65760763D01*
X171531093Y-65760762D01*
X171525752Y-65756882D01*
X171519724Y-65754198D01*
X171519722Y-65754197D01*
X171357319Y-65681891D01*
X171357318Y-65681891D01*
X171351288Y-65679206D01*
X171257887Y-65659353D01*
X171170944Y-65640872D01*
X171170939Y-65640872D01*
X171164487Y-65639500D01*
X171111424Y-65639500D01*
X171043303Y-65619498D01*
X171022329Y-65602596D01*
X170999713Y-65579980D01*
X170962885Y-65543153D01*
X170928861Y-65480842D01*
X170933925Y-65410027D01*
X170976471Y-65353190D01*
X170985678Y-65346914D01*
X171098120Y-65277332D01*
X171104348Y-65273478D01*
X171229305Y-65148303D01*
X171239971Y-65131000D01*
X171318275Y-65003968D01*
X171318276Y-65003966D01*
X171322115Y-64997738D01*
X171362278Y-64876649D01*
X171375632Y-64836389D01*
X171375632Y-64836387D01*
X171377797Y-64829861D01*
X171388500Y-64725400D01*
X171388500Y-64099600D01*
X171387926Y-64094068D01*
X171378238Y-64000692D01*
X171378237Y-64000688D01*
X171377526Y-63993834D01*
X171371798Y-63976663D01*
X171323868Y-63833002D01*
X171321550Y-63826054D01*
X171228478Y-63675652D01*
X171141891Y-63589216D01*
X171107812Y-63526934D01*
X171112815Y-63456114D01*
X171141736Y-63411025D01*
X171224134Y-63328483D01*
X171229305Y-63323303D01*
X171252656Y-63285421D01*
X171318275Y-63178968D01*
X171318276Y-63178966D01*
X171322115Y-63172738D01*
X171340326Y-63117833D01*
X171380756Y-63059473D01*
X171446320Y-63032236D01*
X171459919Y-63031500D01*
X171791671Y-63031500D01*
X171859792Y-63051502D01*
X171883332Y-63073407D01*
X171884008Y-63072731D01*
X171890358Y-63079081D01*
X171895739Y-63086261D01*
X172012295Y-63173615D01*
X172148684Y-63224745D01*
X172210866Y-63231500D01*
X173007134Y-63231500D01*
X173069316Y-63224745D01*
X173205705Y-63173615D01*
X173322261Y-63086261D01*
X173409615Y-62969705D01*
X173460745Y-62833316D01*
X173467500Y-62771134D01*
X173467500Y-62074866D01*
X173460745Y-62012684D01*
X173409615Y-61876295D01*
X173322261Y-61759739D01*
X173267935Y-61719024D01*
X173225420Y-61662165D01*
X173217500Y-61618198D01*
X173217500Y-60747124D01*
X173234381Y-60684124D01*
X173236322Y-60680763D01*
X173282543Y-60600705D01*
X173333925Y-60551712D01*
X173403639Y-60538276D01*
X173469550Y-60564662D01*
G37*
G04 #@! TD.AperFunction*
G04 #@! TA.AperFunction,Conductor*
G36*
X193973032Y-55373904D02*
G01*
X194018095Y-55402865D01*
X194469678Y-55854448D01*
X194486566Y-55868026D01*
X194518424Y-55893641D01*
X194517081Y-55895312D01*
X194537607Y-55915751D01*
X194539616Y-55914136D01*
X194576629Y-55960171D01*
X194581184Y-55965248D01*
X194614809Y-55998873D01*
X194628753Y-56006487D01*
X194630586Y-56006356D01*
X194648594Y-55994783D01*
X194649268Y-55995831D01*
X194698819Y-55968773D01*
X194743464Y-55967167D01*
X194795206Y-55974577D01*
X194895749Y-55960178D01*
X194966017Y-55970320D01*
X195019647Y-56016843D01*
X195039611Y-56084975D01*
X195038338Y-56102767D01*
X195023939Y-56203311D01*
X195031350Y-56255057D01*
X195021206Y-56325322D01*
X195004048Y-56350019D01*
X194992031Y-56372027D01*
X194992162Y-56373860D01*
X194996413Y-56380475D01*
X195033265Y-56417327D01*
X195038348Y-56421888D01*
X195084381Y-56458901D01*
X195082693Y-56461001D01*
X195103174Y-56481460D01*
X195104875Y-56480093D01*
X195144068Y-56528839D01*
X195601048Y-56985819D01*
X195613834Y-56996099D01*
X195649794Y-57025012D01*
X195648262Y-57026918D01*
X195668653Y-57047312D01*
X195670561Y-57045778D01*
X195709754Y-57094524D01*
X196166734Y-57551504D01*
X196169396Y-57553644D01*
X196215480Y-57590697D01*
X196213946Y-57592605D01*
X196234340Y-57612996D01*
X196236246Y-57611464D01*
X196275439Y-57660210D01*
X196531153Y-57915924D01*
X196565179Y-57978236D01*
X196560114Y-58049051D01*
X196531153Y-58094114D01*
X196348381Y-58276886D01*
X196286069Y-58310912D01*
X196233089Y-58311038D01*
X196062944Y-58274872D01*
X196062939Y-58274872D01*
X196056487Y-58273500D01*
X195865513Y-58273500D01*
X195859061Y-58274872D01*
X195859056Y-58274872D01*
X195773773Y-58293000D01*
X195678712Y-58313206D01*
X195672682Y-58315891D01*
X195672681Y-58315891D01*
X195510278Y-58388197D01*
X195510276Y-58388198D01*
X195504248Y-58390882D01*
X195349747Y-58503134D01*
X195345326Y-58508044D01*
X195345325Y-58508045D01*
X195255052Y-58608304D01*
X195221960Y-58645056D01*
X195187516Y-58704715D01*
X195131135Y-58802370D01*
X195126473Y-58810444D01*
X195067458Y-58992072D01*
X195066768Y-58998633D01*
X195066768Y-58998635D01*
X195049401Y-59163872D01*
X195047496Y-59182000D01*
X195048186Y-59188565D01*
X195063875Y-59337834D01*
X195067458Y-59371928D01*
X195126473Y-59553556D01*
X195221960Y-59718944D01*
X195226378Y-59723851D01*
X195226379Y-59723852D01*
X195253589Y-59754072D01*
X195349747Y-59860866D01*
X195420398Y-59912197D01*
X195487626Y-59961041D01*
X195504248Y-59973118D01*
X195510276Y-59975802D01*
X195510278Y-59975803D01*
X195672681Y-60048109D01*
X195678712Y-60050794D01*
X195742888Y-60064435D01*
X195859056Y-60089128D01*
X195859061Y-60089128D01*
X195865513Y-60090500D01*
X196056487Y-60090500D01*
X196062939Y-60089128D01*
X196062944Y-60089128D01*
X196179112Y-60064435D01*
X196243288Y-60050794D01*
X196249319Y-60048109D01*
X196411722Y-59975803D01*
X196411724Y-59975802D01*
X196417752Y-59973118D01*
X196434375Y-59961041D01*
X196501602Y-59912197D01*
X196572253Y-59860866D01*
X196700040Y-59718944D01*
X196700322Y-59719198D01*
X196722820Y-59698717D01*
X196721510Y-59697028D01*
X196727771Y-59692172D01*
X196734598Y-59688134D01*
X196748982Y-59673750D01*
X196764016Y-59660909D01*
X196774073Y-59653602D01*
X196780487Y-59648942D01*
X196808773Y-59614750D01*
X196816763Y-59605970D01*
X197429886Y-58992847D01*
X197492198Y-58958821D01*
X197563013Y-58963886D01*
X197608076Y-58992847D01*
X197863790Y-59248561D01*
X197866452Y-59250701D01*
X197912536Y-59287754D01*
X197910999Y-59289666D01*
X197931390Y-59310057D01*
X197933302Y-59308519D01*
X197941956Y-59319282D01*
X197969054Y-59384904D01*
X197969761Y-59398236D01*
X197969761Y-59636327D01*
X197945808Y-59710050D01*
X197942087Y-59714183D01*
X197938785Y-59719902D01*
X197938783Y-59719905D01*
X197852215Y-59869846D01*
X197846600Y-59879571D01*
X197787585Y-60061199D01*
X197786895Y-60067760D01*
X197786895Y-60067762D01*
X197773435Y-60195828D01*
X197767623Y-60251127D01*
X197768313Y-60257692D01*
X197781819Y-60386190D01*
X197787585Y-60441055D01*
X197846600Y-60622683D01*
X197942087Y-60788071D01*
X197946505Y-60792978D01*
X197946506Y-60792979D01*
X198065452Y-60925082D01*
X198069874Y-60929993D01*
X198224375Y-61042245D01*
X198230403Y-61044929D01*
X198230405Y-61044930D01*
X198347045Y-61096861D01*
X198398839Y-61119921D01*
X198489247Y-61139138D01*
X198579183Y-61158255D01*
X198579188Y-61158255D01*
X198585640Y-61159627D01*
X198776614Y-61159627D01*
X198783066Y-61158255D01*
X198783071Y-61158255D01*
X198873007Y-61139138D01*
X198963415Y-61119921D01*
X199015209Y-61096861D01*
X199131849Y-61044930D01*
X199131851Y-61044929D01*
X199137879Y-61042245D01*
X199292380Y-60929993D01*
X199323668Y-60895244D01*
X199384111Y-60858006D01*
X199455095Y-60859357D01*
X199506397Y-60890460D01*
X199558760Y-60942822D01*
X199563823Y-60947364D01*
X199609864Y-60984384D01*
X199608149Y-60986517D01*
X199628645Y-61006954D01*
X199630359Y-61005576D01*
X199669552Y-61054322D01*
X200121135Y-61505905D01*
X200155161Y-61568217D01*
X200150096Y-61639032D01*
X200121135Y-61684095D01*
X199669552Y-62135678D01*
X199630359Y-62184424D01*
X199628451Y-62182890D01*
X199608060Y-62203284D01*
X199609592Y-62205190D01*
X199560846Y-62244383D01*
X199103866Y-62701363D01*
X199064673Y-62750109D01*
X199062771Y-62748580D01*
X199042378Y-62768973D01*
X199043907Y-62770875D01*
X198995161Y-62810068D01*
X198600433Y-63204796D01*
X198538121Y-63238822D01*
X198467306Y-63233757D01*
X198410470Y-63191210D01*
X198402219Y-63178701D01*
X198401103Y-63176767D01*
X198351040Y-63090056D01*
X198316746Y-63051968D01*
X198227675Y-62953045D01*
X198227674Y-62953044D01*
X198223253Y-62948134D01*
X198088211Y-62850020D01*
X198074094Y-62839763D01*
X198074093Y-62839762D01*
X198068752Y-62835882D01*
X198062724Y-62833198D01*
X198062722Y-62833197D01*
X197900319Y-62760891D01*
X197900318Y-62760891D01*
X197894288Y-62758206D01*
X197800887Y-62738353D01*
X197713944Y-62719872D01*
X197713939Y-62719872D01*
X197707487Y-62718500D01*
X197516513Y-62718500D01*
X197510061Y-62719872D01*
X197510056Y-62719872D01*
X197423113Y-62738353D01*
X197329712Y-62758206D01*
X197323682Y-62760891D01*
X197323681Y-62760891D01*
X197161278Y-62833197D01*
X197161276Y-62833198D01*
X197155248Y-62835882D01*
X197149907Y-62839762D01*
X197149906Y-62839763D01*
X197135789Y-62850020D01*
X197000747Y-62948134D01*
X196996326Y-62953044D01*
X196996325Y-62953045D01*
X196907255Y-63051968D01*
X196872960Y-63090056D01*
X196828681Y-63166749D01*
X196782926Y-63246000D01*
X196777473Y-63255444D01*
X196718458Y-63437072D01*
X196717768Y-63443633D01*
X196717768Y-63443635D01*
X196714938Y-63470566D01*
X196704568Y-63569233D01*
X196701425Y-63599133D01*
X196674412Y-63664790D01*
X196665210Y-63675058D01*
X194892557Y-65447710D01*
X194830245Y-65481736D01*
X194759429Y-65476671D01*
X194702594Y-65434124D01*
X194694350Y-65421626D01*
X194668040Y-65376056D01*
X194659990Y-65367115D01*
X194544675Y-65239045D01*
X194544674Y-65239044D01*
X194540253Y-65234134D01*
X194419605Y-65146478D01*
X194391094Y-65125763D01*
X194391093Y-65125762D01*
X194385752Y-65121882D01*
X194379724Y-65119198D01*
X194379722Y-65119197D01*
X194217319Y-65046891D01*
X194217318Y-65046891D01*
X194211288Y-65044206D01*
X194108455Y-65022348D01*
X194030944Y-65005872D01*
X194030939Y-65005872D01*
X194024487Y-65004500D01*
X193971423Y-65004500D01*
X193903302Y-64984498D01*
X193882327Y-64967595D01*
X193504019Y-64589286D01*
X193095450Y-64180717D01*
X193087880Y-64172398D01*
X193083758Y-64165902D01*
X193033939Y-64119119D01*
X193031098Y-64116365D01*
X193011299Y-64096566D01*
X193008174Y-64094142D01*
X193008165Y-64094134D01*
X193008079Y-64094068D01*
X192999054Y-64086360D01*
X192972490Y-64061415D01*
X192966711Y-64055988D01*
X192948874Y-64046182D01*
X192932358Y-64035332D01*
X192916272Y-64022855D01*
X192875539Y-64005229D01*
X192864891Y-64000012D01*
X192841760Y-63987296D01*
X192826008Y-63978636D01*
X192818333Y-63976665D01*
X192818327Y-63976663D01*
X192806294Y-63973574D01*
X192787592Y-63967171D01*
X192768913Y-63959088D01*
X192735077Y-63953729D01*
X192725078Y-63952145D01*
X192713465Y-63949740D01*
X192670487Y-63938705D01*
X192650140Y-63938705D01*
X192630429Y-63937154D01*
X192618155Y-63935210D01*
X192610326Y-63933970D01*
X192602434Y-63934716D01*
X192566149Y-63938146D01*
X192554291Y-63938705D01*
X190035182Y-63938705D01*
X189967061Y-63918703D01*
X189956230Y-63910902D01*
X189945464Y-63902246D01*
X189946830Y-63900548D01*
X189926361Y-63880072D01*
X189924271Y-63881752D01*
X189887258Y-63835717D01*
X189882703Y-63830640D01*
X189849078Y-63797015D01*
X189835134Y-63789401D01*
X189833301Y-63789532D01*
X189815293Y-63801105D01*
X189814619Y-63800057D01*
X189765069Y-63827114D01*
X189720424Y-63828720D01*
X189677571Y-63822583D01*
X189668682Y-63821310D01*
X189568138Y-63835709D01*
X189497870Y-63825567D01*
X189444240Y-63779044D01*
X189424276Y-63710912D01*
X189425549Y-63693120D01*
X189438675Y-63601465D01*
X189439948Y-63592576D01*
X189432538Y-63540834D01*
X189442681Y-63470566D01*
X189459839Y-63445869D01*
X189471856Y-63423861D01*
X189471725Y-63422028D01*
X189467474Y-63415413D01*
X189430622Y-63378561D01*
X189425539Y-63374000D01*
X189387849Y-63343695D01*
X189347294Y-63285421D01*
X189344683Y-63214473D01*
X189380844Y-63153375D01*
X189444296Y-63121526D01*
X189466803Y-63119500D01*
X189920601Y-63119500D01*
X189988722Y-63139502D01*
X190005908Y-63154109D01*
X190006420Y-63153540D01*
X190011332Y-63157963D01*
X190015747Y-63162866D01*
X190021968Y-63167386D01*
X190161229Y-63268565D01*
X190170248Y-63275118D01*
X190176276Y-63277802D01*
X190176278Y-63277803D01*
X190338681Y-63350109D01*
X190344712Y-63352794D01*
X190438112Y-63372647D01*
X190525056Y-63391128D01*
X190525061Y-63391128D01*
X190531513Y-63392500D01*
X190722487Y-63392500D01*
X190728939Y-63391128D01*
X190728944Y-63391128D01*
X190815888Y-63372647D01*
X190909288Y-63352794D01*
X190915319Y-63350109D01*
X191077722Y-63277803D01*
X191077724Y-63277802D01*
X191083752Y-63275118D01*
X191092772Y-63268565D01*
X191177884Y-63206727D01*
X191238253Y-63162866D01*
X191265182Y-63132958D01*
X191361621Y-63025852D01*
X191361622Y-63025851D01*
X191366040Y-63020944D01*
X191452598Y-62871022D01*
X191458223Y-62861279D01*
X191458224Y-62861278D01*
X191461527Y-62855556D01*
X191520542Y-62673928D01*
X191525354Y-62628150D01*
X191539814Y-62490565D01*
X191540504Y-62484000D01*
X191532558Y-62408395D01*
X191521232Y-62300635D01*
X191521232Y-62300633D01*
X191520542Y-62294072D01*
X191461527Y-62112444D01*
X191366040Y-61947056D01*
X191334061Y-61911539D01*
X191242675Y-61810045D01*
X191242674Y-61810044D01*
X191238253Y-61805134D01*
X191083752Y-61692882D01*
X191077724Y-61690198D01*
X191077722Y-61690197D01*
X190915319Y-61617891D01*
X190915318Y-61617891D01*
X190909288Y-61615206D01*
X190796467Y-61591225D01*
X190728944Y-61576872D01*
X190728939Y-61576872D01*
X190722487Y-61575500D01*
X190531513Y-61575500D01*
X190525061Y-61576872D01*
X190525056Y-61576872D01*
X190457533Y-61591225D01*
X190344712Y-61615206D01*
X190338682Y-61617891D01*
X190338681Y-61617891D01*
X190176278Y-61690197D01*
X190176276Y-61690198D01*
X190170248Y-61692882D01*
X190164907Y-61696762D01*
X190164906Y-61696763D01*
X190125085Y-61725695D01*
X190015747Y-61805134D01*
X190011332Y-61810037D01*
X190006420Y-61814460D01*
X190004779Y-61812638D01*
X189953790Y-61844050D01*
X189920601Y-61848500D01*
X188593537Y-61848500D01*
X188582303Y-61847970D01*
X188574798Y-61846292D01*
X188507088Y-61848420D01*
X188506505Y-61848438D01*
X188502548Y-61848500D01*
X188474534Y-61848500D01*
X188470609Y-61848996D01*
X188470608Y-61848996D01*
X188470513Y-61849008D01*
X188458668Y-61849941D01*
X188428847Y-61850878D01*
X188422235Y-61851086D01*
X188422234Y-61851086D01*
X188414312Y-61851335D01*
X188394769Y-61857013D01*
X188375417Y-61861021D01*
X188372854Y-61861345D01*
X188302763Y-61850044D01*
X188249908Y-61802643D01*
X188231070Y-61734192D01*
X188252231Y-61666422D01*
X188267957Y-61647245D01*
X190777587Y-59137615D01*
X190785913Y-59130038D01*
X190792413Y-59125913D01*
X190804304Y-59113251D01*
X190839210Y-59076079D01*
X190841965Y-59073237D01*
X190861748Y-59053454D01*
X190864239Y-59050243D01*
X190871948Y-59041216D01*
X190877316Y-59035500D01*
X190902327Y-59008866D01*
X190908459Y-58997712D01*
X190912132Y-58991031D01*
X190922986Y-58974507D01*
X190930601Y-58964690D01*
X190930602Y-58964689D01*
X190935459Y-58958427D01*
X190953079Y-58917710D01*
X190958302Y-58907049D01*
X190975859Y-58875113D01*
X190975861Y-58875108D01*
X190979679Y-58868163D01*
X190981649Y-58860489D01*
X190981652Y-58860482D01*
X190984742Y-58848447D01*
X190991146Y-58829742D01*
X190996077Y-58818347D01*
X190999227Y-58811068D01*
X191006170Y-58767233D01*
X191008577Y-58755611D01*
X191010134Y-58749548D01*
X191019610Y-58712642D01*
X191019610Y-58692295D01*
X191021161Y-58672584D01*
X191023105Y-58660310D01*
X191024345Y-58652481D01*
X191020169Y-58608304D01*
X191019610Y-58596446D01*
X191019610Y-58266865D01*
X191039612Y-58198744D01*
X191047415Y-58187911D01*
X191056069Y-58177148D01*
X191057759Y-58178507D01*
X191078224Y-58158022D01*
X191076563Y-58155957D01*
X191122598Y-58118944D01*
X191127675Y-58114389D01*
X191161300Y-58080764D01*
X191168914Y-58066820D01*
X191168783Y-58064987D01*
X191157210Y-58046979D01*
X191158258Y-58046305D01*
X191131200Y-57996754D01*
X191129594Y-57952109D01*
X191135731Y-57909256D01*
X191137004Y-57900367D01*
X191122605Y-57799823D01*
X191132747Y-57729555D01*
X191179270Y-57675925D01*
X191247402Y-57655961D01*
X191265194Y-57657234D01*
X191365738Y-57671633D01*
X191374627Y-57670360D01*
X191417480Y-57664223D01*
X191487748Y-57674366D01*
X191512448Y-57691526D01*
X191534454Y-57703542D01*
X191536287Y-57703411D01*
X191542902Y-57699160D01*
X191579754Y-57662308D01*
X191584315Y-57657225D01*
X191621328Y-57611192D01*
X191623461Y-57612907D01*
X191643898Y-57592411D01*
X191642520Y-57590697D01*
X191688604Y-57553644D01*
X191691266Y-57551504D01*
X192148246Y-57094524D01*
X192187439Y-57045778D01*
X192189347Y-57047312D01*
X192209738Y-57026918D01*
X192208206Y-57025012D01*
X192244166Y-56996099D01*
X192256952Y-56985819D01*
X192713932Y-56528839D01*
X192753125Y-56480093D01*
X192755027Y-56481622D01*
X192775420Y-56461229D01*
X192773891Y-56459327D01*
X192819356Y-56422772D01*
X192822637Y-56420134D01*
X193279617Y-55963154D01*
X193318810Y-55914408D01*
X193320716Y-55915940D01*
X193341110Y-55895549D01*
X193339576Y-55893641D01*
X193371434Y-55868026D01*
X193388322Y-55854448D01*
X193839905Y-55402865D01*
X193902217Y-55368839D01*
X193973032Y-55373904D01*
G37*
G04 #@! TD.AperFunction*
G04 #@! TD*
M02*
