M48
; DRILL file {KiCad (6.0.5)} date Sun Jan  8 23:58:10 2023
; FORMAT={-:-/ absolute / inch / decimal}
; #@! TF.CreationDate,2023-01-08T23:58:10-05:00
; #@! TF.GenerationSoftware,Kicad,Pcbnew,(6.0.5)
; #@! TF.FileFunction,Plated,1,2,PTH
FMAT,2
INCH
; #@! TA.AperFunction,Plated,PTH,ViaDrill
T1C0.0157
; #@! TA.AperFunction,Plated,PTH,ComponentDrill
T2C0.0236
; #@! TA.AperFunction,Plated,PTH,ComponentDrill
T3C0.0394
; #@! TA.AperFunction,Plated,PTH,ComponentDrill
T4C0.0409
; #@! TA.AperFunction,Plated,PTH,ComponentDrill
T5C0.0579
; #@! TA.AperFunction,Plated,PTH,ComponentDrill
T6C0.1024
%
G90
G05
T1
X6.45Y-2.415
X6.7Y-2.74
X6.73Y-2.39
X6.735Y-2.62
X6.79Y-2.37
X6.86Y-2.365
X6.95Y-2.36
X6.99Y-2.595
X7.06Y-2.475
X7.125Y-2.16
X7.22Y-2.56
X7.225Y-2.375
X7.235Y-2.745
X7.295Y-2.66
X7.34Y-2.745
X7.445Y-2.08
X7.45Y-2.17
X7.49Y-2.09
X7.505Y-2.46
X7.575Y-2.5805
X7.635Y-2.595
X7.67Y-2.76
X7.715Y-2.33
X7.78Y-2.505
X7.795Y-2.675
X7.8221Y-2.3721
X7.8277Y-2.6532
X7.8387Y-2.2362
X7.885Y-2.625
X7.8897Y-2.2837
X7.925Y-2.595
X7.96Y-2.355
X8.03Y-2.42
X8.04Y-3.405
X8.075Y-3.77
X8.19Y-2.805
X8.22Y-3.015
X8.225Y-2.72
X8.26Y-3.09
X8.275Y-2.84
X8.6Y-2.885
X8.72Y-4.9
X8.78Y-2.865
T3
X8.7346Y-2.4566
X8.7346Y-2.555
X8.7346Y-2.6534
X9.3054Y-2.4566
X9.3054Y-2.6534
T4
X6.7625Y-3.575
X6.7625Y-4.325
X6.7625Y-5.075
X6.8625Y-3.575
X6.8625Y-4.325
X6.8625Y-5.075
X7.1375Y-5.825
X7.2375Y-5.825
X7.5125Y-3.575
X7.5125Y-4.325
X7.5125Y-5.075
X7.6125Y-3.575
X7.6125Y-4.325
X7.6125Y-5.075
X8.2625Y-3.575
X8.2625Y-4.325
X8.2625Y-5.075
X8.2625Y-5.825
X8.3625Y-3.575
X8.3625Y-4.325
X8.3625Y-5.075
X8.3625Y-5.825
X9.2625Y-3.7
X9.2625Y-3.8
X9.2625Y-5.2
X9.2625Y-5.3
T5
X6.6625Y-3.275
X6.6625Y-4.025
X6.6625Y-4.775
X6.7141Y-3.2175
X6.7141Y-3.9675
X6.7141Y-4.7175
X6.9109Y-3.1978
X6.9109Y-3.9478
X6.9109Y-4.6978
X6.9125Y-3.175
X6.9125Y-3.925
X6.9125Y-4.675
X7.0375Y-5.525
X7.0891Y-5.4675
X7.2859Y-5.4478
X7.2875Y-5.425
X7.4125Y-3.275
X7.4125Y-4.025
X7.4125Y-4.775
X7.4641Y-3.2175
X7.4641Y-3.9675
X7.4641Y-4.7175
X7.6609Y-3.1978
X7.6609Y-3.9478
X7.6609Y-4.6978
X7.6625Y-3.175
X7.6625Y-3.925
X7.6625Y-4.675
X8.1625Y-3.275
X8.1625Y-4.025
X8.1625Y-4.775
X8.1625Y-5.525
X8.2141Y-3.2175
X8.2141Y-3.9675
X8.2141Y-4.7175
X8.2141Y-5.4675
X8.4109Y-3.1978
X8.4109Y-3.9478
X8.4109Y-4.6978
X8.4109Y-5.4478
X8.4125Y-3.175
X8.4125Y-3.925
X8.4125Y-4.675
X8.4125Y-5.425
X8.8625Y-3.65
X8.8625Y-5.15
X8.8853Y-3.6516
X8.8853Y-5.1516
X8.905Y-3.8484
X8.905Y-5.3484
X8.9625Y-3.9
X8.9625Y-5.4
T6
X9.0298Y-2.3345
X9.0298Y-2.7755
T2
G00X6.6251Y-2.0079
M15
G01X6.6251Y-2.0315
M16
G05
G00X6.6251Y-2.1626
M15
G01X6.6251Y-2.2059
M16
G05
G00X6.9652Y-2.0079
M15
G01X6.9652Y-2.0315
M16
G05
G00X6.9652Y-2.1626
M15
G01X6.9652Y-2.2059
M16
G05
T0
M30
