M48
; DRILL file {KiCad (6.0.5)} date Sun Jan  8 23:58:10 2023
; FORMAT={-:-/ absolute / inch / decimal}
; #@! TF.CreationDate,2023-01-08T23:58:10-05:00
; #@! TF.GenerationSoftware,Kicad,Pcbnew,(6.0.5)
; #@! TF.FileFunction,NonPlated,1,2,NPTH
FMAT,2
INCH
; #@! TA.AperFunction,NonPlated,NPTH,ComponentDrill
T1C0.0256
; #@! TA.AperFunction,NonPlated,NPTH,ComponentDrill
T2C0.0689
; #@! TA.AperFunction,NonPlated,NPTH,ComponentDrill
T3C0.1200
; #@! TA.AperFunction,NonPlated,NPTH,ComponentDrill
T4C0.1570
%
G90
G05
T1
X6.6814Y-2.1634
X6.9089Y-2.1634
T2
X6.6125Y-3.375
X6.6125Y-4.125
X6.6125Y-4.875
X6.9875Y-5.625
X7.0125Y-3.375
X7.0125Y-4.125
X7.0125Y-4.875
X7.3625Y-3.375
X7.3625Y-4.125
X7.3625Y-4.875
X7.3875Y-5.625
X7.7625Y-3.375
X7.7625Y-4.125
X7.7625Y-4.875
X8.1125Y-3.375
X8.1125Y-4.125
X8.1125Y-4.875
X8.1125Y-5.625
X8.5125Y-3.375
X8.5125Y-4.125
X8.5125Y-4.875
X8.5125Y-5.625
X9.0625Y-3.55
X9.0625Y-3.95
X9.0625Y-5.05
X9.0625Y-5.45
T3
X6.7175Y-5.35
X7.6575Y-5.35
X8.7875Y-3.28
X8.7875Y-4.22
X8.7875Y-4.78
X8.7875Y-5.72
T4
X6.7175Y-5.95
X6.8125Y-3.375
X6.8125Y-4.125
X6.8125Y-4.875
X7.1875Y-5.625
X7.5625Y-3.375
X7.5625Y-4.125
X7.5625Y-4.875
X7.6575Y-5.95
X8.3125Y-3.375
X8.3125Y-4.125
X8.3125Y-4.875
X8.3125Y-5.625
X9.0625Y-3.75
X9.0625Y-5.25
X9.3875Y-3.28
X9.3875Y-4.22
X9.3875Y-4.78
X9.3875Y-5.72
T0
M30
