G04 #@! TF.GenerationSoftware,KiCad,Pcbnew,(6.0.5)*
G04 #@! TF.CreationDate,2023-01-08T23:57:36-05:00*
G04 #@! TF.ProjectId,macro-pad-pcb,6d616372-6f2d-4706-9164-2d7063622e6b,rev?*
G04 #@! TF.SameCoordinates,Original*
G04 #@! TF.FileFunction,Legend,Top*
G04 #@! TF.FilePolarity,Positive*
%FSLAX46Y46*%
G04 Gerber Fmt 4.6, Leading zero omitted, Abs format (unit mm)*
G04 Created by KiCad (PCBNEW (6.0.5)) date 2023-01-08 23:57:36*
%MOMM*%
%LPD*%
G01*
G04 APERTURE LIST*
G04 Aperture macros list*
%AMRoundRect*
0 Rectangle with rounded corners*
0 $1 Rounding radius*
0 $2 $3 $4 $5 $6 $7 $8 $9 X,Y pos of 4 corners*
0 Add a 4 corners polygon primitive as box body*
4,1,4,$2,$3,$4,$5,$6,$7,$8,$9,$2,$3,0*
0 Add four circle primitives for the rounded corners*
1,1,$1+$1,$2,$3*
1,1,$1+$1,$4,$5*
1,1,$1+$1,$6,$7*
1,1,$1+$1,$8,$9*
0 Add four rect primitives between the rounded corners*
20,1,$1+$1,$2,$3,$4,$5,0*
20,1,$1+$1,$4,$5,$6,$7,0*
20,1,$1+$1,$6,$7,$8,$9,0*
20,1,$1+$1,$8,$9,$2,$3,0*%
%AMRotRect*
0 Rectangle, with rotation*
0 The origin of the aperture is its center*
0 $1 length*
0 $2 width*
0 $3 Rotation angle, in degrees counterclockwise*
0 Add horizontal line*
21,1,$1,$2,0,0,$3*%
G04 Aperture macros list end*
%ADD10C,0.150000*%
%ADD11C,0.120000*%
%ADD12C,3.987800*%
%ADD13C,1.750000*%
%ADD14C,3.048000*%
%ADD15RoundRect,0.250000X-0.450000X0.262500X-0.450000X-0.262500X0.450000X-0.262500X0.450000X0.262500X0*%
%ADD16RotRect,1.500000X0.550000X45.000000*%
%ADD17RotRect,1.500000X0.550000X315.000000*%
%ADD18RoundRect,0.250000X0.262500X0.450000X-0.262500X0.450000X-0.262500X-0.450000X0.262500X-0.450000X0*%
%ADD19RoundRect,0.250000X0.475000X-0.250000X0.475000X0.250000X-0.475000X0.250000X-0.475000X-0.250000X0*%
%ADD20RoundRect,0.250000X-0.475000X0.250000X-0.475000X-0.250000X0.475000X-0.250000X0.475000X0.250000X0*%
%ADD21RoundRect,0.250000X-0.250000X-0.475000X0.250000X-0.475000X0.250000X0.475000X-0.250000X0.475000X0*%
%ADD22C,2.000000*%
%ADD23C,3.200000*%
%ADD24R,2.000000X2.000000*%
%ADD25RoundRect,0.250000X-0.262500X-0.450000X0.262500X-0.450000X0.262500X0.450000X-0.262500X0.450000X0*%
%ADD26R,0.700000X0.600000*%
%ADD27R,0.700000X1.000000*%
%ADD28R,2.100000X1.800000*%
%ADD29R,1.100000X1.800000*%
%ADD30RoundRect,0.250000X-0.375000X-0.625000X0.375000X-0.625000X0.375000X0.625000X-0.375000X0.625000X0*%
%ADD31O,1.000000X2.100000*%
%ADD32O,1.000000X1.600000*%
%ADD33C,0.650000*%
G04 APERTURE END LIST*
D10*
X205923511Y-52839880D02*
X205923511Y-52173214D01*
X205923511Y-52268452D02*
X205971130Y-52220833D01*
X206066369Y-52173214D01*
X206209226Y-52173214D01*
X206304464Y-52220833D01*
X206352083Y-52316071D01*
X206352083Y-52839880D01*
X206352083Y-52316071D02*
X206399702Y-52220833D01*
X206494940Y-52173214D01*
X206637797Y-52173214D01*
X206733035Y-52220833D01*
X206780654Y-52316071D01*
X206780654Y-52839880D01*
X207685416Y-52839880D02*
X207685416Y-52316071D01*
X207637797Y-52220833D01*
X207542559Y-52173214D01*
X207352083Y-52173214D01*
X207256845Y-52220833D01*
X207685416Y-52792261D02*
X207590178Y-52839880D01*
X207352083Y-52839880D01*
X207256845Y-52792261D01*
X207209226Y-52697023D01*
X207209226Y-52601785D01*
X207256845Y-52506547D01*
X207352083Y-52458928D01*
X207590178Y-52458928D01*
X207685416Y-52411309D01*
X208590178Y-52792261D02*
X208494940Y-52839880D01*
X208304464Y-52839880D01*
X208209226Y-52792261D01*
X208161607Y-52744642D01*
X208113988Y-52649404D01*
X208113988Y-52363690D01*
X208161607Y-52268452D01*
X208209226Y-52220833D01*
X208304464Y-52173214D01*
X208494940Y-52173214D01*
X208590178Y-52220833D01*
X209018750Y-52839880D02*
X209018750Y-52173214D01*
X209018750Y-52363690D02*
X209066369Y-52268452D01*
X209113988Y-52220833D01*
X209209226Y-52173214D01*
X209304464Y-52173214D01*
X209780654Y-52839880D02*
X209685416Y-52792261D01*
X209637797Y-52744642D01*
X209590178Y-52649404D01*
X209590178Y-52363690D01*
X209637797Y-52268452D01*
X209685416Y-52220833D01*
X209780654Y-52173214D01*
X209923511Y-52173214D01*
X210018750Y-52220833D01*
X210066369Y-52268452D01*
X210113988Y-52363690D01*
X210113988Y-52649404D01*
X210066369Y-52744642D01*
X210018750Y-52792261D01*
X209923511Y-52839880D01*
X209780654Y-52839880D01*
X210542559Y-52458928D02*
X211304464Y-52458928D01*
X211780654Y-52173214D02*
X211780654Y-53173214D01*
X211780654Y-52220833D02*
X211875892Y-52173214D01*
X212066369Y-52173214D01*
X212161607Y-52220833D01*
X212209226Y-52268452D01*
X212256845Y-52363690D01*
X212256845Y-52649404D01*
X212209226Y-52744642D01*
X212161607Y-52792261D01*
X212066369Y-52839880D01*
X211875892Y-52839880D01*
X211780654Y-52792261D01*
X213113988Y-52839880D02*
X213113988Y-52316071D01*
X213066369Y-52220833D01*
X212971130Y-52173214D01*
X212780654Y-52173214D01*
X212685416Y-52220833D01*
X213113988Y-52792261D02*
X213018750Y-52839880D01*
X212780654Y-52839880D01*
X212685416Y-52792261D01*
X212637797Y-52697023D01*
X212637797Y-52601785D01*
X212685416Y-52506547D01*
X212780654Y-52458928D01*
X213018750Y-52458928D01*
X213113988Y-52411309D01*
X214018750Y-52839880D02*
X214018750Y-51839880D01*
X214018750Y-52792261D02*
X213923511Y-52839880D01*
X213733035Y-52839880D01*
X213637797Y-52792261D01*
X213590178Y-52744642D01*
X213542559Y-52649404D01*
X213542559Y-52363690D01*
X213590178Y-52268452D01*
X213637797Y-52220833D01*
X213733035Y-52173214D01*
X213923511Y-52173214D01*
X214018750Y-52220833D01*
X214494940Y-52458928D02*
X215256845Y-52458928D01*
X215733035Y-52839880D02*
X215733035Y-52173214D01*
X215733035Y-52363690D02*
X215780654Y-52268452D01*
X215828273Y-52220833D01*
X215923511Y-52173214D01*
X216018750Y-52173214D01*
X216733035Y-52792261D02*
X216637797Y-52839880D01*
X216447321Y-52839880D01*
X216352083Y-52792261D01*
X216304464Y-52697023D01*
X216304464Y-52316071D01*
X216352083Y-52220833D01*
X216447321Y-52173214D01*
X216637797Y-52173214D01*
X216733035Y-52220833D01*
X216780654Y-52316071D01*
X216780654Y-52411309D01*
X216304464Y-52506547D01*
X217113988Y-52173214D02*
X217352083Y-52839880D01*
X217590178Y-52173214D01*
X217971130Y-52458928D02*
X218733035Y-52458928D01*
X219733035Y-52839880D02*
X219161607Y-52839880D01*
X219447321Y-52839880D02*
X219447321Y-51839880D01*
X219352083Y-51982738D01*
X219256845Y-52077976D01*
X219161607Y-52125595D01*
X220161607Y-52744642D02*
X220209226Y-52792261D01*
X220161607Y-52839880D01*
X220113988Y-52792261D01*
X220161607Y-52744642D01*
X220161607Y-52839880D01*
X220828273Y-51839880D02*
X220923511Y-51839880D01*
X221018750Y-51887500D01*
X221066369Y-51935119D01*
X221113988Y-52030357D01*
X221161607Y-52220833D01*
X221161607Y-52458928D01*
X221113988Y-52649404D01*
X221066369Y-52744642D01*
X221018750Y-52792261D01*
X220923511Y-52839880D01*
X220828273Y-52839880D01*
X220733035Y-52792261D01*
X220685416Y-52744642D01*
X220637797Y-52649404D01*
X220590178Y-52458928D01*
X220590178Y-52220833D01*
X220637797Y-52030357D01*
X220685416Y-51935119D01*
X220733035Y-51887500D01*
X220828273Y-51839880D01*
X224322321Y-52839880D02*
X224322321Y-51839880D01*
X224322321Y-52792261D02*
X224227083Y-52839880D01*
X224036607Y-52839880D01*
X223941369Y-52792261D01*
X223893750Y-52744642D01*
X223846130Y-52649404D01*
X223846130Y-52363690D01*
X223893750Y-52268452D01*
X223941369Y-52220833D01*
X224036607Y-52173214D01*
X224227083Y-52173214D01*
X224322321Y-52220833D01*
X225179464Y-52792261D02*
X225084226Y-52839880D01*
X224893750Y-52839880D01*
X224798511Y-52792261D01*
X224750892Y-52697023D01*
X224750892Y-52316071D01*
X224798511Y-52220833D01*
X224893750Y-52173214D01*
X225084226Y-52173214D01*
X225179464Y-52220833D01*
X225227083Y-52316071D01*
X225227083Y-52411309D01*
X224750892Y-52506547D01*
X225608035Y-52792261D02*
X225703273Y-52839880D01*
X225893750Y-52839880D01*
X225988988Y-52792261D01*
X226036607Y-52697023D01*
X226036607Y-52649404D01*
X225988988Y-52554166D01*
X225893750Y-52506547D01*
X225750892Y-52506547D01*
X225655654Y-52458928D01*
X225608035Y-52363690D01*
X225608035Y-52316071D01*
X225655654Y-52220833D01*
X225750892Y-52173214D01*
X225893750Y-52173214D01*
X225988988Y-52220833D01*
X226465178Y-52839880D02*
X226465178Y-52173214D01*
X226465178Y-51839880D02*
X226417559Y-51887500D01*
X226465178Y-51935119D01*
X226512797Y-51887500D01*
X226465178Y-51839880D01*
X226465178Y-51935119D01*
X227369940Y-52173214D02*
X227369940Y-52982738D01*
X227322321Y-53077976D01*
X227274702Y-53125595D01*
X227179464Y-53173214D01*
X227036607Y-53173214D01*
X226941369Y-53125595D01*
X227369940Y-52792261D02*
X227274702Y-52839880D01*
X227084226Y-52839880D01*
X226988988Y-52792261D01*
X226941369Y-52744642D01*
X226893750Y-52649404D01*
X226893750Y-52363690D01*
X226941369Y-52268452D01*
X226988988Y-52220833D01*
X227084226Y-52173214D01*
X227274702Y-52173214D01*
X227369940Y-52220833D01*
X227846130Y-52173214D02*
X227846130Y-52839880D01*
X227846130Y-52268452D02*
X227893750Y-52220833D01*
X227988988Y-52173214D01*
X228131845Y-52173214D01*
X228227083Y-52220833D01*
X228274702Y-52316071D01*
X228274702Y-52839880D01*
X229131845Y-52792261D02*
X229036607Y-52839880D01*
X228846130Y-52839880D01*
X228750892Y-52792261D01*
X228703273Y-52697023D01*
X228703273Y-52316071D01*
X228750892Y-52220833D01*
X228846130Y-52173214D01*
X229036607Y-52173214D01*
X229131845Y-52220833D01*
X229179464Y-52316071D01*
X229179464Y-52411309D01*
X228703273Y-52506547D01*
X230036607Y-52839880D02*
X230036607Y-51839880D01*
X230036607Y-52792261D02*
X229941369Y-52839880D01*
X229750892Y-52839880D01*
X229655654Y-52792261D01*
X229608035Y-52744642D01*
X229560416Y-52649404D01*
X229560416Y-52363690D01*
X229608035Y-52268452D01*
X229655654Y-52220833D01*
X229750892Y-52173214D01*
X229941369Y-52173214D01*
X230036607Y-52220833D01*
X231274702Y-52839880D02*
X231274702Y-51839880D01*
X231274702Y-52220833D02*
X231369940Y-52173214D01*
X231560416Y-52173214D01*
X231655654Y-52220833D01*
X231703273Y-52268452D01*
X231750892Y-52363690D01*
X231750892Y-52649404D01*
X231703273Y-52744642D01*
X231655654Y-52792261D01*
X231560416Y-52839880D01*
X231369940Y-52839880D01*
X231274702Y-52792261D01*
X232084226Y-52173214D02*
X232322321Y-52839880D01*
X232560416Y-52173214D02*
X232322321Y-52839880D01*
X232227083Y-53077976D01*
X232179464Y-53125595D01*
X232084226Y-53173214D01*
X234131845Y-52839880D02*
X234131845Y-52316071D01*
X234084226Y-52220833D01*
X233988988Y-52173214D01*
X233798511Y-52173214D01*
X233703273Y-52220833D01*
X234131845Y-52792261D02*
X234036607Y-52839880D01*
X233798511Y-52839880D01*
X233703273Y-52792261D01*
X233655654Y-52697023D01*
X233655654Y-52601785D01*
X233703273Y-52506547D01*
X233798511Y-52458928D01*
X234036607Y-52458928D01*
X234131845Y-52411309D01*
X234512797Y-52173214D02*
X234750892Y-52839880D01*
X234988988Y-52173214D01*
G04 #@! TO.C,R5*
X172282380Y-63666666D02*
X171806190Y-64000000D01*
X172282380Y-64238095D02*
X171282380Y-64238095D01*
X171282380Y-63857142D01*
X171330000Y-63761904D01*
X171377619Y-63714285D01*
X171472857Y-63666666D01*
X171615714Y-63666666D01*
X171710952Y-63714285D01*
X171758571Y-63761904D01*
X171806190Y-63857142D01*
X171806190Y-64238095D01*
X171282380Y-62761904D02*
X171282380Y-63238095D01*
X171758571Y-63285714D01*
X171710952Y-63238095D01*
X171663333Y-63142857D01*
X171663333Y-62904761D01*
X171710952Y-62809523D01*
X171758571Y-62761904D01*
X171853809Y-62714285D01*
X172091904Y-62714285D01*
X172187142Y-62761904D01*
X172234761Y-62809523D01*
X172282380Y-62904761D01*
X172282380Y-63142857D01*
X172234761Y-63238095D01*
X172187142Y-63285714D01*
G04 #@! TO.C,U2*
X199348468Y-57253027D02*
X199920888Y-56680607D01*
X199954560Y-56579592D01*
X199954560Y-56512248D01*
X199920888Y-56411233D01*
X199786201Y-56276546D01*
X199685186Y-56242874D01*
X199617842Y-56242874D01*
X199516827Y-56276546D01*
X198944407Y-56848966D01*
X198708705Y-56478576D02*
X198641362Y-56478576D01*
X198540346Y-56444905D01*
X198371988Y-56276546D01*
X198338316Y-56175531D01*
X198338316Y-56108187D01*
X198371988Y-56007172D01*
X198439331Y-55939828D01*
X198574018Y-55872485D01*
X199382140Y-55872485D01*
X198944407Y-55434752D01*
G04 #@! TO.C,R3*
X163155333Y-69793380D02*
X162822000Y-69317190D01*
X162583904Y-69793380D02*
X162583904Y-68793380D01*
X162964857Y-68793380D01*
X163060095Y-68841000D01*
X163107714Y-68888619D01*
X163155333Y-68983857D01*
X163155333Y-69126714D01*
X163107714Y-69221952D01*
X163060095Y-69269571D01*
X162964857Y-69317190D01*
X162583904Y-69317190D01*
X163488666Y-68793380D02*
X164107714Y-68793380D01*
X163774380Y-69174333D01*
X163917238Y-69174333D01*
X164012476Y-69221952D01*
X164060095Y-69269571D01*
X164107714Y-69364809D01*
X164107714Y-69602904D01*
X164060095Y-69698142D01*
X164012476Y-69745761D01*
X163917238Y-69793380D01*
X163631523Y-69793380D01*
X163536285Y-69745761D01*
X163488666Y-69698142D01*
G04 #@! TO.C,C2*
X198194142Y-73699666D02*
X198241761Y-73747285D01*
X198289380Y-73890142D01*
X198289380Y-73985380D01*
X198241761Y-74128238D01*
X198146523Y-74223476D01*
X198051285Y-74271095D01*
X197860809Y-74318714D01*
X197717952Y-74318714D01*
X197527476Y-74271095D01*
X197432238Y-74223476D01*
X197337000Y-74128238D01*
X197289380Y-73985380D01*
X197289380Y-73890142D01*
X197337000Y-73747285D01*
X197384619Y-73699666D01*
X197384619Y-73318714D02*
X197337000Y-73271095D01*
X197289380Y-73175857D01*
X197289380Y-72937761D01*
X197337000Y-72842523D01*
X197384619Y-72794904D01*
X197479857Y-72747285D01*
X197575095Y-72747285D01*
X197717952Y-72794904D01*
X198289380Y-73366333D01*
X198289380Y-72747285D01*
G04 #@! TO.C,C1*
X192664142Y-73826666D02*
X192711761Y-73874285D01*
X192759380Y-74017142D01*
X192759380Y-74112380D01*
X192711761Y-74255238D01*
X192616523Y-74350476D01*
X192521285Y-74398095D01*
X192330809Y-74445714D01*
X192187952Y-74445714D01*
X191997476Y-74398095D01*
X191902238Y-74350476D01*
X191807000Y-74255238D01*
X191759380Y-74112380D01*
X191759380Y-74017142D01*
X191807000Y-73874285D01*
X191854619Y-73826666D01*
X192759380Y-72874285D02*
X192759380Y-73445714D01*
X192759380Y-73160000D02*
X191759380Y-73160000D01*
X191902238Y-73255238D01*
X191997476Y-73350476D01*
X192045095Y-73445714D01*
G04 #@! TO.C,C3*
X176998333Y-69797142D02*
X176950714Y-69844761D01*
X176807857Y-69892380D01*
X176712619Y-69892380D01*
X176569761Y-69844761D01*
X176474523Y-69749523D01*
X176426904Y-69654285D01*
X176379285Y-69463809D01*
X176379285Y-69320952D01*
X176426904Y-69130476D01*
X176474523Y-69035238D01*
X176569761Y-68940000D01*
X176712619Y-68892380D01*
X176807857Y-68892380D01*
X176950714Y-68940000D01*
X176998333Y-68987619D01*
X177331666Y-68892380D02*
X177950714Y-68892380D01*
X177617380Y-69273333D01*
X177760238Y-69273333D01*
X177855476Y-69320952D01*
X177903095Y-69368571D01*
X177950714Y-69463809D01*
X177950714Y-69701904D01*
X177903095Y-69797142D01*
X177855476Y-69844761D01*
X177760238Y-69892380D01*
X177474523Y-69892380D01*
X177379285Y-69844761D01*
X177331666Y-69797142D01*
G04 #@! TO.C,SW2*
X223324666Y-58101761D02*
X223467523Y-58149380D01*
X223705619Y-58149380D01*
X223800857Y-58101761D01*
X223848476Y-58054142D01*
X223896095Y-57958904D01*
X223896095Y-57863666D01*
X223848476Y-57768428D01*
X223800857Y-57720809D01*
X223705619Y-57673190D01*
X223515142Y-57625571D01*
X223419904Y-57577952D01*
X223372285Y-57530333D01*
X223324666Y-57435095D01*
X223324666Y-57339857D01*
X223372285Y-57244619D01*
X223419904Y-57197000D01*
X223515142Y-57149380D01*
X223753238Y-57149380D01*
X223896095Y-57197000D01*
X224229428Y-57149380D02*
X224467523Y-58149380D01*
X224658000Y-57435095D01*
X224848476Y-58149380D01*
X225086571Y-57149380D01*
X225419904Y-57244619D02*
X225467523Y-57197000D01*
X225562761Y-57149380D01*
X225800857Y-57149380D01*
X225896095Y-57197000D01*
X225943714Y-57244619D01*
X225991333Y-57339857D01*
X225991333Y-57435095D01*
X225943714Y-57577952D01*
X225372285Y-58149380D01*
X225991333Y-58149380D01*
G04 #@! TO.C,R2*
X180554333Y-58746380D02*
X180221000Y-58270190D01*
X179982904Y-58746380D02*
X179982904Y-57746380D01*
X180363857Y-57746380D01*
X180459095Y-57794000D01*
X180506714Y-57841619D01*
X180554333Y-57936857D01*
X180554333Y-58079714D01*
X180506714Y-58174952D01*
X180459095Y-58222571D01*
X180363857Y-58270190D01*
X179982904Y-58270190D01*
X180935285Y-57841619D02*
X180982904Y-57794000D01*
X181078142Y-57746380D01*
X181316238Y-57746380D01*
X181411476Y-57794000D01*
X181459095Y-57841619D01*
X181506714Y-57936857D01*
X181506714Y-58032095D01*
X181459095Y-58174952D01*
X180887666Y-58746380D01*
X181506714Y-58746380D01*
G04 #@! TO.C,R6*
X204303333Y-56841380D02*
X203970000Y-56365190D01*
X203731904Y-56841380D02*
X203731904Y-55841380D01*
X204112857Y-55841380D01*
X204208095Y-55889000D01*
X204255714Y-55936619D01*
X204303333Y-56031857D01*
X204303333Y-56174714D01*
X204255714Y-56269952D01*
X204208095Y-56317571D01*
X204112857Y-56365190D01*
X203731904Y-56365190D01*
X205160476Y-55841380D02*
X204970000Y-55841380D01*
X204874761Y-55889000D01*
X204827142Y-55936619D01*
X204731904Y-56079476D01*
X204684285Y-56269952D01*
X204684285Y-56650904D01*
X204731904Y-56746142D01*
X204779523Y-56793761D01*
X204874761Y-56841380D01*
X205065238Y-56841380D01*
X205160476Y-56793761D01*
X205208095Y-56746142D01*
X205255714Y-56650904D01*
X205255714Y-56412809D01*
X205208095Y-56317571D01*
X205160476Y-56269952D01*
X205065238Y-56222333D01*
X204874761Y-56222333D01*
X204779523Y-56269952D01*
X204731904Y-56317571D01*
X204684285Y-56412809D01*
G04 #@! TO.C,C7*
X204303333Y-65352142D02*
X204255714Y-65399761D01*
X204112857Y-65447380D01*
X204017619Y-65447380D01*
X203874761Y-65399761D01*
X203779523Y-65304523D01*
X203731904Y-65209285D01*
X203684285Y-65018809D01*
X203684285Y-64875952D01*
X203731904Y-64685476D01*
X203779523Y-64590238D01*
X203874761Y-64495000D01*
X204017619Y-64447380D01*
X204112857Y-64447380D01*
X204255714Y-64495000D01*
X204303333Y-64542619D01*
X204636666Y-64447380D02*
X205303333Y-64447380D01*
X204874761Y-65447380D01*
G04 #@! TO.C,R4*
X179267380Y-63539666D02*
X178791190Y-63873000D01*
X179267380Y-64111095D02*
X178267380Y-64111095D01*
X178267380Y-63730142D01*
X178315000Y-63634904D01*
X178362619Y-63587285D01*
X178457857Y-63539666D01*
X178600714Y-63539666D01*
X178695952Y-63587285D01*
X178743571Y-63634904D01*
X178791190Y-63730142D01*
X178791190Y-64111095D01*
X178600714Y-62682523D02*
X179267380Y-62682523D01*
X178219761Y-62920619D02*
X178934047Y-63158714D01*
X178934047Y-62539666D01*
G04 #@! TO.C,C5*
X204303333Y-69035142D02*
X204255714Y-69082761D01*
X204112857Y-69130380D01*
X204017619Y-69130380D01*
X203874761Y-69082761D01*
X203779523Y-68987523D01*
X203731904Y-68892285D01*
X203684285Y-68701809D01*
X203684285Y-68558952D01*
X203731904Y-68368476D01*
X203779523Y-68273238D01*
X203874761Y-68178000D01*
X204017619Y-68130380D01*
X204112857Y-68130380D01*
X204255714Y-68178000D01*
X204303333Y-68225619D01*
X205208095Y-68130380D02*
X204731904Y-68130380D01*
X204684285Y-68606571D01*
X204731904Y-68558952D01*
X204827142Y-68511333D01*
X205065238Y-68511333D01*
X205160476Y-68558952D01*
X205208095Y-68606571D01*
X205255714Y-68701809D01*
X205255714Y-68939904D01*
X205208095Y-69035142D01*
X205160476Y-69082761D01*
X205065238Y-69130380D01*
X204827142Y-69130380D01*
X204731904Y-69082761D01*
X204684285Y-69035142D01*
G04 #@! TO.C,C6*
X204303333Y-72337142D02*
X204255714Y-72384761D01*
X204112857Y-72432380D01*
X204017619Y-72432380D01*
X203874761Y-72384761D01*
X203779523Y-72289523D01*
X203731904Y-72194285D01*
X203684285Y-72003809D01*
X203684285Y-71860952D01*
X203731904Y-71670476D01*
X203779523Y-71575238D01*
X203874761Y-71480000D01*
X204017619Y-71432380D01*
X204112857Y-71432380D01*
X204255714Y-71480000D01*
X204303333Y-71527619D01*
X205160476Y-71432380D02*
X204970000Y-71432380D01*
X204874761Y-71480000D01*
X204827142Y-71527619D01*
X204731904Y-71670476D01*
X204684285Y-71860952D01*
X204684285Y-72241904D01*
X204731904Y-72337142D01*
X204779523Y-72384761D01*
X204874761Y-72432380D01*
X205065238Y-72432380D01*
X205160476Y-72384761D01*
X205208095Y-72337142D01*
X205255714Y-72241904D01*
X205255714Y-72003809D01*
X205208095Y-71908571D01*
X205160476Y-71860952D01*
X205065238Y-71813333D01*
X204874761Y-71813333D01*
X204779523Y-71860952D01*
X204731904Y-71908571D01*
X204684285Y-72003809D01*
G04 #@! TO.C,U1*
X172847095Y-60375380D02*
X172847095Y-61184904D01*
X172894714Y-61280142D01*
X172942333Y-61327761D01*
X173037571Y-61375380D01*
X173228047Y-61375380D01*
X173323285Y-61327761D01*
X173370904Y-61280142D01*
X173418523Y-61184904D01*
X173418523Y-60375380D01*
X174418523Y-61375380D02*
X173847095Y-61375380D01*
X174132809Y-61375380D02*
X174132809Y-60375380D01*
X174037571Y-60518238D01*
X173942333Y-60613476D01*
X173847095Y-60661095D01*
G04 #@! TO.C,R1*
X184347380Y-73572666D02*
X183871190Y-73906000D01*
X184347380Y-74144095D02*
X183347380Y-74144095D01*
X183347380Y-73763142D01*
X183395000Y-73667904D01*
X183442619Y-73620285D01*
X183537857Y-73572666D01*
X183680714Y-73572666D01*
X183775952Y-73620285D01*
X183823571Y-73667904D01*
X183871190Y-73763142D01*
X183871190Y-74144095D01*
X184347380Y-72620285D02*
X184347380Y-73191714D01*
X184347380Y-72906000D02*
X183347380Y-72906000D01*
X183490238Y-73001238D01*
X183585476Y-73096476D01*
X183633095Y-73191714D01*
G04 #@! TO.C,Y1*
X194595809Y-70459190D02*
X194595809Y-70935380D01*
X194262476Y-69935380D02*
X194595809Y-70459190D01*
X194929142Y-69935380D01*
X195786285Y-70935380D02*
X195214857Y-70935380D01*
X195500571Y-70935380D02*
X195500571Y-69935380D01*
X195405333Y-70078238D01*
X195310095Y-70173476D01*
X195214857Y-70221095D01*
G04 #@! TO.C,SW1*
X217447761Y-67373333D02*
X217495380Y-67230476D01*
X217495380Y-66992380D01*
X217447761Y-66897142D01*
X217400142Y-66849523D01*
X217304904Y-66801904D01*
X217209666Y-66801904D01*
X217114428Y-66849523D01*
X217066809Y-66897142D01*
X217019190Y-66992380D01*
X216971571Y-67182857D01*
X216923952Y-67278095D01*
X216876333Y-67325714D01*
X216781095Y-67373333D01*
X216685857Y-67373333D01*
X216590619Y-67325714D01*
X216543000Y-67278095D01*
X216495380Y-67182857D01*
X216495380Y-66944761D01*
X216543000Y-66801904D01*
X216495380Y-66468571D02*
X217495380Y-66230476D01*
X216781095Y-66040000D01*
X217495380Y-65849523D01*
X216495380Y-65611428D01*
X217495380Y-64706666D02*
X217495380Y-65278095D01*
X217495380Y-64992380D02*
X216495380Y-64992380D01*
X216638238Y-65087619D01*
X216733476Y-65182857D01*
X216781095Y-65278095D01*
G04 #@! TO.C,F1*
X171243666Y-71641571D02*
X170910333Y-71641571D01*
X170910333Y-72165380D02*
X170910333Y-71165380D01*
X171386523Y-71165380D01*
X172291285Y-72165380D02*
X171719857Y-72165380D01*
X172005571Y-72165380D02*
X172005571Y-71165380D01*
X171910333Y-71308238D01*
X171815095Y-71403476D01*
X171719857Y-71451095D01*
G04 #@! TO.C,C4*
X204303333Y-62177142D02*
X204255714Y-62224761D01*
X204112857Y-62272380D01*
X204017619Y-62272380D01*
X203874761Y-62224761D01*
X203779523Y-62129523D01*
X203731904Y-62034285D01*
X203684285Y-61843809D01*
X203684285Y-61700952D01*
X203731904Y-61510476D01*
X203779523Y-61415238D01*
X203874761Y-61320000D01*
X204017619Y-61272380D01*
X204112857Y-61272380D01*
X204255714Y-61320000D01*
X204303333Y-61367619D01*
X205160476Y-61605714D02*
X205160476Y-62272380D01*
X204922380Y-61224761D02*
X204684285Y-61939047D01*
X205303333Y-61939047D01*
D11*
G04 #@! TO.C,R5*
X169445000Y-63272936D02*
X169445000Y-63727064D01*
X170915000Y-63272936D02*
X170915000Y-63727064D01*
D10*
G04 #@! TO.C,U2*
X193929000Y-54276445D02*
X194406297Y-54753742D01*
X193929000Y-68913555D02*
X193451703Y-68436258D01*
X193929000Y-54276445D02*
X193522414Y-54683031D01*
X186610445Y-61595000D02*
X187087742Y-61117703D01*
X186610445Y-61595000D02*
X187087742Y-62072297D01*
X201247555Y-61595000D02*
X200770258Y-61117703D01*
X193929000Y-68913555D02*
X194406297Y-68436258D01*
X193522414Y-54683031D02*
X192620852Y-53781470D01*
X201247555Y-61595000D02*
X200770258Y-62072297D01*
D11*
G04 #@! TO.C,R3*
X163549064Y-68426000D02*
X163094936Y-68426000D01*
X163549064Y-66956000D02*
X163094936Y-66956000D01*
G04 #@! TO.C,C2*
X200252000Y-73794252D02*
X200252000Y-73271748D01*
X198782000Y-73794252D02*
X198782000Y-73271748D01*
G04 #@! TO.C,C1*
X189892000Y-73398748D02*
X189892000Y-73921252D01*
X191362000Y-73398748D02*
X191362000Y-73921252D01*
G04 #@! TO.C,C3*
X176903748Y-70385000D02*
X177426252Y-70385000D01*
X176903748Y-71855000D02*
X177426252Y-71855000D01*
G04 #@! TO.C,SW2*
X232358000Y-64897000D02*
G75*
G03*
X232358000Y-64897000I-3000000J0D01*
G01*
X222158000Y-60797000D02*
X221858000Y-61097000D01*
X235458000Y-70797000D02*
X231358000Y-70797000D01*
X228858000Y-64897000D02*
X229858000Y-64897000D01*
X235458000Y-63597000D02*
X235458000Y-66197000D01*
X235458000Y-58997000D02*
X235458000Y-61397000D01*
X229358000Y-64397000D02*
X229358000Y-65397000D01*
X221858000Y-61097000D02*
X221558000Y-60797000D01*
X227358000Y-58997000D02*
X223258000Y-58997000D01*
X227358000Y-70797000D02*
X223258000Y-70797000D01*
X223258000Y-58997000D02*
X223258000Y-70797000D01*
X221558000Y-60797000D02*
X222158000Y-60797000D01*
X231358000Y-58997000D02*
X235458000Y-58997000D01*
X235458000Y-68397000D02*
X235458000Y-70797000D01*
G04 #@! TO.C,R2*
X180493936Y-59209000D02*
X180948064Y-59209000D01*
X180493936Y-60679000D02*
X180948064Y-60679000D01*
G04 #@! TO.C,R6*
X204242936Y-57304000D02*
X204697064Y-57304000D01*
X204242936Y-58774000D02*
X204697064Y-58774000D01*
G04 #@! TO.C,C7*
X204208748Y-67410000D02*
X204731252Y-67410000D01*
X204208748Y-65940000D02*
X204731252Y-65940000D01*
G04 #@! TO.C,R4*
X177900000Y-63145936D02*
X177900000Y-63600064D01*
X176430000Y-63145936D02*
X176430000Y-63600064D01*
G04 #@! TO.C,C5*
X204208748Y-69623000D02*
X204731252Y-69623000D01*
X204208748Y-71093000D02*
X204731252Y-71093000D01*
G04 #@! TO.C,C6*
X204208748Y-74395000D02*
X204731252Y-74395000D01*
X204208748Y-72925000D02*
X204731252Y-72925000D01*
D10*
G04 #@! TO.C,U1*
X172959000Y-64823000D02*
X172959000Y-61923000D01*
X172959000Y-64823000D02*
X174259000Y-64823000D01*
X174259000Y-61923000D02*
X172959000Y-61923000D01*
X174259000Y-64823000D02*
X174259000Y-61923000D01*
D11*
G04 #@! TO.C,R1*
X182980000Y-73178936D02*
X182980000Y-73633064D01*
X181510000Y-73178936D02*
X181510000Y-73633064D01*
G04 #@! TO.C,Y1*
X192372000Y-71283000D02*
X192372000Y-75783000D01*
X192372000Y-75783000D02*
X197772000Y-75783000D01*
D10*
G04 #@! TO.C,SW1*
X213979000Y-66040000D02*
G75*
G03*
X213979000Y-66040000I-1000000J0D01*
G01*
X215579000Y-63440000D02*
X215579000Y-68640000D01*
X210379000Y-63440000D02*
X215579000Y-63440000D01*
X215579000Y-68640000D02*
X210379000Y-68640000D01*
X210379000Y-68640000D02*
X210379000Y-63440000D01*
D11*
G04 #@! TO.C,F1*
X170974936Y-74443000D02*
X172179064Y-74443000D01*
X170974936Y-72623000D02*
X172179064Y-72623000D01*
G04 #@! TO.C,C4*
X204208748Y-62765000D02*
X204731252Y-62765000D01*
X204208748Y-64235000D02*
X204731252Y-64235000D01*
G04 #@! TD*
%LPC*%
D12*
G04 #@! TO.C,MX4*
X173037500Y-104775000D03*
D13*
X167957500Y-104775000D03*
X178117500Y-104775000D03*
G04 #@! TD*
D12*
G04 #@! TO.C,MX7*
X238442500Y-107188000D03*
D13*
X230187500Y-90170000D03*
X230187500Y-100330000D03*
D14*
X223202500Y-83312000D03*
D12*
X238442500Y-83312000D03*
X230187500Y-95250000D03*
D14*
X223202500Y-107188000D03*
G04 #@! TD*
D12*
G04 #@! TO.C,MX6*
X211137500Y-104775000D03*
D13*
X216217500Y-104775000D03*
X206057500Y-104775000D03*
G04 #@! TD*
D15*
G04 #@! TO.C,R5*
X170180000Y-64412500D03*
X170180000Y-62587500D03*
G04 #@! TD*
D16*
G04 #@! TO.C,U2*
X195131082Y-54736064D03*
X195696767Y-55301750D03*
X196262452Y-55867435D03*
X196828138Y-56433120D03*
X197393823Y-56998806D03*
X197959509Y-57564491D03*
X198525194Y-58130177D03*
X199090880Y-58695862D03*
X199656565Y-59261548D03*
X200222250Y-59827233D03*
X200787936Y-60392918D03*
D17*
X200787936Y-62797082D03*
X200222250Y-63362767D03*
X199656565Y-63928452D03*
X199090880Y-64494138D03*
X198525194Y-65059823D03*
X197959509Y-65625509D03*
X197393823Y-66191194D03*
X196828138Y-66756880D03*
X196262452Y-67322565D03*
X195696767Y-67888250D03*
X195131082Y-68453936D03*
D16*
X192726918Y-68453936D03*
X192161233Y-67888250D03*
X191595548Y-67322565D03*
X191029862Y-66756880D03*
X190464177Y-66191194D03*
X189898491Y-65625509D03*
X189332806Y-65059823D03*
X188767120Y-64494138D03*
X188201435Y-63928452D03*
X187635750Y-63362767D03*
X187070064Y-62797082D03*
D17*
X187070064Y-60392918D03*
X187635750Y-59827233D03*
X188201435Y-59261548D03*
X188767120Y-58695862D03*
X189332806Y-58130177D03*
X189898491Y-57564491D03*
X190464177Y-56998806D03*
X191029862Y-56433120D03*
X191595548Y-55867435D03*
X192161233Y-55301750D03*
X192726918Y-54736064D03*
G04 #@! TD*
D18*
G04 #@! TO.C,R3*
X162409500Y-67691000D03*
X164234500Y-67691000D03*
G04 #@! TD*
D19*
G04 #@! TO.C,C2*
X199517000Y-72583000D03*
X199517000Y-74483000D03*
G04 #@! TD*
D20*
G04 #@! TO.C,C1*
X190627000Y-74610000D03*
X190627000Y-72710000D03*
G04 #@! TD*
D13*
G04 #@! TO.C,MX8*
X167957500Y-123825000D03*
D12*
X173037500Y-123825000D03*
D13*
X178117500Y-123825000D03*
G04 #@! TD*
D21*
G04 #@! TO.C,C3*
X178115000Y-71120000D03*
X176215000Y-71120000D03*
G04 #@! TD*
D13*
G04 #@! TO.C,MX5*
X197167500Y-104775000D03*
D12*
X192087500Y-104775000D03*
D13*
X187007500Y-104775000D03*
G04 #@! TD*
D22*
G04 #@! TO.C,SW2*
X236358000Y-62397000D03*
X236358000Y-67397000D03*
D23*
X229358000Y-70497000D03*
X229358000Y-59297000D03*
D22*
X221858000Y-64897000D03*
X221858000Y-67397000D03*
D24*
X221858000Y-62397000D03*
G04 #@! TD*
D14*
G04 #@! TO.C,MX11*
X170624500Y-135890000D03*
D13*
X177482500Y-142875000D03*
D12*
X194500500Y-151130000D03*
D13*
X187642500Y-142875000D03*
D12*
X170624500Y-151130000D03*
X182562500Y-142875000D03*
D14*
X194500500Y-135890000D03*
G04 #@! TD*
D25*
G04 #@! TO.C,R2*
X181633500Y-59944000D03*
X179808500Y-59944000D03*
G04 #@! TD*
D13*
G04 #@! TO.C,MX12*
X206057500Y-142875000D03*
D12*
X211137500Y-142875000D03*
D13*
X216217500Y-142875000D03*
G04 #@! TD*
D25*
G04 #@! TO.C,R6*
X205382500Y-58039000D03*
X203557500Y-58039000D03*
G04 #@! TD*
D12*
G04 #@! TO.C,MX13*
X230187500Y-133350000D03*
D13*
X230187500Y-138430000D03*
X230187500Y-128270000D03*
D12*
X238442500Y-145288000D03*
D14*
X223202500Y-145288000D03*
X223202500Y-121412000D03*
D12*
X238442500Y-121412000D03*
G04 #@! TD*
D13*
G04 #@! TO.C,MX9*
X197167500Y-123825000D03*
D12*
X192087500Y-123825000D03*
D13*
X187007500Y-123825000D03*
G04 #@! TD*
G04 #@! TO.C,MX10*
X206057500Y-123825000D03*
X216217500Y-123825000D03*
D12*
X211137500Y-123825000D03*
G04 #@! TD*
D21*
G04 #@! TO.C,C7*
X205420000Y-66675000D03*
X203520000Y-66675000D03*
G04 #@! TD*
D15*
G04 #@! TO.C,R4*
X177165000Y-64285500D03*
X177165000Y-62460500D03*
G04 #@! TD*
D21*
G04 #@! TO.C,C5*
X205420000Y-70358000D03*
X203520000Y-70358000D03*
G04 #@! TD*
G04 #@! TO.C,C6*
X205420000Y-73660000D03*
X203520000Y-73660000D03*
G04 #@! TD*
D13*
G04 #@! TO.C,MX3*
X216217500Y-85725000D03*
D12*
X211137500Y-85725000D03*
D13*
X206057500Y-85725000D03*
G04 #@! TD*
D26*
G04 #@! TO.C,U1*
X172609000Y-64323000D03*
X172609000Y-62423000D03*
X174609000Y-62423000D03*
D27*
X174609000Y-64123000D03*
G04 #@! TD*
D12*
G04 #@! TO.C,MX1*
X173037500Y-85725000D03*
D13*
X178117500Y-85725000D03*
X167957500Y-85725000D03*
G04 #@! TD*
D15*
G04 #@! TO.C,R1*
X182245000Y-74318500D03*
X182245000Y-72493500D03*
G04 #@! TD*
D13*
G04 #@! TO.C,MX2*
X187007500Y-85725000D03*
X197167500Y-85725000D03*
D12*
X192087500Y-85725000D03*
G04 #@! TD*
D28*
G04 #@! TO.C,Y1*
X193622000Y-72383000D03*
X196522000Y-72383000D03*
X196522000Y-74683000D03*
X193622000Y-74683000D03*
G04 #@! TD*
D29*
G04 #@! TO.C,SW1*
X214829000Y-69140000D03*
X211129000Y-62940000D03*
X211129000Y-69140000D03*
X214829000Y-62940000D03*
G04 #@! TD*
D30*
G04 #@! TO.C,F1*
X172977000Y-73533000D03*
X170177000Y-73533000D03*
G04 #@! TD*
D21*
G04 #@! TO.C,C4*
X205420000Y-63500000D03*
X203520000Y-63500000D03*
G04 #@! TD*
D31*
G04 #@! TO.C,USB1*
X176917000Y-55481000D03*
D32*
X176917000Y-51301000D03*
D31*
X168277000Y-55481000D03*
D32*
X168277000Y-51301000D03*
D33*
X175487000Y-54951000D03*
X169707000Y-54951000D03*
G04 #@! TD*
M02*
