G04 #@! TF.GenerationSoftware,KiCad,Pcbnew,(6.0.5)*
G04 #@! TF.CreationDate,2023-01-08T23:57:36-05:00*
G04 #@! TF.ProjectId,macro-pad-pcb,6d616372-6f2d-4706-9164-2d7063622e6b,rev?*
G04 #@! TF.SameCoordinates,Original*
G04 #@! TF.FileFunction,Legend,Bot*
G04 #@! TF.FilePolarity,Positive*
%FSLAX46Y46*%
G04 Gerber Fmt 4.6, Leading zero omitted, Abs format (unit mm)*
G04 Created by KiCad (PCBNEW (6.0.5)) date 2023-01-08 23:57:36*
%MOMM*%
%LPD*%
G01*
G04 APERTURE LIST*
G04 Aperture macros list*
%AMHorizOval*
0 Thick line with rounded ends*
0 $1 width*
0 $2 $3 position (X,Y) of the first rounded end (center of the circle)*
0 $4 $5 position (X,Y) of the second rounded end (center of the circle)*
0 Add line between two ends*
20,1,$1,$2,$3,$4,$5,0*
0 Add two circle primitives to create the rounded ends*
1,1,$1,$2,$3*
1,1,$1,$4,$5*%
G04 Aperture macros list end*
%ADD10C,0.150000*%
%ADD11C,0.120000*%
%ADD12C,3.987800*%
%ADD13C,1.750000*%
%ADD14C,2.250000*%
%ADD15HorizOval,2.250000X0.655001X0.730000X-0.655001X-0.730000X0*%
%ADD16HorizOval,2.250000X0.020000X0.290000X-0.020000X-0.290000X0*%
%ADD17C,1.905000*%
%ADD18R,1.905000X1.905000*%
%ADD19C,3.048000*%
%ADD20HorizOval,2.250000X-0.730000X0.655001X0.730000X-0.655001X0*%
%ADD21HorizOval,2.250000X-0.290000X0.020000X0.290000X-0.020000X0*%
%ADD22C,2.000000*%
%ADD23C,3.200000*%
%ADD24R,2.000000X2.000000*%
%ADD25R,1.200000X0.900000*%
%ADD26R,0.600000X2.450000*%
%ADD27R,0.300000X2.450000*%
%ADD28C,0.650000*%
G04 APERTURE END LIST*
D10*
G04 #@! TO.C,D13*
X224829380Y-133024714D02*
X223829380Y-133024714D01*
X223829380Y-133262809D01*
X223877000Y-133405666D01*
X223972238Y-133500904D01*
X224067476Y-133548523D01*
X224257952Y-133596142D01*
X224400809Y-133596142D01*
X224591285Y-133548523D01*
X224686523Y-133500904D01*
X224781761Y-133405666D01*
X224829380Y-133262809D01*
X224829380Y-133024714D01*
X224829380Y-134548523D02*
X224829380Y-133977095D01*
X224829380Y-134262809D02*
X223829380Y-134262809D01*
X223972238Y-134167571D01*
X224067476Y-134072333D01*
X224115095Y-133977095D01*
X223829380Y-134881857D02*
X223829380Y-135500904D01*
X224210333Y-135167571D01*
X224210333Y-135310428D01*
X224257952Y-135405666D01*
X224305571Y-135453285D01*
X224400809Y-135500904D01*
X224638904Y-135500904D01*
X224734142Y-135453285D01*
X224781761Y-135405666D01*
X224829380Y-135310428D01*
X224829380Y-135024714D01*
X224781761Y-134929476D01*
X224734142Y-134881857D01*
G04 #@! TO.C,D1*
X183300380Y-85367904D02*
X182300380Y-85367904D01*
X182300380Y-85606000D01*
X182348000Y-85748857D01*
X182443238Y-85844095D01*
X182538476Y-85891714D01*
X182728952Y-85939333D01*
X182871809Y-85939333D01*
X183062285Y-85891714D01*
X183157523Y-85844095D01*
X183252761Y-85748857D01*
X183300380Y-85606000D01*
X183300380Y-85367904D01*
X183300380Y-86891714D02*
X183300380Y-86320285D01*
X183300380Y-86606000D02*
X182300380Y-86606000D01*
X182443238Y-86510761D01*
X182538476Y-86415523D01*
X182586095Y-86320285D01*
G04 #@! TO.C,D5*
X202350380Y-104290904D02*
X201350380Y-104290904D01*
X201350380Y-104529000D01*
X201398000Y-104671857D01*
X201493238Y-104767095D01*
X201588476Y-104814714D01*
X201778952Y-104862333D01*
X201921809Y-104862333D01*
X202112285Y-104814714D01*
X202207523Y-104767095D01*
X202302761Y-104671857D01*
X202350380Y-104529000D01*
X202350380Y-104290904D01*
X201350380Y-105767095D02*
X201350380Y-105290904D01*
X201826571Y-105243285D01*
X201778952Y-105290904D01*
X201731333Y-105386142D01*
X201731333Y-105624238D01*
X201778952Y-105719476D01*
X201826571Y-105767095D01*
X201921809Y-105814714D01*
X202159904Y-105814714D01*
X202255142Y-105767095D01*
X202302761Y-105719476D01*
X202350380Y-105624238D01*
X202350380Y-105386142D01*
X202302761Y-105290904D01*
X202255142Y-105243285D01*
G04 #@! TO.C,D10*
X221400380Y-122610714D02*
X220400380Y-122610714D01*
X220400380Y-122848809D01*
X220448000Y-122991666D01*
X220543238Y-123086904D01*
X220638476Y-123134523D01*
X220828952Y-123182142D01*
X220971809Y-123182142D01*
X221162285Y-123134523D01*
X221257523Y-123086904D01*
X221352761Y-122991666D01*
X221400380Y-122848809D01*
X221400380Y-122610714D01*
X221400380Y-124134523D02*
X221400380Y-123563095D01*
X221400380Y-123848809D02*
X220400380Y-123848809D01*
X220543238Y-123753571D01*
X220638476Y-123658333D01*
X220686095Y-123563095D01*
X220400380Y-124753571D02*
X220400380Y-124848809D01*
X220448000Y-124944047D01*
X220495619Y-124991666D01*
X220590857Y-125039285D01*
X220781333Y-125086904D01*
X221019428Y-125086904D01*
X221209904Y-125039285D01*
X221305142Y-124991666D01*
X221352761Y-124944047D01*
X221400380Y-124848809D01*
X221400380Y-124753571D01*
X221352761Y-124658333D01*
X221305142Y-124610714D01*
X221209904Y-124563095D01*
X221019428Y-124515476D01*
X220781333Y-124515476D01*
X220590857Y-124563095D01*
X220495619Y-124610714D01*
X220448000Y-124658333D01*
X220400380Y-124753571D01*
G04 #@! TO.C,D7*
X225083380Y-95654904D02*
X224083380Y-95654904D01*
X224083380Y-95893000D01*
X224131000Y-96035857D01*
X224226238Y-96131095D01*
X224321476Y-96178714D01*
X224511952Y-96226333D01*
X224654809Y-96226333D01*
X224845285Y-96178714D01*
X224940523Y-96131095D01*
X225035761Y-96035857D01*
X225083380Y-95893000D01*
X225083380Y-95654904D01*
X224083380Y-96559666D02*
X224083380Y-97226333D01*
X225083380Y-96797761D01*
G04 #@! TO.C,D9*
X202350380Y-123213904D02*
X201350380Y-123213904D01*
X201350380Y-123452000D01*
X201398000Y-123594857D01*
X201493238Y-123690095D01*
X201588476Y-123737714D01*
X201778952Y-123785333D01*
X201921809Y-123785333D01*
X202112285Y-123737714D01*
X202207523Y-123690095D01*
X202302761Y-123594857D01*
X202350380Y-123452000D01*
X202350380Y-123213904D01*
X202350380Y-124261523D02*
X202350380Y-124452000D01*
X202302761Y-124547238D01*
X202255142Y-124594857D01*
X202112285Y-124690095D01*
X201921809Y-124737714D01*
X201540857Y-124737714D01*
X201445619Y-124690095D01*
X201398000Y-124642476D01*
X201350380Y-124547238D01*
X201350380Y-124356761D01*
X201398000Y-124261523D01*
X201445619Y-124213904D01*
X201540857Y-124166285D01*
X201778952Y-124166285D01*
X201874190Y-124213904D01*
X201921809Y-124261523D01*
X201969428Y-124356761D01*
X201969428Y-124547238D01*
X201921809Y-124642476D01*
X201874190Y-124690095D01*
X201778952Y-124737714D01*
G04 #@! TO.C,USB1*
X174335095Y-58353380D02*
X174335095Y-59162904D01*
X174287476Y-59258142D01*
X174239857Y-59305761D01*
X174144619Y-59353380D01*
X173954142Y-59353380D01*
X173858904Y-59305761D01*
X173811285Y-59258142D01*
X173763666Y-59162904D01*
X173763666Y-58353380D01*
X173335095Y-59305761D02*
X173192238Y-59353380D01*
X172954142Y-59353380D01*
X172858904Y-59305761D01*
X172811285Y-59258142D01*
X172763666Y-59162904D01*
X172763666Y-59067666D01*
X172811285Y-58972428D01*
X172858904Y-58924809D01*
X172954142Y-58877190D01*
X173144619Y-58829571D01*
X173239857Y-58781952D01*
X173287476Y-58734333D01*
X173335095Y-58639095D01*
X173335095Y-58543857D01*
X173287476Y-58448619D01*
X173239857Y-58401000D01*
X173144619Y-58353380D01*
X172906523Y-58353380D01*
X172763666Y-58401000D01*
X172001761Y-58829571D02*
X171858904Y-58877190D01*
X171811285Y-58924809D01*
X171763666Y-59020047D01*
X171763666Y-59162904D01*
X171811285Y-59258142D01*
X171858904Y-59305761D01*
X171954142Y-59353380D01*
X172335095Y-59353380D01*
X172335095Y-58353380D01*
X172001761Y-58353380D01*
X171906523Y-58401000D01*
X171858904Y-58448619D01*
X171811285Y-58543857D01*
X171811285Y-58639095D01*
X171858904Y-58734333D01*
X171906523Y-58781952D01*
X172001761Y-58829571D01*
X172335095Y-58829571D01*
X170811285Y-59353380D02*
X171382714Y-59353380D01*
X171097000Y-59353380D02*
X171097000Y-58353380D01*
X171192238Y-58496238D01*
X171287476Y-58591476D01*
X171382714Y-58639095D01*
G04 #@! TO.C,D12*
X221400380Y-141660714D02*
X220400380Y-141660714D01*
X220400380Y-141898809D01*
X220448000Y-142041666D01*
X220543238Y-142136904D01*
X220638476Y-142184523D01*
X220828952Y-142232142D01*
X220971809Y-142232142D01*
X221162285Y-142184523D01*
X221257523Y-142136904D01*
X221352761Y-142041666D01*
X221400380Y-141898809D01*
X221400380Y-141660714D01*
X221400380Y-143184523D02*
X221400380Y-142613095D01*
X221400380Y-142898809D02*
X220400380Y-142898809D01*
X220543238Y-142803571D01*
X220638476Y-142708333D01*
X220686095Y-142613095D01*
X220495619Y-143565476D02*
X220448000Y-143613095D01*
X220400380Y-143708333D01*
X220400380Y-143946428D01*
X220448000Y-144041666D01*
X220495619Y-144089285D01*
X220590857Y-144136904D01*
X220686095Y-144136904D01*
X220828952Y-144089285D01*
X221400380Y-143517857D01*
X221400380Y-144136904D01*
G04 #@! TO.C,D8*
X183300380Y-123086904D02*
X182300380Y-123086904D01*
X182300380Y-123325000D01*
X182348000Y-123467857D01*
X182443238Y-123563095D01*
X182538476Y-123610714D01*
X182728952Y-123658333D01*
X182871809Y-123658333D01*
X183062285Y-123610714D01*
X183157523Y-123563095D01*
X183252761Y-123467857D01*
X183300380Y-123325000D01*
X183300380Y-123086904D01*
X182728952Y-124229761D02*
X182681333Y-124134523D01*
X182633714Y-124086904D01*
X182538476Y-124039285D01*
X182490857Y-124039285D01*
X182395619Y-124086904D01*
X182348000Y-124134523D01*
X182300380Y-124229761D01*
X182300380Y-124420238D01*
X182348000Y-124515476D01*
X182395619Y-124563095D01*
X182490857Y-124610714D01*
X182538476Y-124610714D01*
X182633714Y-124563095D01*
X182681333Y-124515476D01*
X182728952Y-124420238D01*
X182728952Y-124229761D01*
X182776571Y-124134523D01*
X182824190Y-124086904D01*
X182919428Y-124039285D01*
X183109904Y-124039285D01*
X183205142Y-124086904D01*
X183252761Y-124134523D01*
X183300380Y-124229761D01*
X183300380Y-124420238D01*
X183252761Y-124515476D01*
X183205142Y-124563095D01*
X183109904Y-124610714D01*
X182919428Y-124610714D01*
X182824190Y-124563095D01*
X182776571Y-124515476D01*
X182728952Y-124420238D01*
G04 #@! TO.C,D11*
X192698380Y-141660714D02*
X191698380Y-141660714D01*
X191698380Y-141898809D01*
X191746000Y-142041666D01*
X191841238Y-142136904D01*
X191936476Y-142184523D01*
X192126952Y-142232142D01*
X192269809Y-142232142D01*
X192460285Y-142184523D01*
X192555523Y-142136904D01*
X192650761Y-142041666D01*
X192698380Y-141898809D01*
X192698380Y-141660714D01*
X192698380Y-143184523D02*
X192698380Y-142613095D01*
X192698380Y-142898809D02*
X191698380Y-142898809D01*
X191841238Y-142803571D01*
X191936476Y-142708333D01*
X191984095Y-142613095D01*
X192698380Y-144136904D02*
X192698380Y-143565476D01*
X192698380Y-143851190D02*
X191698380Y-143851190D01*
X191841238Y-143755952D01*
X191936476Y-143660714D01*
X191984095Y-143565476D01*
G04 #@! TO.C,D2*
X202350380Y-85367904D02*
X201350380Y-85367904D01*
X201350380Y-85606000D01*
X201398000Y-85748857D01*
X201493238Y-85844095D01*
X201588476Y-85891714D01*
X201778952Y-85939333D01*
X201921809Y-85939333D01*
X202112285Y-85891714D01*
X202207523Y-85844095D01*
X202302761Y-85748857D01*
X202350380Y-85606000D01*
X202350380Y-85367904D01*
X201445619Y-86320285D02*
X201398000Y-86367904D01*
X201350380Y-86463142D01*
X201350380Y-86701238D01*
X201398000Y-86796476D01*
X201445619Y-86844095D01*
X201540857Y-86891714D01*
X201636095Y-86891714D01*
X201778952Y-86844095D01*
X202350380Y-86272666D01*
X202350380Y-86891714D01*
G04 #@! TO.C,D4*
X183173380Y-104290904D02*
X182173380Y-104290904D01*
X182173380Y-104529000D01*
X182221000Y-104671857D01*
X182316238Y-104767095D01*
X182411476Y-104814714D01*
X182601952Y-104862333D01*
X182744809Y-104862333D01*
X182935285Y-104814714D01*
X183030523Y-104767095D01*
X183125761Y-104671857D01*
X183173380Y-104529000D01*
X183173380Y-104290904D01*
X182506714Y-105719476D02*
X183173380Y-105719476D01*
X182125761Y-105481380D02*
X182840047Y-105243285D01*
X182840047Y-105862333D01*
G04 #@! TO.C,D6*
X221400380Y-104290904D02*
X220400380Y-104290904D01*
X220400380Y-104529000D01*
X220448000Y-104671857D01*
X220543238Y-104767095D01*
X220638476Y-104814714D01*
X220828952Y-104862333D01*
X220971809Y-104862333D01*
X221162285Y-104814714D01*
X221257523Y-104767095D01*
X221352761Y-104671857D01*
X221400380Y-104529000D01*
X221400380Y-104290904D01*
X220400380Y-105719476D02*
X220400380Y-105529000D01*
X220448000Y-105433761D01*
X220495619Y-105386142D01*
X220638476Y-105290904D01*
X220828952Y-105243285D01*
X221209904Y-105243285D01*
X221305142Y-105290904D01*
X221352761Y-105338523D01*
X221400380Y-105433761D01*
X221400380Y-105624238D01*
X221352761Y-105719476D01*
X221305142Y-105767095D01*
X221209904Y-105814714D01*
X220971809Y-105814714D01*
X220876571Y-105767095D01*
X220828952Y-105719476D01*
X220781333Y-105624238D01*
X220781333Y-105433761D01*
X220828952Y-105338523D01*
X220876571Y-105290904D01*
X220971809Y-105243285D01*
G04 #@! TO.C,D3*
X221400380Y-85367904D02*
X220400380Y-85367904D01*
X220400380Y-85606000D01*
X220448000Y-85748857D01*
X220543238Y-85844095D01*
X220638476Y-85891714D01*
X220828952Y-85939333D01*
X220971809Y-85939333D01*
X221162285Y-85891714D01*
X221257523Y-85844095D01*
X221352761Y-85748857D01*
X221400380Y-85606000D01*
X221400380Y-85367904D01*
X220400380Y-86272666D02*
X220400380Y-86891714D01*
X220781333Y-86558380D01*
X220781333Y-86701238D01*
X220828952Y-86796476D01*
X220876571Y-86844095D01*
X220971809Y-86891714D01*
X221209904Y-86891714D01*
X221305142Y-86844095D01*
X221352761Y-86796476D01*
X221400380Y-86701238D01*
X221400380Y-86415523D01*
X221352761Y-86320285D01*
X221305142Y-86272666D01*
D11*
G04 #@! TO.C,D13*
X223377000Y-136489000D02*
X221377000Y-136489000D01*
X223377000Y-136489000D02*
X223377000Y-132589000D01*
X221377000Y-136489000D02*
X221377000Y-132589000D01*
G04 #@! TO.C,D1*
X179848000Y-88356000D02*
X179848000Y-84456000D01*
X181848000Y-88356000D02*
X179848000Y-88356000D01*
X181848000Y-88356000D02*
X181848000Y-84456000D01*
G04 #@! TO.C,D5*
X198898000Y-107279000D02*
X198898000Y-103379000D01*
X200898000Y-107279000D02*
X198898000Y-107279000D01*
X200898000Y-107279000D02*
X200898000Y-103379000D01*
G04 #@! TO.C,D10*
X219948000Y-126075000D02*
X219948000Y-122175000D01*
X217948000Y-126075000D02*
X217948000Y-122175000D01*
X219948000Y-126075000D02*
X217948000Y-126075000D01*
G04 #@! TO.C,D7*
X223631000Y-98643000D02*
X221631000Y-98643000D01*
X221631000Y-98643000D02*
X221631000Y-94743000D01*
X223631000Y-98643000D02*
X223631000Y-94743000D01*
G04 #@! TO.C,D9*
X200898000Y-126202000D02*
X198898000Y-126202000D01*
X198898000Y-126202000D02*
X198898000Y-122302000D01*
X200898000Y-126202000D02*
X200898000Y-122302000D01*
G04 #@! TO.C,D12*
X217948000Y-145125000D02*
X217948000Y-141225000D01*
X219948000Y-145125000D02*
X217948000Y-145125000D01*
X219948000Y-145125000D02*
X219948000Y-141225000D01*
G04 #@! TO.C,D8*
X181848000Y-126075000D02*
X181848000Y-122175000D01*
X179848000Y-126075000D02*
X179848000Y-122175000D01*
X181848000Y-126075000D02*
X179848000Y-126075000D01*
G04 #@! TO.C,D11*
X191246000Y-145125000D02*
X189246000Y-145125000D01*
X189246000Y-145125000D02*
X189246000Y-141225000D01*
X191246000Y-145125000D02*
X191246000Y-141225000D01*
G04 #@! TO.C,D2*
X200898000Y-88356000D02*
X198898000Y-88356000D01*
X200898000Y-88356000D02*
X200898000Y-84456000D01*
X198898000Y-88356000D02*
X198898000Y-84456000D01*
G04 #@! TO.C,D4*
X181721000Y-107279000D02*
X179721000Y-107279000D01*
X181721000Y-107279000D02*
X181721000Y-103379000D01*
X179721000Y-107279000D02*
X179721000Y-103379000D01*
G04 #@! TO.C,D6*
X219948000Y-107279000D02*
X217948000Y-107279000D01*
X219948000Y-107279000D02*
X219948000Y-103379000D01*
X217948000Y-107279000D02*
X217948000Y-103379000D01*
G04 #@! TO.C,D3*
X219948000Y-88356000D02*
X219948000Y-84456000D01*
X219948000Y-88356000D02*
X217948000Y-88356000D01*
X217948000Y-88356000D02*
X217948000Y-84456000D01*
G04 #@! TD*
%LPC*%
D12*
G04 #@! TO.C,MX4*
X173037500Y-104775000D03*
D13*
X167957500Y-104775000D03*
X178117500Y-104775000D03*
D14*
X170537500Y-100775000D03*
D15*
X169882501Y-101505000D03*
D16*
X175557500Y-99985000D03*
D14*
X175577500Y-99695000D03*
D17*
X171767500Y-109855000D03*
D18*
X174307500Y-109855000D03*
G04 #@! TD*
D12*
G04 #@! TO.C,MX7*
X238442500Y-107188000D03*
D13*
X230187500Y-90170000D03*
X230187500Y-100330000D03*
D19*
X223202500Y-83312000D03*
D12*
X238442500Y-83312000D03*
X230187500Y-95250000D03*
D19*
X223202500Y-107188000D03*
D14*
X226187500Y-97750000D03*
D20*
X226917500Y-98404999D03*
D14*
X225107500Y-92710000D03*
D21*
X225397500Y-92730000D03*
D17*
X235267500Y-96520000D03*
D18*
X235267500Y-93980000D03*
G04 #@! TD*
D12*
G04 #@! TO.C,MX6*
X211137500Y-104775000D03*
D13*
X216217500Y-104775000D03*
X206057500Y-104775000D03*
D14*
X208637500Y-100775000D03*
D15*
X207982501Y-101505000D03*
D16*
X213657500Y-99985000D03*
D14*
X213677500Y-99695000D03*
D17*
X209867500Y-109855000D03*
D18*
X212407500Y-109855000D03*
G04 #@! TD*
D13*
G04 #@! TO.C,MX8*
X167957500Y-123825000D03*
D12*
X173037500Y-123825000D03*
D13*
X178117500Y-123825000D03*
D15*
X169882501Y-120555000D03*
D14*
X170537500Y-119825000D03*
D16*
X175557500Y-119035000D03*
D14*
X175577500Y-118745000D03*
D17*
X171767500Y-128905000D03*
D18*
X174307500Y-128905000D03*
G04 #@! TD*
G04 #@! TO.C,MX5*
X193357500Y-109855000D03*
D17*
X190817500Y-109855000D03*
D14*
X194627500Y-99695000D03*
D16*
X194607500Y-99985000D03*
D15*
X188932501Y-101505000D03*
D14*
X189587500Y-100775000D03*
D13*
X197167500Y-104775000D03*
D12*
X192087500Y-104775000D03*
D13*
X187007500Y-104775000D03*
G04 #@! TD*
D22*
G04 #@! TO.C,SW2*
X236358000Y-62397000D03*
X236358000Y-67397000D03*
D23*
X229358000Y-70497000D03*
X229358000Y-59297000D03*
D22*
X221858000Y-64897000D03*
X221858000Y-67397000D03*
D24*
X221858000Y-62397000D03*
G04 #@! TD*
D19*
G04 #@! TO.C,MX11*
X170624500Y-135890000D03*
D13*
X177482500Y-142875000D03*
D12*
X194500500Y-151130000D03*
D13*
X187642500Y-142875000D03*
D12*
X170624500Y-151130000D03*
X182562500Y-142875000D03*
D19*
X194500500Y-135890000D03*
D14*
X180062500Y-138875000D03*
D15*
X179407501Y-139605000D03*
D14*
X185102500Y-137795000D03*
D16*
X185082500Y-138085000D03*
D17*
X181292500Y-147955000D03*
D18*
X183832500Y-147955000D03*
G04 #@! TD*
D13*
G04 #@! TO.C,MX12*
X206057500Y-142875000D03*
D12*
X211137500Y-142875000D03*
D13*
X216217500Y-142875000D03*
D15*
X207982501Y-139605000D03*
D14*
X208637500Y-138875000D03*
X213677500Y-137795000D03*
D16*
X213657500Y-138085000D03*
D17*
X209867500Y-147955000D03*
D18*
X212407500Y-147955000D03*
G04 #@! TD*
D12*
G04 #@! TO.C,MX13*
X230187500Y-133350000D03*
D13*
X230187500Y-138430000D03*
X230187500Y-128270000D03*
D12*
X238442500Y-145288000D03*
D19*
X223202500Y-145288000D03*
X223202500Y-121412000D03*
D12*
X238442500Y-121412000D03*
D14*
X226187500Y-135850000D03*
D20*
X226917500Y-136504999D03*
D21*
X225397500Y-130830000D03*
D14*
X225107500Y-130810000D03*
D17*
X235267500Y-134620000D03*
D18*
X235267500Y-132080000D03*
G04 #@! TD*
D13*
G04 #@! TO.C,MX9*
X197167500Y-123825000D03*
D12*
X192087500Y-123825000D03*
D13*
X187007500Y-123825000D03*
D15*
X188932501Y-120555000D03*
D14*
X189587500Y-119825000D03*
X194627500Y-118745000D03*
D16*
X194607500Y-119035000D03*
D17*
X190817500Y-128905000D03*
D18*
X193357500Y-128905000D03*
G04 #@! TD*
D13*
G04 #@! TO.C,MX10*
X206057500Y-123825000D03*
X216217500Y-123825000D03*
D12*
X211137500Y-123825000D03*
D15*
X207982501Y-120555000D03*
D14*
X208637500Y-119825000D03*
D16*
X213657500Y-119035000D03*
D14*
X213677500Y-118745000D03*
D17*
X209867500Y-128905000D03*
D18*
X212407500Y-128905000D03*
G04 #@! TD*
D13*
G04 #@! TO.C,MX3*
X216217500Y-85725000D03*
D12*
X211137500Y-85725000D03*
D13*
X206057500Y-85725000D03*
D14*
X208637500Y-81725000D03*
D15*
X207982501Y-82455000D03*
D14*
X213677500Y-80645000D03*
D16*
X213657500Y-80935000D03*
D17*
X209867500Y-90805000D03*
D18*
X212407500Y-90805000D03*
G04 #@! TD*
D12*
G04 #@! TO.C,MX1*
X173037500Y-85725000D03*
D13*
X178117500Y-85725000D03*
X167957500Y-85725000D03*
D15*
X169882501Y-82455000D03*
D14*
X170537500Y-81725000D03*
D16*
X175557500Y-80935000D03*
D14*
X175577500Y-80645000D03*
D17*
X171767500Y-90805000D03*
D18*
X174307500Y-90805000D03*
G04 #@! TD*
D13*
G04 #@! TO.C,MX2*
X187007500Y-85725000D03*
X197167500Y-85725000D03*
D12*
X192087500Y-85725000D03*
D14*
X189587500Y-81725000D03*
D15*
X188932501Y-82455000D03*
D16*
X194607500Y-80935000D03*
D14*
X194627500Y-80645000D03*
D17*
X190817500Y-90805000D03*
D18*
X193357500Y-90805000D03*
G04 #@! TD*
D25*
G04 #@! TO.C,D13*
X222377000Y-135889000D03*
X222377000Y-132589000D03*
G04 #@! TD*
G04 #@! TO.C,D1*
X180848000Y-87756000D03*
X180848000Y-84456000D03*
G04 #@! TD*
G04 #@! TO.C,D5*
X199898000Y-106679000D03*
X199898000Y-103379000D03*
G04 #@! TD*
G04 #@! TO.C,D10*
X218948000Y-125475000D03*
X218948000Y-122175000D03*
G04 #@! TD*
G04 #@! TO.C,D7*
X222631000Y-98043000D03*
X222631000Y-94743000D03*
G04 #@! TD*
G04 #@! TO.C,D9*
X199898000Y-125602000D03*
X199898000Y-122302000D03*
G04 #@! TD*
D26*
G04 #@! TO.C,USB1*
X175822000Y-56896000D03*
X175047000Y-56896000D03*
D27*
X174347000Y-56896000D03*
X173847000Y-56896000D03*
X173347000Y-56896000D03*
X172847000Y-56896000D03*
X172347000Y-56896000D03*
X171847000Y-56896000D03*
X171347000Y-56896000D03*
X170847000Y-56896000D03*
D26*
X170147000Y-56896000D03*
X169372000Y-56896000D03*
D28*
X175487000Y-54951000D03*
X169707000Y-54951000D03*
G04 #@! TD*
D25*
G04 #@! TO.C,D12*
X218948000Y-144525000D03*
X218948000Y-141225000D03*
G04 #@! TD*
G04 #@! TO.C,D8*
X180848000Y-125475000D03*
X180848000Y-122175000D03*
G04 #@! TD*
G04 #@! TO.C,D11*
X190246000Y-144525000D03*
X190246000Y-141225000D03*
G04 #@! TD*
G04 #@! TO.C,D2*
X199898000Y-87756000D03*
X199898000Y-84456000D03*
G04 #@! TD*
G04 #@! TO.C,D4*
X180721000Y-106679000D03*
X180721000Y-103379000D03*
G04 #@! TD*
G04 #@! TO.C,D6*
X218948000Y-106679000D03*
X218948000Y-103379000D03*
G04 #@! TD*
G04 #@! TO.C,D3*
X218948000Y-87756000D03*
X218948000Y-84456000D03*
G04 #@! TD*
M02*
