G04 #@! TF.GenerationSoftware,KiCad,Pcbnew,(6.0.5)*
G04 #@! TF.CreationDate,2023-01-08T23:57:36-05:00*
G04 #@! TF.ProjectId,macro-pad-pcb,6d616372-6f2d-4706-9164-2d7063622e6b,rev?*
G04 #@! TF.SameCoordinates,Original*
G04 #@! TF.FileFunction,Soldermask,Bot*
G04 #@! TF.FilePolarity,Negative*
%FSLAX46Y46*%
G04 Gerber Fmt 4.6, Leading zero omitted, Abs format (unit mm)*
G04 Created by KiCad (PCBNEW (6.0.5)) date 2023-01-08 23:57:36*
%MOMM*%
%LPD*%
G01*
G04 APERTURE LIST*
G04 Aperture macros list*
%AMHorizOval*
0 Thick line with rounded ends*
0 $1 width*
0 $2 $3 position (X,Y) of the first rounded end (center of the circle)*
0 $4 $5 position (X,Y) of the second rounded end (center of the circle)*
0 Add line between two ends*
20,1,$1,$2,$3,$4,$5,0*
0 Add two circle primitives to create the rounded ends*
1,1,$1,$2,$3*
1,1,$1,$4,$5*%
G04 Aperture macros list end*
%ADD10C,3.987800*%
%ADD11C,1.750000*%
%ADD12C,2.250000*%
%ADD13HorizOval,2.250000X0.655001X0.730000X-0.655001X-0.730000X0*%
%ADD14HorizOval,2.250000X0.020000X0.290000X-0.020000X-0.290000X0*%
%ADD15C,1.905000*%
%ADD16R,1.905000X1.905000*%
%ADD17C,3.048000*%
%ADD18HorizOval,2.250000X-0.730000X0.655001X0.730000X-0.655001X0*%
%ADD19HorizOval,2.250000X-0.290000X0.020000X0.290000X-0.020000X0*%
%ADD20C,2.000000*%
%ADD21C,3.200000*%
%ADD22R,2.000000X2.000000*%
%ADD23R,1.200000X0.900000*%
%ADD24R,0.600000X2.450000*%
%ADD25R,0.300000X2.450000*%
%ADD26C,0.650000*%
G04 APERTURE END LIST*
D10*
G04 #@! TO.C,MX4*
X173037500Y-104775000D03*
D11*
X167957500Y-104775000D03*
X178117500Y-104775000D03*
D12*
X170537500Y-100775000D03*
D13*
X169882501Y-101505000D03*
D14*
X175557500Y-99985000D03*
D12*
X175577500Y-99695000D03*
D15*
X171767500Y-109855000D03*
D16*
X174307500Y-109855000D03*
G04 #@! TD*
D10*
G04 #@! TO.C,MX7*
X238442500Y-107188000D03*
D11*
X230187500Y-90170000D03*
X230187500Y-100330000D03*
D17*
X223202500Y-83312000D03*
D10*
X238442500Y-83312000D03*
X230187500Y-95250000D03*
D17*
X223202500Y-107188000D03*
D12*
X226187500Y-97750000D03*
D18*
X226917500Y-98404999D03*
D12*
X225107500Y-92710000D03*
D19*
X225397500Y-92730000D03*
D15*
X235267500Y-96520000D03*
D16*
X235267500Y-93980000D03*
G04 #@! TD*
D10*
G04 #@! TO.C,MX6*
X211137500Y-104775000D03*
D11*
X216217500Y-104775000D03*
X206057500Y-104775000D03*
D12*
X208637500Y-100775000D03*
D13*
X207982501Y-101505000D03*
D14*
X213657500Y-99985000D03*
D12*
X213677500Y-99695000D03*
D15*
X209867500Y-109855000D03*
D16*
X212407500Y-109855000D03*
G04 #@! TD*
D11*
G04 #@! TO.C,MX8*
X167957500Y-123825000D03*
D10*
X173037500Y-123825000D03*
D11*
X178117500Y-123825000D03*
D13*
X169882501Y-120555000D03*
D12*
X170537500Y-119825000D03*
D14*
X175557500Y-119035000D03*
D12*
X175577500Y-118745000D03*
D15*
X171767500Y-128905000D03*
D16*
X174307500Y-128905000D03*
G04 #@! TD*
G04 #@! TO.C,MX5*
X193357500Y-109855000D03*
D15*
X190817500Y-109855000D03*
D12*
X194627500Y-99695000D03*
D14*
X194607500Y-99985000D03*
D13*
X188932501Y-101505000D03*
D12*
X189587500Y-100775000D03*
D11*
X197167500Y-104775000D03*
D10*
X192087500Y-104775000D03*
D11*
X187007500Y-104775000D03*
G04 #@! TD*
D20*
G04 #@! TO.C,SW2*
X236358000Y-62397000D03*
X236358000Y-67397000D03*
D21*
X229358000Y-70497000D03*
X229358000Y-59297000D03*
D20*
X221858000Y-64897000D03*
X221858000Y-67397000D03*
D22*
X221858000Y-62397000D03*
G04 #@! TD*
D17*
G04 #@! TO.C,MX11*
X170624500Y-135890000D03*
D11*
X177482500Y-142875000D03*
D10*
X194500500Y-151130000D03*
D11*
X187642500Y-142875000D03*
D10*
X170624500Y-151130000D03*
X182562500Y-142875000D03*
D17*
X194500500Y-135890000D03*
D12*
X180062500Y-138875000D03*
D13*
X179407501Y-139605000D03*
D12*
X185102500Y-137795000D03*
D14*
X185082500Y-138085000D03*
D15*
X181292500Y-147955000D03*
D16*
X183832500Y-147955000D03*
G04 #@! TD*
D11*
G04 #@! TO.C,MX12*
X206057500Y-142875000D03*
D10*
X211137500Y-142875000D03*
D11*
X216217500Y-142875000D03*
D13*
X207982501Y-139605000D03*
D12*
X208637500Y-138875000D03*
X213677500Y-137795000D03*
D14*
X213657500Y-138085000D03*
D15*
X209867500Y-147955000D03*
D16*
X212407500Y-147955000D03*
G04 #@! TD*
D10*
G04 #@! TO.C,MX13*
X230187500Y-133350000D03*
D11*
X230187500Y-138430000D03*
X230187500Y-128270000D03*
D10*
X238442500Y-145288000D03*
D17*
X223202500Y-145288000D03*
X223202500Y-121412000D03*
D10*
X238442500Y-121412000D03*
D12*
X226187500Y-135850000D03*
D18*
X226917500Y-136504999D03*
D19*
X225397500Y-130830000D03*
D12*
X225107500Y-130810000D03*
D15*
X235267500Y-134620000D03*
D16*
X235267500Y-132080000D03*
G04 #@! TD*
D11*
G04 #@! TO.C,MX9*
X197167500Y-123825000D03*
D10*
X192087500Y-123825000D03*
D11*
X187007500Y-123825000D03*
D13*
X188932501Y-120555000D03*
D12*
X189587500Y-119825000D03*
X194627500Y-118745000D03*
D14*
X194607500Y-119035000D03*
D15*
X190817500Y-128905000D03*
D16*
X193357500Y-128905000D03*
G04 #@! TD*
D11*
G04 #@! TO.C,MX10*
X206057500Y-123825000D03*
X216217500Y-123825000D03*
D10*
X211137500Y-123825000D03*
D13*
X207982501Y-120555000D03*
D12*
X208637500Y-119825000D03*
D14*
X213657500Y-119035000D03*
D12*
X213677500Y-118745000D03*
D15*
X209867500Y-128905000D03*
D16*
X212407500Y-128905000D03*
G04 #@! TD*
D11*
G04 #@! TO.C,MX3*
X216217500Y-85725000D03*
D10*
X211137500Y-85725000D03*
D11*
X206057500Y-85725000D03*
D12*
X208637500Y-81725000D03*
D13*
X207982501Y-82455000D03*
D12*
X213677500Y-80645000D03*
D14*
X213657500Y-80935000D03*
D15*
X209867500Y-90805000D03*
D16*
X212407500Y-90805000D03*
G04 #@! TD*
D10*
G04 #@! TO.C,MX1*
X173037500Y-85725000D03*
D11*
X178117500Y-85725000D03*
X167957500Y-85725000D03*
D13*
X169882501Y-82455000D03*
D12*
X170537500Y-81725000D03*
D14*
X175557500Y-80935000D03*
D12*
X175577500Y-80645000D03*
D15*
X171767500Y-90805000D03*
D16*
X174307500Y-90805000D03*
G04 #@! TD*
D11*
G04 #@! TO.C,MX2*
X187007500Y-85725000D03*
X197167500Y-85725000D03*
D10*
X192087500Y-85725000D03*
D12*
X189587500Y-81725000D03*
D13*
X188932501Y-82455000D03*
D14*
X194607500Y-80935000D03*
D12*
X194627500Y-80645000D03*
D15*
X190817500Y-90805000D03*
D16*
X193357500Y-90805000D03*
G04 #@! TD*
D23*
G04 #@! TO.C,D13*
X222377000Y-135889000D03*
X222377000Y-132589000D03*
G04 #@! TD*
G04 #@! TO.C,D1*
X180848000Y-87756000D03*
X180848000Y-84456000D03*
G04 #@! TD*
G04 #@! TO.C,D5*
X199898000Y-106679000D03*
X199898000Y-103379000D03*
G04 #@! TD*
G04 #@! TO.C,D10*
X218948000Y-125475000D03*
X218948000Y-122175000D03*
G04 #@! TD*
G04 #@! TO.C,D7*
X222631000Y-98043000D03*
X222631000Y-94743000D03*
G04 #@! TD*
G04 #@! TO.C,D9*
X199898000Y-125602000D03*
X199898000Y-122302000D03*
G04 #@! TD*
D24*
G04 #@! TO.C,USB1*
X175822000Y-56896000D03*
X175047000Y-56896000D03*
D25*
X174347000Y-56896000D03*
X173847000Y-56896000D03*
X173347000Y-56896000D03*
X172847000Y-56896000D03*
X172347000Y-56896000D03*
X171847000Y-56896000D03*
X171347000Y-56896000D03*
X170847000Y-56896000D03*
D24*
X170147000Y-56896000D03*
X169372000Y-56896000D03*
D26*
X175487000Y-54951000D03*
X169707000Y-54951000D03*
G04 #@! TD*
D23*
G04 #@! TO.C,D12*
X218948000Y-144525000D03*
X218948000Y-141225000D03*
G04 #@! TD*
G04 #@! TO.C,D8*
X180848000Y-125475000D03*
X180848000Y-122175000D03*
G04 #@! TD*
G04 #@! TO.C,D11*
X190246000Y-144525000D03*
X190246000Y-141225000D03*
G04 #@! TD*
G04 #@! TO.C,D2*
X199898000Y-87756000D03*
X199898000Y-84456000D03*
G04 #@! TD*
G04 #@! TO.C,D4*
X180721000Y-106679000D03*
X180721000Y-103379000D03*
G04 #@! TD*
G04 #@! TO.C,D6*
X218948000Y-106679000D03*
X218948000Y-103379000D03*
G04 #@! TD*
G04 #@! TO.C,D3*
X218948000Y-87756000D03*
X218948000Y-84456000D03*
G04 #@! TD*
M02*
